<?xml version="1.0" encoding="UTF-8" standalone="no"?>
<!DOCTYPE svg PUBLIC "-//W3C//DTD SVG 1.1//EN" "http://www.w3.org/Graphics/SVG/1.1/DTD/svg11.dtd">
<!-- Created with Vectornator (http://vectornator.io/) -->
<svg height="100%" stroke-miterlimit="10" style="fill-rule:nonzero;clip-rule:evenodd;stroke-linecap:round;stroke-linejoin:round;" version="1.1" viewBox="0 0 56.8927 57.0222" width="100%" xml:space="preserve" xmlns="http://www.w3.org/2000/svg" xmlns:xlink="http://www.w3.org/1999/xlink">
<defs/>
<g id="Livello-1">
<path d="M55.2177 30.5253C54.3357 45.2453 41.6847 56.4643 26.9627 55.5823C12.2397 54.6993 1.01969 42.0503 1.90268 27.3313C2.78469 12.6083 15.4347 1.39128 30.1577 2.27327C44.7057 3.14528 55.8337 15.5053 55.2437 30.0023" fill="#ffffff" fill-rule="nonzero" opacity="1" stroke="none"/>
<path d="M56.3437 29.669L53.8707 29.584M56.3557 28.362L53.8817 28.401M56.3067 27.057L53.8377 27.219M56.1987 25.77L53.7377 26.024M56.0287 24.475L53.5837 24.851M55.7987 23.19L53.3747 23.686M55.5087 21.917L53.1117 22.531M55.1587 20.66L52.7947 21.39M54.7547 19.435L52.4187 20.251M54.2887 18.216L51.9957 19.144M53.7667 17.021L51.5197 18.058M53.1897 15.852L50.9947 16.995M52.5577 14.711L50.4207 15.957M51.8747 13.601L49.7987 14.948M51.1407 12.524L49.1307 13.967M50.3567 11.483L48.4177 13.019M49.5257 10.479L47.6607 12.105M48.6497 9.51496L46.8637 11.227M47.7297 8.59196L46.0257 10.386M46.7677 7.71296L45.1507 9.58496M45.7767 6.88796L44.2277 8.81696M44.7377 6.10196L43.2807 8.10196M43.6617 5.36396L42.3027 7.43196M42.5537 4.67796L41.2947 6.80796M41.4137 4.04396L40.2587 6.23196M40.2447 3.46396L39.1977 5.70496M39.0497 2.93896L38.1127 5.22896M37.8317 2.47096L37.0077 4.80396M36.5917 2.05996L35.8837 4.43096M35.3487 1.71296L34.7287 4.10796M34.0757 1.41996L33.5757 3.84296M32.7907 1.18696L32.4117 3.63196M31.5107 1.01496L31.2237 3.47296M30.2087 0.901961L30.0457 3.37096M28.9027 0.847962L28.8637 3.32196M27.6107 0.853961L27.6667 3.32796M26.3057 0.920962L26.4857 3.38896M25.0047 1.04896L25.3087 3.50396M23.7117 1.23696L24.1377 3.67396M22.4437 1.48296L22.9617 3.90196M21.1747 1.79096L21.8117 4.18196M19.9217 2.15896L20.6757 4.51596M18.6877 2.58496L19.5557 4.90196M17.4757 3.06796L18.4557 5.33996M16.3007 3.60096L17.3627 5.83596M15.1387 4.19496L16.3077 6.37596M14.0067 4.84196L15.2797 6.96396M12.9057 5.54096L14.2787 7.59996M11.8387 6.29096L13.3087 8.28096M10.8077 7.08896L12.3707 9.00696M9.81468 7.93396L11.4677 9.77496M8.86168 8.82396L10.6007 10.584M7.96168 9.74596L9.76168 11.444M7.09468 10.721L8.97468 12.33M6.27468 11.735L8.22968 13.252M5.50268 12.786L7.52768 14.207M4.77968 13.872L6.87168 15.194M4.10768 14.991L6.26168 16.21M3.48968 16.14L5.70068 17.252M2.93168 17.304L5.18168 18.334M2.42368 18.507L4.72168 19.425M1.97268 19.733L4.31368 20.535M1.57968 20.979L3.95668 21.663M1.24468 22.242L3.65368 22.807M0.972679 23.504L3.40168 23.978M0.757679 24.794L3.20768 25.144M0.602677 26.092L3.06668 26.318M0.508679 27.38L2.97868 27.513M0.472679 28.687L2.94668 28.694M0.496678 29.995L2.96868 29.877M0.581677 31.283L3.04668 31.072M0.727677 32.582L3.17868 32.247M0.933678 33.872L3.36568 33.415M1.19768 35.136L3.61068 34.589M1.52468 36.401L3.90668 35.734M1.90968 37.648L4.25668 36.865M2.35368 38.876L4.65968 37.979M2.85368 40.081L5.11368 39.073M3.40968 41.262L5.61768 40.145M4.02068 42.414L6.17268 41.193M4.67668 43.524L6.78268 42.226M5.39168 44.615L7.43268 43.218M6.15568 45.672L8.12868 44.178M6.96868 46.691L8.86768 45.105M7.82668 47.672L9.64868 45.997M8.73068 48.612L10.4697 46.852M9.67668 49.509L11.3307 47.669M10.6637 50.362L12.2267 48.444M11.6777 51.158L13.1707 49.186M12.7397 51.916L14.1357 49.873M13.8357 52.623L15.1317 50.515M14.9647 53.278L16.1567 51.11M16.1227 53.88L17.2077 51.657M17.3077 54.428L18.2817 52.153M18.5037 54.913L19.3927 52.604M19.7357 55.347L20.5097 52.996M20.9877 55.722L21.6427 53.336M22.2557 56.039L22.7897 53.623M23.5217 56.293L23.9647 53.858M24.8147 56.49L25.1337 54.036M26.1147 56.627L26.3097 54.16M27.4037 56.704L27.5047 54.232M28.7117 56.721L28.6867 54.247M30.0177 56.679L29.8687 54.209M31.3057 56.576L31.0627 54.114M32.6017 56.412L32.2367 53.965M33.8887 56.187L33.4017 53.761M35.1637 55.902L34.5567 53.503M36.4087 55.562L35.7137 53.187M37.6507 55.159L36.8397 52.821M38.8717 54.698L37.9477 52.403M40.0707 54.181L39.0347 51.934M41.2427 53.609L40.0997 51.414M42.3867 52.982L41.1397 50.845M43.4997 52.303L42.1517 50.228M44.5687 51.582L43.1467 49.556M45.6147 50.803L44.0977 48.848M46.6227 49.976L45.0147 48.096M47.5917 49.104L45.8957 47.302M48.5187 48.187L46.7387 46.469M49.4027 47.229L47.5427 45.597M50.2417 46.23L48.3057 44.69M51.0337 45.194L49.0257 43.748M51.7677 44.134L49.7087 42.761M52.4597 43.027L50.3367 41.757M53.0997 41.89L50.9167 40.724M53.6847 40.723L51.4477 39.666M54.2157 39.53L51.9287 38.584M54.6897 38.313L52.3587 37.481M55.1007 37.089L52.7407 36.345M55.4587 35.833L53.0647 35.207M55.7577 34.56L53.3347 34.056M55.9967 33.275L53.5517 32.894M56.1727 31.995L53.7157 31.707M56.2847 30.835L53.8157 30.672" fill="none" opacity="1" stroke="#231f20" stroke-linecap="butt" stroke-linejoin="miter" stroke-width="0.463"/>
<path d="M24.0832 29.697C24.0922 29.651 24.3422 29.845 24.3792 29.776L25.0292 30.644C25.0292 30.644 26.0442 31.217 26.2112 31.12C26.3792 31.019 26.5282 30.761 26.6372 30.74C26.7452 30.719 26.8892 30.568 27.0262 30.549C27.1612 30.53 27.3142 30.216 27.3142 30.216C27.3142 30.216 27.7652 30.323 27.7812 30.053C27.7972 29.786 27.8112 29.116 27.8112 29.116C27.8112 29.116 28.1732 28.896 28.2582 28.39C28.3652 28.396 28.9602 28.325 28.9602 28.325C29.4552 28.166 29.3792 27.623 29.2882 27.349C29.1982 27.072 28.6252 26.744 28.6252 26.744C28.8922 26.355 28.5812 26.121 28.5812 26.121C28.4812 25.828 28.2192 25.727 28.0122 25.691L27.7572 25.65L26.5422 24.978L24.4382 24.888L22.5082 27.443L21.8502 27.147L21.8502 25.408L22.6642 23.151L23.5392 22.289L24.4382 23.028L27.3472 23.118C27.3472 23.118 28.4112 23.206 28.5512 22.983C28.8192 22.555 29.1902 21.973 29.1902 21.973L29.2222 22.035C29.3182 22.088 29.3762 22.147 29.3762 22.147C29.3762 22.147 29.6422 22.163 29.7192 22.214C29.6932 22.167 29.7982 22.049 30.1152 21.806C30.4742 21.538 30.1872 21.277 30.2742 20.999C30.3622 20.724 30.1042 20.464 30.1042 20.464L32.4162 21.165L32.4602 21.191C32.3162 21.435 32.3002 21.766 32.1752 21.836C31.9892 21.938 32.2272 22.363 32.1642 22.589C32.1012 22.816 32.3222 22.977 32.3222 22.977L32.4332 22.982C32.4202 23.242 32.4332 23.533 32.4822 23.856C32.4822 23.856 32.5512 24.382 32.8772 24.777L32.8762 24.777L32.8042 24.814C32.8042 24.814 32.6722 25.21 32.5312 25.31C32.3922 25.409 31.7202 26.284 31.8472 26.856C31.9752 27.429 32.2652 28.415 32.2652 28.415L32.5412 28.382L32.5502 28.459C32.5502 28.459 32.3392 29.114 32.1982 29.239C32.1032 29.324 31.6692 29.592 31.2832 30.733L31.2592 30.725C31.2592 30.725 30.8302 30.359 30.2732 30.87C29.8862 31.225 29.8062 31.296 29.7932 31.306C29.7932 31.305 29.7932 31.305 29.7942 31.304L29.7922 31.306L29.7912 31.307C29.7902 31.308 29.7902 31.308 29.7912 31.307C29.4112 31.823 29.4372 31.776 29.3852 31.912C29.3422 32.029 29.1632 32.784 29.1662 32.895C29.1692 33.002 29.1432 33.234 29.0862 33.276C29.0292 33.318 28.7082 33.536 28.6732 33.49C28.6392 33.44 28.3642 33.042 28.2392 33.017C28.1142 32.991 27.9152 32.971 27.9962 33.148C28.0762 33.326 27.5002 33.235 27.8982 33.577L28.2942 33.92C28.2942 33.92 28.6562 34.231 28.8802 34.278C29.1042 34.331 29.4792 34.301 29.6602 34.007L29.7152 34.012C29.6792 34.228 29.6342 34.449 29.5912 34.515C29.5032 34.655 29.3462 35.152 29.4042 35.231C29.4042 35.231 29.5592 35.715 29.8092 35.367L30.0602 35.018L30.3252 34.589L30.3452 34.595C30.1402 35.278 29.9182 35.976 29.7992 36.237C29.5362 36.812 29.1852 37.266 29.1792 37.666C29.1752 37.98 29.1082 38.381 29.2882 38.698L29.2872 38.698L29.2552 38.701C28.4752 38.25 27.9512 38.891 27.1272 39.165C26.3052 39.438 25.4162 39.468 25.4162 39.468L25.4072 39.381C24.6862 39.298 23.7872 38.274 23.7872 38.274L22.3682 36.882C22.7652 34.949 23.6272 34.834 23.6272 34.834L23.5892 34.821C23.9862 33.774 24.2852 32.035 24.4172 31.529C24.4172 31.529 24.3192 31.037 24.3572 30.849" fill="#ffffff" fill-rule="nonzero" opacity="1" stroke="none"/>
<path d="M24.727 24.7772C24.727 24.7772 24.391 24.8882 24.256 25.0002C24.122 25.1122 23.584 25.5382 23.472 25.5832C23.36 25.6282 22.508 26.4232 22.441 26.5242C22.374 26.6252 22.329 26.9722 22.374 27.0842C22.419 27.1962 22.822 28.2192 22.845 28.3172C22.867 28.4152 23.226 28.5072 23.27 28.6452C23.315 28.7832 23.357 29.0422 23.898 29.3252L23.791 30.1772L24.083 29.9542C24.083 29.9542 25.332 30.0202 25.467 29.7732C25.601 29.5272 26.039 29.1052 26.369 28.9442C26.699 28.7832 27.461 28.2782 27.685 28.1822C27.909 28.0862 28.38 28.4152 28.537 28.4152C28.693 28.4152 29.792 28.1752 29.321 27.5292C28.85 26.8822 28.604 26.5692 28.649 26.4122C28.693 26.2552 28.433 25.7172 27.757 25.6502C27.081 25.5832 26.766 25.0672 26.766 25.0672L24.727 24.7772Z" fill="#ffffff" fill-rule="nonzero" opacity="1" stroke="none"/>
<path d="M37.4334 20.1847C37.4334 20.1847 36.2624 19.7117 35.9544 19.6447C35.6454 19.5777 34.2614 19.8667 33.8254 20.1147C33.3884 20.3627 33.1524 20.5307 33.0854 20.7197C33.0184 20.9097 32.4044 21.0787 32.4044 21.2357C32.4044 21.3927 32.1664 21.8857 32.1444 22.0197C32.1224 22.1547 32.1224 22.7817 32.2344 22.8937C32.3464 23.0057 32.3064 23.6337 32.4044 23.7677C32.5034 23.9017 32.7274 24.7247 33.1524 25.0227C33.5784 25.3217 34.1704 25.4707 34.2554 25.6277C34.3404 25.7847 34.7664 26.7127 34.9684 26.5957C35.1694 26.4797 35.3264 26.2107 35.5954 26.3447C35.8644 26.4797 36.5144 26.6367 36.9174 26.2547C37.3214 25.8747 37.7414 25.0057 38.2144 24.7777C38.6884 24.5487 39.2254 24.1487 39.4724 23.5217C39.7184 22.8937 40.0324 21.8407 39.8534 21.2357C39.6734 20.6307 39.0994 20.3627 38.8374 20.3627C38.5764 20.3627 37.4334 20.1847 37.4334 20.1847" fill="#ffffff" fill-rule="nonzero" opacity="1" stroke="none"/>
<path d="M38.2761 36.9723C38.2761 36.9723 38.7141 29.9043 43.3501 24.3713L43.3591 24.3293C43.9291 24.4483 44.5101 24.3833 45.0561 24.0083L45.0411 23.9863C38.8161 22.3193 42.8801 18.2233 43.5191 17.6233L43.5531 17.5373C43.9971 17.7283 44.4921 17.3183 46.1251 18.2143C46.2551 18.2863 46.9931 17.7733 47.2931 17.7663C47.7831 17.7553 48.9451 18.9113 49.1081 19.1583C49.1961 19.2913 49.2571 19.8513 49.0921 20.2513C48.9281 20.6523 48.5371 20.8933 48.6151 21.0603C49.0791 22.0473 49.3631 23.0513 49.5731 24.7873C49.5731 24.7873 49.8451 26.2823 49.9301 27.9853C49.9931 29.2433 49.8701 30.6143 49.8991 31.5833C49.9501 33.2623 48.6231 36.2833 48.6231 38.0833C48.6231 38.6283 48.9021 40.9703 49.7131 41.1733C49.7131 41.1733 46.9981 41.4693 45.8411 41.4243C45.3511 41.4073 45.2951 41.4133 44.7521 41.3893C42.8691 41.3073 40.9311 41.2023 40.8131 41.1143L40.7311 41.1383C40.6441 40.7563 40.5251 40.0453 40.7201 39.6553C40.9961 39.1063 44.0101 34.9093 43.8061 31.9303L43.7831 31.8963L43.7821 31.8963C43.6251 32.0023 43.4801 32.1373 43.3581 32.3083C42.8941 32.9593 40.9871 34.5413 39.7241 35.5573C39.3041 35.8953 38.9541 36.1713 38.7541 36.3293C38.6461 36.4143 38.2761 36.9723 38.2761 36.9723" fill="#ffffff" fill-rule="nonzero" opacity="1" stroke="none"/>
<path d="M38.1631 42.2155C38.2271 41.9775 38.3421 41.7625 38.4021 41.6355C38.4941 41.4395 38.7001 40.6845 38.6961 40.4045C38.6931 40.1175 38.9091 39.5475 39.2151 38.8175C39.5211 38.0885 39.7711 35.6225 39.7711 35.6225L39.7241 35.5575C40.9871 34.5415 42.8941 32.9595 43.3581 32.3075C43.4801 32.1375 43.6251 32.0025 43.7821 31.8965L43.7831 31.8965L43.8061 31.9295C44.0101 34.9095 40.9951 39.1065 40.7201 39.6555C40.5241 40.0455 40.6441 40.7565 40.7311 41.1385C40.7671 41.2955 40.7961 41.3965 40.7961 41.3965C40.7961 41.3965 41.3931 42.2375 41.3971 42.4815C41.4041 42.7255 41.0411 43.0445 40.9131 43.1375C40.7881 43.2335 40.4991 43.3355 40.3521 43.4285C40.2051 43.5205 39.9651 43.4845 39.7641 43.4725C39.5641 43.4605 39.1681 43.3155 39.1681 43.3155C39.1681 43.3155 38.7391 43.4105 38.4591 43.3735C38.1781 43.3375 38.1571 43.0135 38.1201 42.6275C38.1061 42.4895 38.1271 42.3485 38.1631 42.2155" fill="#ffffff" fill-rule="nonzero" opacity="1" stroke="none"/>
<path d="M35.4099 19.482C35.4099 19.482 35.8369 18.929 36.4949 18.639C36.6519 18.57 36.8219 18.516 37.0029 18.487C37.7389 18.044 39.1089 17.444 40.4009 17.453C40.9309 17.365 41.8109 17.339 42.2659 17.435L42.2629 17.583L42.2659 17.591C40.6449 18.26 39.8079 20.869 39.8019 20.967L39.7849 20.971C39.6749 20.52 39.5059 20.472 39.1089 20.363C38.2059 20.116 37.2989 20.185 36.4369 19.825L36.4249 19.855C36.1969 19.766 35.9519 19.654 35.8879 19.61C35.8289 19.572 35.6199 19.583 35.4199 19.605L35.4099 19.483L35.4099 19.482Z" fill="#ffffff" fill-rule="nonzero" opacity="1" stroke="none"/>
<path d="M39.8017 20.9671C39.8077 20.8691 40.6447 18.2601 42.2657 17.5911C42.5897 17.4571 42.9457 17.4001 43.3327 17.4571C43.3327 17.4571 43.4147 17.4771 43.5537 17.5371L43.5187 17.6231C42.8807 18.2231 38.8167 22.3191 45.0407 23.9861L45.0567 24.0081C44.5107 24.3841 43.9287 24.4481 43.3587 24.3291C41.5717 23.9581 39.9147 21.7831 39.9147 21.7831L39.8967 21.7841C39.8847 21.5541 39.8547 21.2581 39.7847 20.9711L39.8017 20.9671Z" fill="#ffffff" fill-rule="nonzero" opacity="1" stroke="none"/>
<path d="M34.2555 31.9544C34.6335 31.1694 34.8785 30.4004 34.8205 29.7774L35.6455 28.0154L35.5025 27.9484C35.7495 27.8554 36.0515 27.7114 36.2205 27.5214C36.5365 27.1644 37.4335 25.6844 37.4335 25.6844L37.4275 25.6804C37.5125 25.5594 37.5975 25.4234 37.6845 25.2684C37.6845 25.2684 37.6035 25.1014 38.0385 24.6974L38.1275 24.5964L38.2765 24.4804L38.3745 24.3834C38.3745 24.3834 39.1425 24.5494 39.1075 24.7894C39.0735 25.0284 38.7095 26.3774 38.6725 26.6594C38.6355 26.9384 38.6005 27.2214 38.7385 27.5694C38.8795 27.9234 39.0695 28.8014 39.0465 29.1844C39.0235 29.5644 38.8425 30.5844 38.7055 31.1604C38.6805 31.2684 38.6595 31.3564 38.6425 31.4284L38.6085 31.4574C38.6085 31.4574 38.0775 31.4494 37.1955 31.5284L37.1955 31.5294C36.4485 31.5964 35.4505 31.7274 34.3115 31.9814L34.2555 31.9544Z" fill="#ffffff" fill-rule="nonzero" opacity="1" stroke="none"/>
<path d="M36.7981 37.7106C36.0981 35.9146 37.4001 34.3516 37.5451 33.9756C37.6881 33.6006 38.1051 33.0046 38.1051 33.0046L38.5701 31.7386L38.6431 31.4276C38.6591 31.3566 38.6801 31.2686 38.7051 31.1596C38.8421 30.5846 39.0231 29.5646 39.0461 29.1846C39.0691 28.8016 38.8791 27.9236 38.7391 27.5696C38.6001 27.2216 38.6361 26.9386 38.6731 26.6596C38.7101 26.3776 39.0731 25.0286 39.1071 24.7886C39.1421 24.5496 38.1051 24.6646 38.1051 24.6646L38.0381 24.5486L38.1161 24.3836L38.2761 23.9526C38.3461 23.9206 38.7551 23.6706 38.8381 23.6406C39.7271 23.3146 39.9031 22.2016 39.9031 22.2016C39.9031 22.2016 39.9101 22.0306 39.8971 21.7836L39.9141 21.7826C39.9141 21.7826 41.5721 23.9586 43.3591 24.3286L43.3501 24.3706C38.7141 29.9036 38.2761 36.9726 38.2761 36.9726C38.2761 36.9726 38.6461 36.4146 38.7541 36.3296C38.9541 36.1716 39.3041 35.8956 39.7241 35.5576L39.7711 35.6226C39.7711 35.6226 39.5211 38.0886 39.2151 38.8176C38.9091 39.5466 38.6931 40.1176 38.6961 40.4046C38.7001 40.6846 38.4941 41.4396 38.4021 41.6356C38.3421 41.7626 38.2271 41.9776 38.1631 42.2156L38.5981 40.9146C38.5981 40.9146 37.7911 41.2286 37.5451 40.1756L36.7981 37.7106Z" fill="#ffffff" fill-rule="nonzero" opacity="1" stroke="none"/>
<path d="M36.8903 44.1924L29.3973 46.3914L29.3693 45.7544L29.3703 45.7544L29.3983 45.2734L36.9253 43.1424L36.8903 44.1924Z" fill="#ffffff" fill-rule="nonzero" opacity="1" stroke="none"/>
<path d="M31.8473 26.8555C31.7203 26.2835 32.3923 25.4085 32.5313 25.3095C32.6723 25.2095 32.8043 24.8135 32.8043 24.8135L32.8763 24.7775L32.8773 24.7775C32.9683 24.8885 33.0793 24.9895 33.2143 25.0645L33.6533 25.4185C33.6533 25.4185 33.9293 25.4705 33.9943 25.4745C34.0603 25.4785 34.2513 25.5555 34.3393 25.7395C34.4263 25.9255 34.6303 26.6625 35.0473 26.5385L35.3423 26.2615C35.3423 26.2615 35.7753 26.4335 35.8563 26.4715C35.9273 26.5065 36.6143 26.8475 37.4283 25.6805L37.4333 25.6845C37.4333 25.6845 36.5363 27.1645 36.2203 27.5205C36.0513 27.7115 35.7493 27.8555 35.5023 27.9485C35.2853 28.0305 35.1103 28.0735 35.1103 28.0735L32.5413 28.3815L32.2653 28.4145C32.2653 28.4145 31.9743 27.4285 31.8473 26.8555" fill="#ffffff" fill-rule="nonzero" opacity="1" stroke="none"/>
<path d="M35.0871 16.1679L35.0871 16.1669C35.1431 16.1239 35.2051 16.0599 35.2701 15.9759C35.4611 15.7309 35.3331 15.1599 35.3381 15.0769C35.3431 14.9969 35.4061 14.8279 35.5481 14.7149C35.6881 14.6019 35.6901 14.1579 35.6961 14.0649C35.7011 13.9709 35.8541 13.8719 35.9411 13.7699C36.0281 13.6679 35.8831 13.1739 35.8651 13.0239C35.8501 12.8959 35.8841 12.7789 35.9361 12.6369L36.0331 12.6739C36.0331 12.6739 37.8121 13.3039 38.9371 15.1719C38.9371 15.1719 39.3531 15.8959 39.3561 16.2619C39.3571 16.3829 39.3571 16.4299 39.3571 16.4379L39.3571 16.4389L39.3271 16.4809C39.9851 16.9499 40.3131 17.3739 40.3131 17.3739L40.0281 17.4529C38.7011 17.6729 37.7391 18.0439 37.0031 18.4879C36.8221 18.5159 36.6521 18.5699 36.4951 18.6389L36.4731 18.5909C34.7951 17.4009 35.0971 16.1799 35.0971 16.1799L35.0881 16.1679L35.0871 16.1679Z" fill="#ffffff" fill-rule="nonzero" opacity="1" stroke="none"/>
<path d="M33.7594 39.7132C33.1644 39.6382 33.2664 38.9942 33.2664 38.9942C33.2664 38.9942 33.5164 38.2172 33.5634 38.0922C33.6084 37.9692 33.6074 37.5422 33.5784 37.3022C33.5494 37.0602 33.8044 36.4652 34.0414 36.1282C34.2804 35.7952 34.2204 34.9642 34.2104 34.7652C34.2004 34.5682 34.1784 32.4662 34.1784 32.4662L34.1414 32.4462L34.1404 32.4462C34.2344 32.2752 34.3234 32.1042 34.4054 31.9332L34.4584 31.9582C35.5394 31.7172 36.4874 31.5932 37.1954 31.5292L37.2054 31.6452C37.0414 33.7402 36.5514 34.4662 36.5514 34.4662C36.5514 34.4662 35.5384 36.0142 35.3994 36.2102C35.2594 36.4072 35.2894 36.9722 35.2954 37.1112C35.2994 37.2522 35.2014 37.5782 35.2014 37.5782C35.1364 37.8172 35.3304 38.1982 35.4864 38.4002C35.6394 38.6012 35.8734 38.7412 35.9644 38.9522C36.0534 39.1612 35.8044 39.4782 35.4884 39.6392C35.1714 39.7982 34.3544 39.7882 33.7594 39.7132" fill="#ffffff" fill-rule="nonzero" opacity="1" stroke="none"/>
<path d="M30.5694 12.4775C30.5734 12.1975 30.8774 11.3815 30.9014 11.2345C30.9234 11.0865 31.1354 10.4675 31.2844 10.2085C31.3354 10.1185 31.4364 9.99147 31.5534 9.85747C31.7774 9.60149 32.0564 9.32347 32.1494 9.24947C32.2904 9.13847 33.1904 8.92247 33.1904 8.92247C33.1904 8.92247 34.2614 8.81148 34.8444 9.41048C34.8444 9.41048 35.5014 9.43749 35.6904 9.85048C35.8814 10.2695 36.2434 10.9495 36.2054 11.1465C36.1664 11.3475 36.0464 11.5545 36.0674 11.6645C36.0874 11.7755 36.0234 12.4025 35.9584 12.5735C35.9514 12.5955 35.9434 12.6165 35.9354 12.6375C35.8844 12.7785 35.8494 12.8965 35.8654 13.0245C35.8824 13.1745 36.0274 13.6675 35.9414 13.7695C35.8544 13.8715 35.7014 13.9705 35.6954 14.0645C35.6904 14.1575 35.6884 14.6015 35.5484 14.7145C35.4064 14.8275 35.3424 14.9975 35.3384 15.0775C35.3334 15.1595 35.4604 15.7305 35.2704 15.9755C35.2054 16.0595 35.1434 16.1235 35.0874 16.1675C34.9814 16.2525 34.8994 16.2655 34.8664 16.2195C34.8174 16.1535 34.6854 16.4055 34.6844 16.3865L34.6254 16.5515C34.6254 16.5515 34.5804 16.9585 34.4874 16.9235C34.3964 16.8915 34.2474 16.4525 34.2474 16.4525L34.4134 15.4805L34.5354 14.2785L34.5414 14.2225L35.4814 12.6905C35.5004 12.5855 35.3864 12.0275 35.2714 11.9255C35.1564 11.8255 34.8284 11.4555 34.8094 11.3195C34.7914 11.1845 34.6834 10.7345 34.6834 10.7345C34.6834 10.7345 33.9904 11.2975 33.8374 11.3835C33.6834 11.4695 33.1804 11.3705 33.0444 11.3625C32.9114 11.3545 32.5964 11.4425 32.5204 11.5995C32.4434 11.7555 32.1714 12.2395 32.0984 12.3425C32.0254 12.4455 31.9404 12.9495 31.9394 13.1935C31.9384 13.3175 31.8824 13.4215 31.8194 13.5165C31.7594 13.6045 31.6944 13.6865 31.6634 13.7695C31.5994 13.9385 31.6834 14.1045 31.7204 14.3775C31.7574 14.6485 31.7034 15.1015 31.6684 15.2355C31.6344 15.3675 31.4044 15.3685 31.3524 15.3655C31.2984 15.3625 31.0054 15.5325 31.0054 15.5325C31.0054 15.5325 31.0684 15.1575 31.0884 15.0645C31.1074 14.9715 30.8574 14.4335 30.8004 14.2545C30.7444 14.0765 30.5664 12.7625 30.5694 12.4775" fill="#ffffff" fill-rule="nonzero" opacity="1" stroke="none"/>
<path d="M29.8929 42.9024L29.6219 42.9664L29.8849 41.0794L29.8719 41.0784C29.8799 41.0624 30.0329 40.8044 30.0949 40.5264C30.1669 40.2054 30.3879 39.4064 30.6269 39.0364C30.8649 38.6644 31.3259 38.6284 31.3259 38.6284L31.3719 39.1144L31.8529 42.5244L31.7639 42.7704L30.8649 40.4394L29.8929 42.9024Z" fill="#ffffff" fill-rule="nonzero" opacity="1" stroke="none"/>
<path d="M31.9399 13.1937C31.9409 12.9497 32.0249 12.4457 32.0979 12.3427C32.1709 12.2397 32.4429 11.7557 32.5199 11.5997C32.5959 11.4427 32.9109 11.3547 33.0449 11.3627C33.1799 11.3707 33.6839 11.4697 33.8379 11.3837C33.9899 11.2977 34.6829 10.7337 34.6829 10.7337C34.6829 10.7337 34.7919 11.1837 34.8099 11.3197C34.8279 11.4557 35.1559 11.8257 35.2719 11.9257C35.3859 12.0277 35.4999 12.5857 35.4809 12.6907L34.5409 14.2227L34.5359 14.2777L34.4859 14.2727C33.7239 14.8467 32.7979 14.8177 32.7979 14.8177C32.2009 14.6617 31.8799 13.5267 31.8799 13.5267L31.8199 13.5167L31.8189 13.5167C31.8829 13.4207 31.9389 13.3177 31.9399 13.1937" fill="#ffffff" fill-rule="nonzero" opacity="1" stroke="none"/>
<path d="M25.39 43.9555L29.621 42.9655L29.893 42.9025L31.434 42.5425L31.689 42.4825L32.62 42.2655L36.926 43.1425L29.399 45.2735L25.39 43.9555Z" fill="#ffffff" fill-rule="nonzero" opacity="1" stroke="none"/>
<path d="M29.1793 37.6665C29.1843 37.2665 29.5363 36.8115 29.7993 36.2375C29.9183 35.9755 30.1403 35.2775 30.3443 34.5945C30.5893 33.7795 30.8133 32.9855 30.8133 32.9855C30.9323 31.9945 31.1023 31.2685 31.2833 30.7335C31.6693 29.5915 32.1033 29.3245 32.1983 29.2385C32.3393 29.1135 32.5503 28.4595 32.5503 28.4595L32.5413 28.3815L35.1103 28.0735C35.1103 28.0735 35.2853 28.0305 35.5023 27.9485L35.6453 28.0155L34.8213 29.7775C34.8783 30.4005 34.6333 31.1695 34.2553 31.9545C34.1693 32.1345 34.0753 32.3155 33.9763 32.4945C33.0483 34.1915 31.6853 35.8135 31.6213 36.0155C31.5213 36.3345 31.4803 36.5735 31.7383 37.6635C31.8923 38.3195 31.6493 38.8155 31.4303 39.1085L31.3713 39.1145L31.3263 38.6285C31.3263 38.6285 30.8653 38.6645 30.6263 39.0365C30.3883 39.4065 30.1663 40.2055 30.0953 40.5265C30.0333 40.8045 29.8803 41.0625 29.8713 41.0785L29.8703 41.0795C29.5813 41.0875 29.6083 40.6815 29.6083 40.6815L29.5033 38.9415C29.4073 38.8695 29.3383 38.7875 29.2883 38.6985C29.1073 38.3805 29.1753 37.9795 29.1793 37.6665" fill="#ffffff" fill-rule="nonzero" opacity="1" stroke="none"/>
<path d="M29.7928 31.3061L29.7918 31.3061L29.7938 31.3041C29.7938 31.3051 29.7928 31.3051 29.7928 31.3061" fill="#85b5d7" fill-rule="nonzero" opacity="1" stroke="none"/>
<path d="M29.792 31.3059C29.792 31.3069 29.791 31.3069 29.791 31.3069L29.792 31.3059Z" fill="#85b5d7" fill-rule="nonzero" opacity="1" stroke="none"/>
<path d="M27.8983 33.577C27.5003 33.235 28.0763 33.326 27.9963 33.148C27.9153 32.971 28.1143 32.991 28.2393 33.017C28.3633 33.042 28.6393 33.44 28.6733 33.49C28.7083 33.536 29.0293 33.318 29.0863 33.276C29.1433 33.234 29.1693 33.002 29.1663 32.895C29.1633 32.784 29.3423 32.029 29.3843 31.912C29.4373 31.776 29.4113 31.823 29.7913 31.307C29.7913 31.307 29.7923 31.307 29.7923 31.306L29.7933 31.306C29.8063 31.296 29.8863 31.225 30.2733 30.87C30.8303 30.359 31.2593 30.725 31.2593 30.725L31.2833 30.733C31.1023 31.268 30.9323 31.995 30.8133 32.985C30.8133 32.985 30.5903 33.779 30.3453 34.595L30.3253 34.589L30.0603 35.018L29.8093 35.367C29.5583 35.715 29.4043 35.231 29.4043 35.231C29.3463 35.152 29.5033 34.655 29.5913 34.515C29.6343 34.449 29.6793 34.228 29.7153 34.012L29.6603 34.008C29.4793 34.301 29.1043 34.331 28.8803 34.278C28.6563 34.231 28.2943 33.92 28.2943 33.92L27.8983 33.577Z" fill="#ffffff" fill-rule="nonzero" opacity="1" stroke="none"/>
<path d="M29.7912 31.3073C29.7902 31.3083 29.7902 31.3083 29.7912 31.3063L29.7912 31.3073Z" fill="#85b5d7" fill-rule="nonzero" opacity="1" stroke="none"/>
<path d="M30.1045 20.4644C30.1045 20.4644 30.1485 20.2464 30.1545 20.1464C30.1605 20.0454 29.8805 19.8254 29.8415 19.8044C29.8025 19.7824 29.8725 19.6464 29.7985 19.5084C29.7265 19.3754 29.6565 19.0164 29.6565 19.0164C29.6525 18.9724 29.6455 18.9334 29.6375 18.8984L29.6475 18.8944C29.6475 18.8944 30.2425 17.9354 30.2865 17.8694C30.2865 17.8694 31.1155 16.6284 30.2855 14.5464C30.1545 14.2234 29.6595 14.8264 29.6345 14.8564L29.6315 14.8544C29.7435 14.6894 29.7945 14.4274 29.6175 14.0224C29.3315 13.3734 28.2195 12.8634 27.8245 12.7034C27.7165 12.6594 27.6015 12.6554 27.4875 12.6764L27.4715 12.5474C27.4715 12.5474 27.0585 11.8124 27.7395 11.0024C28.4205 10.1984 28.6405 10.0894 28.9255 10.0534C29.2105 10.0164 29.7125 9.95137 29.7125 9.95137C29.7125 9.95137 30.6505 9.27239 31.5535 9.85738L31.5535 9.85838C31.4365 9.99138 31.3355 10.1184 31.2845 10.2084C31.1345 10.4674 30.9235 11.0874 30.9015 11.2344C30.8775 11.3814 30.5735 12.1974 30.5695 12.4774C30.5665 12.7624 30.7445 14.0764 30.8005 14.2544C30.8565 14.4334 31.1075 14.9724 31.0885 15.0644C31.0685 15.1584 31.0055 15.5324 31.0055 15.5324C31.0055 15.5324 31.2985 15.3624 31.3525 15.3654C31.4045 15.3684 31.6345 15.3684 31.6685 15.2354C31.7035 15.1014 31.7575 14.6484 31.7205 14.3774C31.6835 14.1054 31.5995 13.9384 31.6635 13.7694C31.6935 13.6864 31.7595 13.6044 31.8195 13.5164L31.8795 13.5264C31.8795 13.5264 32.2015 14.6614 32.7975 14.8184C32.7975 14.8184 33.7245 14.8474 34.4855 14.2734L34.5355 14.2784L34.4135 15.4804L34.2465 16.4524C34.2465 16.4524 34.3965 16.8914 34.4875 16.9234C34.5805 16.9584 34.6555 16.5034 34.6555 16.5034L34.7135 16.3184C34.7145 16.3374 34.8175 16.1534 34.8665 16.2194C34.8995 16.2664 34.9815 16.2524 35.0875 16.1684L35.0975 16.1804C35.0975 16.1804 34.7955 17.4004 36.4735 18.5914L36.4945 18.6394C35.8365 18.9284 35.4095 19.4824 35.4095 19.4824L35.4195 19.6044C35.2525 19.6224 35.0925 19.6474 35.0325 19.6574C34.8995 19.6854 34.4265 19.8854 34.2955 19.8774C34.1635 19.8694 33.8365 20.1444 33.4675 20.2534C33.1015 20.3634 33.3025 20.8354 32.8035 20.9344C32.6375 20.9684 32.5335 21.0684 32.4605 21.1904" fill="#ffffff" fill-rule="nonzero" opacity="1" stroke="none"/>
<path d="M25.8387 18.4247C25.8907 18.0527 26.1957 17.5267 26.3597 17.4647C26.5257 17.4057 26.9347 17.1267 27.7307 17.3157C27.7307 17.3157 28.0367 17.5857 28.0947 17.6327C28.1527 17.6757 28.4207 17.7607 28.5837 17.9007C28.7467 18.0447 28.7687 18.1857 28.7747 18.2367C28.7827 18.2887 28.9877 18.5807 29.0147 18.6237C29.0427 18.6667 29.2227 19.1817 29.2277 19.2737C29.2327 19.3637 29.3187 19.7827 29.3147 19.8447C29.3117 19.9027 29.4717 20.4267 29.3127 20.5597C29.1317 20.7097 29.3507 21.9557 29.1637 22.0497C28.9387 22.3857 28.7577 22.9127 28.4157 23.0147C27.6067 23.2537 26.5697 23.0077 26.5697 23.0077L26.7407 21.2747C26.7077 21.1457 26.6657 21.0187 26.6177 20.9107C26.4477 20.5277 26.3827 20.1107 26.3957 19.9017C26.4087 19.6887 26.2757 19.3597 26.1367 19.1777C25.9957 18.9967 25.7857 18.7937 25.8387 18.4247" fill="#ffffff" fill-rule="nonzero" opacity="1" stroke="none"/>
<path d="M24.6317 30.3737L24.2627 30.4837L24.0037 29.7567C24.1167 29.5507 25.0257 29.6917 25.1107 29.6177C25.2237 29.5157 25.4927 29.6477 25.5277 29.5177C25.5607 29.3827 25.7207 29.4197 25.8887 29.2957C26.0587 29.1717 26.0937 29.0397 26.2017 29.0197C26.3117 28.9997 26.4817 28.8487 26.5137 28.7697C26.5447 28.6897 26.7887 28.6487 26.9267 28.6067C27.0637 28.5587 27.5397 28.2647 27.6787 28.1667C27.8197 28.0677 27.9537 28.0757 28.0857 28.1077C28.2187 28.1457 28.2577 28.3897 28.2577 28.3897C28.1737 28.8957 27.8117 29.1157 27.8117 29.1157C27.8117 29.1157 27.7977 29.7857 27.7817 30.0527C27.7657 30.3227 27.3137 30.2157 27.3137 30.2157C27.3137 30.2157 27.1617 30.5297 27.0267 30.5497C26.8897 30.5677 26.7457 30.7197 26.6367 30.7397C26.5287 30.7607 26.3297 30.9107 26.1617 31.0107C25.9947 31.1077 25.2117 30.7927 25.2117 30.7927L24.6317 30.3737Z" fill="#ffffff" fill-rule="nonzero" opacity="1" stroke="none"/>
<path d="M25.4251 14.9988C25.1101 15.0038 24.9671 14.8188 24.9231 14.7268C24.8791 14.6388 25.3221 14.4558 25.3221 14.4558C25.3221 14.4558 25.8081 14.1698 26.2981 14.1308C26.3791 14.1238 26.4531 14.1168 26.5231 14.1098C26.8731 14.0748 27.0981 14.0548 27.4251 14.2548L27.8201 14.4958L27.8971 14.5048L27.8981 14.5048C27.8461 14.4138 27.8021 14.3358 27.7941 14.3138C27.7721 14.2578 27.7341 14.1678 27.8151 14.0548C27.8951 13.9438 28.0941 14.0298 28.1181 14.0498C28.1411 14.0678 28.2561 14.2128 28.4161 14.3378C28.5741 14.4668 28.5501 14.3458 28.6871 14.9408C28.7161 15.0658 28.7231 15.1658 28.7131 15.2478C28.6691 15.5558 28.3361 15.5518 27.9111 15.7578C27.3711 16.0208 26.8441 15.7318 26.8441 15.7318C26.8441 15.7318 26.0321 14.9668 25.9811 14.8888C25.9301 14.8138 25.8431 14.8208 25.7711 14.9028C25.6971 14.9848 25.7401 14.9928 25.4251 14.9988" fill="#ffffff" fill-rule="nonzero" opacity="1" stroke="none"/>
<path d="M26.519 14.0658C26.519 14.0658 26.525 13.2858 26.74 13.0968C26.894 12.9598 27.188 12.7318 27.487 12.6768C27.601 12.6558 27.716 12.6598 27.825 12.7038C28.22 12.8638 29.332 13.3738 29.617 14.0228C29.794 14.4278 29.744 14.6888 29.631 14.8538C29.563 14.9538 29.472 15.0178 29.393 15.0578C29.184 15.1668 28.724 15.2498 28.724 15.2498L28.713 15.2478C28.723 15.1658 28.716 15.0658 28.687 14.9408C28.55 14.3458 28.574 14.4668 28.416 14.3378C28.256 14.2128 28.141 14.0678 28.118 14.0498C28.094 14.0298 27.895 13.9438 27.815 14.0548C27.734 14.1678 27.772 14.2578 27.794 14.3138C27.802 14.3358 27.846 14.4138 27.898 14.5048L27.897 14.5048L27.82 14.4958L27.425 14.2548C27.098 14.0548 26.874 14.0748 26.523 14.1098L26.519 14.0668L26.519 14.0658Z" fill="#ffffff" fill-rule="nonzero" opacity="1" stroke="none"/>
<path d="M25.39 43.9555L29.399 45.2735L29.37 45.7535L29.37 45.9225L29.398 46.0215L29.363 46.3475L25.353 45.0325L25.389 43.9555L25.39 43.9555Z" fill="#ffffff" fill-rule="nonzero" opacity="1" stroke="none"/>
<path d="M25.4665 23.1692C25.2715 23.0242 24.4715 23.2242 24.3745 22.9762C24.2785 22.7302 24.1305 22.6702 23.6085 22.2972C23.0875 21.9212 23.6535 21.4482 23.7865 21.4162C23.9205 21.3832 23.8655 21.2972 23.8655 21.2972C23.8665 21.2322 23.9825 21.0802 24.1745 20.9002C24.3665 20.7222 24.2815 20.7452 24.3235 20.1842C24.3645 19.6352 24.6215 19.5012 24.6215 19.5012C24.4955 18.8702 24.8155 18.3842 24.8155 18.3842C24.8085 18.0102 25.3895 17.6552 25.3895 17.6552C25.7125 16.9892 26.3405 17.2512 26.3405 17.2512C26.6505 17.1182 26.8615 17.0222 26.8615 17.0222C26.8615 17.0222 27.1645 17.0452 27.2785 17.0022C27.3915 16.9572 27.6565 16.9112 27.8055 16.9492C27.8055 16.9492 28.0435 16.9352 28.2005 17.1862C28.2005 17.1862 28.5465 17.2152 28.5955 17.3972C28.6455 17.5842 29.0625 17.4952 29.0065 17.9162C29.0065 17.9162 29.2485 18.2542 29.2575 18.4472C29.2645 18.6212 29.5525 18.5642 29.6375 18.8982C29.6455 18.9342 29.6525 18.9722 29.6565 19.0162C29.6565 19.0162 29.7265 19.3762 29.7985 19.5082C29.8725 19.6462 29.8025 19.7822 29.8415 19.8042C29.8805 19.8252 30.1605 20.0452 30.1545 20.1462C30.1485 20.2462 30.1045 20.4642 30.1045 20.4642C30.1045 20.4642 30.3625 20.7242 30.2745 20.9992C30.1865 21.2762 30.4745 21.5382 30.1155 21.8062C29.7985 22.0492 29.6925 22.1662 29.7195 22.2142C29.6415 22.1632 29.3355 22.0752 29.3355 22.0752C29.3355 22.0752 29.2185 22.0352 29.1225 21.9822C29.0275 21.9302 28.9515 21.8332 28.9325 21.7972C28.8965 21.7272 28.7795 21.7072 28.8095 21.0242L28.7565 20.9232C28.9445 20.8282 29.1315 20.7092 29.3125 20.5602C29.4725 20.4262 29.3115 19.9022 29.3145 19.8452C29.3185 19.7822 29.2335 19.3632 29.2275 19.2742C29.2245 19.2082 29.1325 18.9292 29.0695 18.7582C29.0435 18.6882 29.0235 18.6362 29.0155 18.6242C28.9875 18.5812 28.7825 18.2882 28.7755 18.2372C28.7685 18.1862 28.7465 18.0442 28.5835 17.9012C28.4205 17.7612 28.1525 17.6752 28.0945 17.6322C28.0375 17.5862 27.7315 17.3162 27.7315 17.3162C26.9345 17.1262 26.5255 17.4052 26.3595 17.4642C26.1955 17.5262 25.8905 18.0522 25.8385 18.4242C25.7855 18.7942 25.9955 18.9972 26.1365 19.1782C26.2755 19.3592 26.4085 19.6892 26.3955 19.9012C26.3835 20.1102 26.4485 20.5282 26.6175 20.9102C26.6655 21.0192 26.7075 21.1452 26.7405 21.2742C26.8255 21.6012 26.8555 21.9442 26.7915 22.0622C26.6995 22.2292 26.6765 22.6232 26.6645 22.8132C26.6535 23.0042 26.3205 23.1842 26.2875 23.2212C26.2875 23.2212 25.6605 23.3122 25.4665 23.1692" fill="#ffffff" fill-rule="nonzero" opacity="1" stroke="none"/>
<path d="M18.4154 12.3926C18.2814 12.0396 18.9774 11.6316 18.9764 11.6136C18.9474 11.1766 19.5334 11.2116 19.5334 11.2116C19.5554 10.8496 20.2894 10.9616 20.2894 10.9616C20.6344 10.5366 20.6344 10.5236 20.6344 10.5236C21.0114 10.3186 22.3764 10.4676 22.3764 10.4676C23.3424 10.3106 23.3984 10.7036 23.3984 10.7036C24.0794 10.7606 24.3204 11.0416 24.3204 11.0416C24.5174 10.8796 24.7984 11.1516 24.7984 11.1516C25.4084 11.3126 25.4844 11.8116 25.4844 11.8116C26.2114 12.0286 25.8744 12.4936 25.8744 12.4936C26.2954 12.8826 25.8944 13.0726 25.8744 13.1666C25.8564 13.2586 25.8584 13.4336 25.4784 13.4916C25.3544 13.5096 25.2124 13.4696 25.0684 13.4056C24.7664 13.2696 24.4554 13.0226 24.2844 12.9756C24.0324 12.9076 24.0734 12.7916 24.0734 12.7916C23.9074 12.7536 23.9294 12.9066 23.8484 12.6646L23.7394 12.6466C23.7394 12.6466 23.7804 13.0806 23.5954 13.2596C23.4094 13.4356 23.3434 13.4316 23.2214 13.4246C23.1004 13.4176 22.8304 13.6826 22.6624 13.7826C22.4944 13.8796 22.4124 13.9136 22.3174 13.9216C22.2234 13.9286 22.0224 14.3476 21.8044 14.1856C21.8044 14.1856 21.6414 13.9886 21.4974 14.1276C21.3554 14.2656 21.0144 14.3556 20.7924 14.2326C20.5704 14.1116 20.2244 14.0646 20.1544 13.8716C20.1104 13.7496 19.7854 13.6436 19.5504 13.4926L19.4904 13.5226C19.3464 13.2276 19.1284 12.9506 18.8244 12.7146C18.6834 12.6056 18.5364 12.5166 18.3904 12.4436L18.4154 12.3936L18.4154 12.3926Z" fill="#ffffff" fill-rule="nonzero" opacity="1" stroke="none"/>
<path d="M20.3673 19.8773C20.3573 19.4873 20.5313 19.1553 20.6293 18.9983C20.7893 18.7423 21.2533 18.6673 21.2533 18.6673L21.6883 18.7823L22.1153 18.8963L22.3783 18.8633C22.3783 18.8633 23.0313 18.9623 23.1113 18.9673C23.1923 18.9723 23.7853 19.0813 23.7853 19.0813C23.8423 19.2463 23.4923 19.3653 23.4923 19.3653L22.8593 19.4693L23.0553 19.7913C23.2513 20.1113 22.8193 20.3673 22.8193 20.3673C22.9443 20.9753 22.5563 21.1593 22.5563 21.1593C21.9603 21.5613 21.3863 21.2123 20.9663 20.9733C20.8613 20.9133 20.7673 20.8603 20.6833 20.8273C20.2623 20.6613 20.3763 20.2683 20.3673 19.8773" fill="#ffffff" fill-rule="nonzero" opacity="1" stroke="none"/>
<path d="M20.6251 34.9736L20.6251 34.9726C21.0061 34.9536 21.4761 34.8216 22.0411 34.4796C22.0411 34.4796 22.4251 34.2186 22.7351 33.7276L22.7361 33.7276L22.7761 33.7536C24.1401 33.5736 24.3921 31.9366 24.4381 31.4016L24.3211 32.1526C24.3211 32.1526 24.0131 33.2916 24.0491 33.2486C23.9161 33.7536 23.9861 33.7736 23.5891 34.8206C23.4801 35.1096 23.0281 36.1746 22.9371 36.3176L21.6371 37.6566L21.5191 37.5386C21.2611 36.7326 21.2891 36.8536 21.2551 36.6076C21.1971 36.1986 20.6291 35.0366 20.6291 35.0366L20.6251 34.9736Z" fill="#ffffff" fill-rule="nonzero" opacity="1" stroke="none"/>
<path d="M18.0433 19.718C17.8873 19.47 18.0173 19.019 18.0173 19.019L17.9723 18.93L18.7793 18.526C18.7793 18.526 19.9803 18.108 20.6383 17.815L20.6393 17.815L20.8343 17.868C20.8343 17.868 21.6323 18.435 21.7063 18.713L21.7063 18.714L21.6883 18.783L21.2533 18.667C21.2533 18.667 20.7383 18.851 20.6293 18.999C20.5183 19.146 20.3573 19.487 20.3673 19.877C20.3763 20.268 20.2623 20.661 20.6833 20.827C20.7673 20.86 20.8613 20.913 20.9663 20.973L20.9493 21.014C20.9493 21.014 19.8103 20.971 19.6933 20.961C18.4543 20.868 18.0433 19.718 18.0433 19.718" fill="#ffffff" fill-rule="nonzero" opacity="1" stroke="none"/>
<path d="M19.1732 16.0145C19.3472 15.7635 19.5062 15.4655 19.6072 15.1445C19.7672 14.6365 19.7492 14.0505 19.4902 13.5225L19.5502 13.4925C19.7852 13.6435 20.1102 13.7495 20.1552 13.8725C20.2242 14.0645 20.5702 14.1125 20.7922 14.2325C21.0142 14.3555 21.3552 14.2665 21.4972 14.1275C21.6422 13.9885 21.8042 14.1855 21.8042 14.1855C22.0232 14.3475 22.2232 13.9285 22.3182 13.9215C22.4122 13.9135 22.4942 13.8795 22.6622 13.7825C22.8302 13.6825 23.1012 13.4175 23.2212 13.4245C23.3432 13.4325 23.4092 13.4355 23.5952 13.2595C23.7802 13.0805 23.7392 12.6465 23.7392 12.6465L23.8822 12.5545C23.8922 12.5695 23.9662 12.7535 24.1322 12.7925C24.1322 12.7925 24.0332 12.9075 24.2842 12.9755C24.4552 13.0225 24.7672 13.2695 25.0682 13.4055L25.0492 13.4475C25.0492 13.4475 24.9722 13.5295 24.8982 13.7255C24.8262 13.9235 24.4282 14.8495 24.3412 15.2875C24.2532 15.7245 23.9512 15.3845 23.9512 15.3845C23.9392 15.3985 23.8182 15.5425 23.7382 15.5945C23.6532 15.6485 23.4112 15.6555 23.4112 15.6555C23.4112 15.6555 23.2792 15.8295 23.2182 15.8455C23.1562 15.8605 23.0272 15.9965 23.0222 16.0755C23.0172 16.1545 23.0112 16.2565 22.8282 16.2865C22.6442 16.3155 22.1372 16.0435 22.1372 16.0435L21.3672 15.6255L21.2572 15.5655L19.3032 16.0725L19.1732 16.0145Z" fill="#ffffff" fill-rule="nonzero" opacity="1" stroke="none"/>
<path d="M12.4298 31.2058C12.1728 31.0028 12.2958 30.7418 12.2588 30.0158C12.2218 29.2858 13.4768 29.0108 13.8008 28.9778C14.1258 28.9418 15.4368 28.6158 15.4368 28.6158L16.7078 28.0728L16.7228 28.0608C16.7518 28.1008 16.7818 28.1318 16.8098 28.1558C16.9448 28.2618 17.0948 28.4528 17.2288 28.5628C17.3648 28.6708 17.6078 28.6448 17.7498 28.6348C17.8918 28.6228 18.1448 28.4358 18.1448 28.4358C18.2498 28.3828 18.2398 28.1998 18.2478 28.0578C18.2568 27.9178 18.3168 27.5788 18.3428 27.4798C18.3668 27.3888 18.4678 27.1228 18.4868 27.0738L18.4868 27.0718C18.5778 26.9548 18.8188 26.8888 18.8758 26.8538C18.9378 26.8188 19.0358 26.7228 19.1058 26.7178C19.1768 26.7128 19.3918 26.8358 19.3918 26.8358C19.3918 26.8358 19.7488 26.9388 20.1618 26.8018C20.3248 26.7468 20.3608 26.6858 20.3388 26.6278L20.3458 26.6248C20.3458 26.6248 21.7918 26.9988 22.4178 27.4358C22.4278 27.4428 22.4368 27.4488 22.4468 27.4568L22.4468 27.4578L22.4268 27.4848C22.4268 27.4848 22.8568 27.6498 23.0188 28.3088C23.0488 28.4308 23.1248 28.4688 23.2128 28.5588C23.3188 28.6678 23.2158 28.6718 23.3258 28.7968C23.5048 29.0018 23.6988 29.1588 23.8148 29.3198C23.9358 29.4888 24.0128 29.7898 24.0638 29.8448L24.0858 29.8438C24.2028 30.2958 24.3158 30.8688 24.3158 30.8688L24.4388 31.3998C24.4388 31.3998 24.4388 31.4008 24.4388 31.4018C24.3918 31.9358 24.1398 33.5728 22.7758 33.7538L22.7358 33.7278L22.7348 33.7278C22.4248 34.2188 22.0408 34.4798 22.0408 34.4798C21.4758 34.8218 21.0058 34.9538 20.6248 34.9728L20.6248 34.9738C19.7778 35.0168 19.3758 34.5028 19.3758 34.5028L19.2238 34.4758C19.4078 34.0988 19.6918 33.4828 19.7068 33.2298C19.7068 33.2298 20.6568 33.1018 20.6838 32.6448C20.7108 32.1898 21.0478 31.5098 18.3108 30.5088C18.3108 30.5088 17.4978 31.0538 17.0968 31.8898C16.8958 32.3118 16.6898 32.8088 16.5418 33.3838L16.4438 33.3578C15.8298 32.9938 14.5078 31.6298 13.9158 31.0048L13.9158 31.0058L13.8938 31.0248C13.8938 31.0248 13.3888 31.2708 12.9408 31.5628L12.9208 31.5328C12.9208 31.5328 12.6858 31.4118 12.4298 31.2058" fill="#ffffff" fill-rule="nonzero" opacity="1" stroke="none"/>
<path d="M16.3266 35.3142C16.3036 34.5932 16.3946 33.9512 16.5416 33.3842C16.6906 32.8092 16.8966 32.3122 17.0966 31.8892C17.4976 31.0542 18.3106 30.5092 18.3106 30.5092C21.0486 31.5102 20.7116 32.1892 20.6836 32.6442C20.6566 33.1012 19.7076 33.2302 19.7076 33.2302C19.6916 33.4832 19.4076 34.0982 19.2236 34.4752C19.1326 34.6602 19.0666 34.7872 19.0666 34.7872L18.6756 35.5822C18.6756 35.5822 18.1356 36.8612 18.0986 37.1202C18.0636 37.3812 18.5136 37.4382 18.6826 37.4782C18.8516 37.5182 19.3476 37.8312 19.4046 37.8842C19.4616 37.9382 19.7796 38.2302 19.8036 38.3002C19.8306 38.3742 19.9546 38.4732 19.9546 38.4732C20.0826 38.5292 20.3336 38.7182 20.3336 38.7182C20.3336 38.7182 20.9076 39.4272 20.9636 39.4902C21.0206 39.5532 21.0736 39.6592 21.0306 39.7172C20.9876 39.7742 20.8656 39.7882 20.8656 39.7882L20.0976 39.2982L19.5346 39.0832C19.7866 39.2802 20.0566 39.8102 20.0566 39.8102C20.0566 39.8102 20.2426 40.2452 20.3316 40.4622C20.4166 40.6792 20.2936 40.7332 20.1906 40.7752C20.0866 40.8222 19.9266 40.6382 19.9266 40.6382L19.6056 40.0962L18.9926 39.2802L19.1176 39.6542L19.2496 39.9832L19.4076 40.5282C19.4076 40.5282 19.5166 40.9082 19.5516 41.0022C19.5866 41.0942 19.5116 41.1492 19.4596 41.1952C19.4056 41.2442 19.2176 41.1532 19.2176 41.1532L18.6006 39.8652C18.5996 39.8762 18.5916 40.0022 18.5826 40.1552C18.5726 40.3172 18.2006 40.4752 18.1286 40.4912C18.0576 40.5052 17.9446 40.5422 17.8676 40.6362C17.7906 40.7332 17.7246 40.6802 17.7246 40.6802C17.5766 40.6002 17.6516 40.3822 17.6736 40.3452C17.6956 40.3042 17.9156 40.1852 17.9696 40.1272C18.0236 40.0702 17.9186 39.7922 17.8836 39.7112C17.8476 39.6282 17.4786 39.3942 17.4306 39.3502C17.3836 39.3082 16.9696 38.9592 16.9696 38.9592C16.6256 38.6762 16.4796 37.9242 16.4076 37.0482C16.3606 36.4902 16.3446 35.8822 16.3266 35.3142" fill="#ffffff" fill-rule="nonzero" opacity="1" stroke="none"/>
<path d="M16.8766 19.4419C16.8286 19.2409 16.9026 19.2209 16.9026 19.2209C17.3706 18.8039 17.5926 17.8079 17.7396 17.3739C17.8856 16.9389 18.1716 16.8749 18.4636 16.7309C18.6366 16.6449 18.9196 16.3799 19.1736 16.0149L19.3036 16.0729L21.2576 15.5659L21.3676 15.6259L21.3526 15.6519C21.3526 15.6519 21.4436 16.3749 21.0416 16.8579L21.0426 16.8579L21.0976 16.8889C21.0976 16.8889 21.1066 17.3939 21.0566 17.5729C21.0426 17.6199 20.8766 17.7099 20.6386 17.8149C19.9806 18.1079 18.7786 18.5259 18.7786 18.5259L17.9726 18.9299L16.9486 19.4439L16.8766 19.4419Z" fill="#ffffff" fill-rule="nonzero" opacity="1" stroke="none"/>
<path d="M12.5055 15.8091C11.8675 15.0031 12.3535 14.3051 13.2595 13.3111C14.0665 12.4281 16.5155 12.1791 17.0585 12.1371L17.0595 12.1181C17.3045 12.1251 17.8465 12.1721 18.3895 12.4431C18.5365 12.5161 18.6835 12.6061 18.8245 12.7151C19.1275 12.9511 19.3465 13.2281 19.4905 13.5221C19.7485 14.0501 19.7665 14.6361 19.6065 15.1451C19.5065 15.4661 19.3475 15.7641 19.1735 16.0141C18.9195 16.3801 18.6365 16.6441 18.4635 16.7311C18.1715 16.8741 17.8855 16.9391 17.7395 17.3741C17.5925 17.8081 17.3705 18.8031 16.9025 19.2201C16.9025 19.2201 16.8285 19.2411 16.8765 19.4421C16.8905 19.5001 16.9155 19.5741 16.9555 19.6681C17.1325 20.0811 17.7105 21.2051 17.6995 22.0531C17.6895 22.9011 17.8425 23.7151 18.0455 24.3731C18.2485 25.0311 18.6445 25.8221 18.8055 25.8321C18.9655 25.8411 19.2825 25.9391 19.3975 26.0711C19.5095 26.1971 19.9435 26.3841 20.0615 26.4321C20.1335 26.4601 20.3045 26.5391 20.3385 26.6271C20.3605 26.6861 20.3245 26.7471 20.1615 26.8011C19.7485 26.9391 19.3915 26.8361 19.3915 26.8361C19.3915 26.8361 19.1765 26.7131 19.1055 26.7171C19.0355 26.7231 18.9385 26.8191 18.8755 26.8541C18.8185 26.8881 18.5775 26.9551 18.4865 27.0721L18.4865 27.0731C18.4685 27.1231 18.3665 27.3891 18.3425 27.4801C18.3175 27.5791 18.2565 27.9181 18.2475 28.0581C18.2395 28.1991 18.2505 28.3831 18.1445 28.4361C18.1445 28.4361 17.8915 28.6221 17.7495 28.6351C17.6075 28.6451 17.3645 28.6711 17.2295 28.5621C17.0945 28.4531 16.9445 28.2621 16.8105 28.1561C16.7815 28.1321 16.7515 28.1001 16.7225 28.0611C16.6095 27.9141 16.5055 27.6581 16.5585 27.3101C16.6245 26.8701 16.8875 26.5251 16.8935 26.4221C16.8995 26.3231 16.4115 25.0411 16.4115 25.0411C16.4115 25.0411 15.6645 24.0301 15.5395 23.7791C15.4435 23.5941 15.0195 23.1301 14.7355 22.0501C14.6385 21.6801 14.5575 21.2391 14.5125 20.7121C14.5125 20.7121 14.4065 20.4061 14.4315 19.8401C14.4365 19.7181 14.4485 19.5841 14.4675 19.4381C14.5755 18.6171 14.5405 17.5451 14.5535 17.3431C14.5555 17.2951 14.5655 17.1971 14.5815 17.0681L14.4885 17.0561C13.8285 17.3001 13.1425 16.6131 12.5055 15.8091" fill="#ffffff" fill-rule="nonzero" opacity="1" stroke="none"/>
<path d="M9.63619 31.014C9.61818 30.935 9.68718 30.586 9.77918 30.16C9.92818 29.473 10.1372 28.585 10.1422 28.299C10.1492 27.834 9.76618 25.833 9.76519 24.484C9.76519 23.132 10.5912 22.279 10.5912 22.279L10.5932 22.242C12.7222 22.365 14.7142 22.055 14.7142 22.055L14.7352 22.05C15.0192 23.13 15.4442 23.594 15.5392 23.779C15.6642 24.03 16.4112 25.041 16.4112 25.041C16.4112 25.041 16.9002 26.323 16.8942 26.422C16.8882 26.525 16.6252 26.87 16.5582 27.31C16.5062 27.658 16.6102 27.914 16.7222 28.061L16.7082 28.073L15.4372 28.616C15.4372 28.616 14.1262 28.942 13.8002 28.978C13.4762 29.01 12.2222 29.286 12.2592 30.016C12.2962 30.742 12.1722 31.003 12.4302 31.206C12.6862 31.412 12.9212 31.533 12.9212 31.533L12.9402 31.563C12.7162 31.709 12.5072 31.867 12.3812 32.012C12.0532 32.392 11.7822 32.817 11.7042 33.188L11.6392 33.178C11.6392 33.178 10.7602 32.588 10.6252 32.58C10.5602 32.576 10.3282 32.537 10.0722 32.502L10.0822 32.427L10.0822 32.426C9.67919 31.871 9.68119 31.202 9.63619 31.014" fill="#ffffff" fill-rule="nonzero" opacity="1" stroke="none"/>
<path d="M7.64388 21.6863C6.89489 20.5453 7.37488 20.0893 7.44289 20.0323C7.74189 20.3183 8.15389 20.6053 8.62989 20.5403C9.44489 20.4263 10.3489 20.1203 10.7759 20.4263C11.2009 20.7353 11.9219 21.5043 12.7619 20.9483C13.3649 20.5503 13.9279 20.1503 14.1969 19.9573C14.3019 19.8803 14.3619 19.8363 14.3619 19.8363L14.4319 19.8403C14.4069 20.4063 14.5119 20.7123 14.5119 20.7123C14.5579 21.2383 14.6379 21.6803 14.7359 22.0493L14.7139 22.0553C14.7139 22.0553 12.7219 22.3653 10.5929 22.2423C10.0439 22.2103 9.48488 22.1493 8.94889 22.0473C8.64888 21.9903 8.35588 21.9203 8.07589 21.8343L8.07589 21.8333C7.92789 21.7893 7.78388 21.7403 7.64388 21.6863" fill="#ffffff" fill-rule="nonzero" opacity="1" stroke="none"/>
<path d="M6.99309 19.5555C6.80109 19.3825 6.64708 18.6055 6.85909 18.4165C7.07308 18.2265 7.68209 17.4975 7.68209 17.4975C8.63309 15.7785 9.61408 15.5565 9.61408 15.5565L9.67708 15.5665C9.55909 16.2425 9.47809 17.1565 9.46808 17.3215C9.45609 17.5245 10.0111 18.3625 10.2831 18.5445C10.5551 18.7205 11.1471 18.9565 11.3861 18.9705C11.6291 18.9845 12.7711 19.4555 12.9691 19.5085L14.1561 19.9025L14.1971 19.9565C13.9281 20.1505 13.3651 20.5505 12.7621 20.9485C11.9221 21.5045 11.2001 20.7355 10.7761 20.4265C10.3491 20.1205 9.44509 20.4265 8.63009 20.5405C8.15409 20.6055 7.74208 20.3175 7.44208 20.0325C7.22908 19.8295 7.07308 19.6275 6.99309 19.5555" fill="#ffffff" fill-rule="nonzero" opacity="1" stroke="none"/>
<path d="M8.93578 35.6245C7.53579 35.6505 7.97579 34.1425 8.03579 33.5805C8.09578 33.0185 9.04378 32.4855 9.34278 32.4495C9.49579 32.4315 9.79778 32.4645 10.0718 32.5025C10.3278 32.5365 10.5608 32.5765 10.6248 32.5795C10.7598 32.5885 11.6388 33.1785 11.6388 33.1785L11.7038 33.1885C11.6928 33.2415 11.6858 33.2925 11.6828 33.3435C11.6588 33.7435 12.0148 34.0875 12.1698 34.2065L12.1668 34.2345C11.7728 34.1965 11.3118 34.2075 11.2018 34.1995C11.0128 34.1885 9.98279 34.7745 9.80678 35.0065C9.78478 35.0355 9.75478 35.0665 9.71878 35.0995C9.46878 35.3285 8.93578 35.6245 8.93578 35.6245" fill="#ffffff" fill-rule="nonzero" opacity="1" stroke="none"/>
<path d="M10.4515 43.6827C10.4455 43.6317 9.86249 42.6247 9.82349 42.3797C9.78449 42.1357 10.2255 41.0567 10.4425 40.5877C10.6585 40.1147 10.6625 39.6047 10.6785 39.3347C10.6945 39.0687 10.9225 38.8647 10.9225 38.8647L10.9645 38.8137C10.9845 38.8337 11.0065 38.8527 11.0285 38.8717C12.0785 39.7677 12.9855 40.7927 14.2145 41.3767C15.4445 41.9657 18.1515 43.0387 18.4415 43.1387C18.5015 43.1597 18.6155 43.2027 18.7595 43.2607L18.7645 43.2467L19.3465 43.3007C21.7365 43.3897 21.8525 42.3497 22.3115 41.4047C22.3705 41.2847 22.4135 41.1707 22.4435 41.0627L22.5335 41.0887C22.5335 41.0887 22.8045 41.4277 23.0895 41.9077C23.3725 42.3897 23.2025 43.3687 23.1725 43.7087C23.1435 44.0517 22.9275 44.0877 22.4515 44.6337C21.9745 45.1827 20.8775 44.9737 20.3715 44.8337C19.8645 44.6927 18.6795 44.4407 18.0085 44.3677C17.3355 44.3007 15.9835 43.4817 15.6475 43.3297C15.3135 43.1787 13.7585 41.8737 13.5775 41.7017C13.3955 41.5297 12.9575 41.4347 12.7775 41.3997C12.5975 41.3687 11.4605 42.1707 11.3655 42.2357C11.2705 42.3017 11.1215 42.4207 11.0735 42.5517C11.0255 42.6777 11.0815 42.7527 11.1355 42.8777C11.1885 43.0027 11.3195 42.9987 11.4195 43.0357C11.5165 43.0707 11.7055 43.1347 11.8135 43.1697C11.9225 43.2077 11.6175 43.5727 11.5555 43.5997C11.4935 43.6257 11.5075 43.7367 11.5025 43.8167C11.4985 43.8967 11.3335 43.9407 11.2715 43.9547C11.2105 43.9717 11.0305 43.9407 10.9805 43.9467C10.9285 43.9547 10.6795 43.9197 10.6495 43.9077C10.6205 43.8987 10.4585 43.7357 10.4515 43.6827" fill="#ffffff" fill-rule="nonzero" opacity="1" stroke="none"/>
<path d="M9.46839 17.3213C9.47838 17.1563 9.55939 16.2423 9.67739 15.5673C9.70339 15.4153 9.73139 15.2753 9.76038 15.1593C9.91838 14.5243 10.4564 14.3143 10.8324 14.0943C11.2094 13.8733 11.6214 13.0523 12.0394 12.7933C12.4594 12.5363 13.5614 12.3213 14.4204 12.1293C15.2784 11.9393 16.9234 12.1183 16.9234 12.1183C16.9234 12.1183 16.9734 12.1153 17.0594 12.1183L17.0584 12.1373C16.5164 12.1783 14.0664 12.4283 13.2604 13.3113C12.3534 14.3043 11.8674 15.0033 12.5054 15.8093C13.1424 16.6123 13.8284 17.3003 14.4884 17.0563L14.5814 17.0673C14.5654 17.1973 14.5564 17.2953 14.5534 17.3433C14.5414 17.5453 14.5764 18.6163 14.4674 19.4383C14.4484 19.5843 14.4364 19.7183 14.4314 19.8403L14.3624 19.8363C14.3624 19.8363 14.3014 19.8803 14.1964 19.9573L14.1564 19.9023L12.9694 19.5093C12.7714 19.4553 11.6284 18.9853 11.3864 18.9703C11.1464 18.9563 10.5554 18.7213 10.2834 18.5443C10.0114 18.3623 9.45638 17.5243 9.46839 17.3213" fill="#ffffff" fill-rule="nonzero" opacity="1" stroke="none"/>
<path d="M10.3684 36.4078C10.7644 36.7998 11.7464 37.4348 12.9404 37.5068C14.2504 37.5848 15.6354 37.7758 16.4074 37.0488C16.4804 37.9238 16.6254 38.6768 16.9694 38.9588C16.9694 38.9588 17.3834 39.3078 17.4304 39.3498C17.4784 39.3948 17.8484 39.6278 17.8834 39.7108C17.9184 39.7918 18.0234 40.0708 17.9694 40.1278C17.9154 40.1858 17.6964 40.3038 17.6734 40.3448C17.6524 40.3818 17.5774 40.5998 17.7244 40.6798C17.7244 40.6798 17.7914 40.7328 17.8684 40.6368C17.9444 40.5428 18.0574 40.5058 18.1284 40.4918C18.2004 40.4748 18.5734 40.3178 18.5824 40.1548C18.5924 40.0018 18.5994 39.8768 18.6004 39.8648L19.2184 41.1528C19.2184 41.1528 19.4054 41.2438 19.4594 41.1958C19.5114 41.1488 19.5864 41.0938 19.5514 41.0018C19.5164 40.9078 19.4084 40.5278 19.4084 40.5278L19.2494 39.9828L19.1174 39.6538L18.9934 39.2808L19.6054 40.0968L19.9264 40.6378C19.9264 40.6378 20.0874 40.8218 20.1904 40.7758C20.2934 40.7338 20.4164 40.6788 20.3314 40.4618C20.2424 40.2448 20.0574 39.8108 20.0574 39.8108C20.0574 39.8108 19.7864 39.2798 19.5344 39.0828L20.0974 39.2988L20.8654 39.7878C20.8654 39.7878 20.9874 39.7748 21.0314 39.7178C21.0744 39.6588 21.0204 39.5538 20.9644 39.4908C20.9074 39.4278 20.3334 38.7178 20.3334 38.7178C20.3334 38.7178 20.0824 38.5288 19.9544 38.4728C19.9544 38.4728 19.8304 38.3748 19.8044 38.2998C19.7794 38.2308 19.4614 37.9388 19.4044 37.8848C19.3474 37.8308 18.8514 37.5178 18.6824 37.4788C18.5144 37.4378 18.0634 37.3818 18.0984 37.1208C18.1364 36.8608 18.6754 35.5818 18.6754 35.5818L19.0664 34.7868C19.0664 34.7868 19.1324 34.6598 19.2234 34.4758L19.3754 34.5028C19.3754 34.5028 19.7774 35.0168 20.6254 34.9738L20.6294 35.0368C20.6294 35.0368 21.1974 36.1988 21.2544 36.6068C21.2884 36.8538 21.6054 37.8748 21.8634 38.6808C22.0294 39.1988 22.1724 39.6288 22.1994 39.7038C22.2554 39.8618 22.6034 40.2718 22.4754 40.9308C22.4664 40.9738 22.4564 41.0178 22.4434 41.0628C22.4134 41.1708 22.3704 41.2848 22.3114 41.4048C21.8524 42.3498 21.7364 43.3898 19.3464 43.3008L18.7644 43.2468L18.7594 43.2608C18.6154 43.2028 18.5024 43.1598 18.4414 43.1388C18.1514 43.0388 15.4444 41.9658 14.2154 41.3768C12.9854 40.7928 12.0784 39.7678 11.0284 38.8718C11.0064 38.8528 10.9854 38.8338 10.9644 38.8138C9.99538 37.9108 10.3404 36.4358 10.3404 36.4358L10.3684 36.4088L10.3684 36.4078Z" fill="#ffffff" fill-rule="nonzero" opacity="1" stroke="none"/>
<path d="M7.09398 31.7729C6.59099 31.7429 6.75798 31.5059 6.75798 31.5059C6.82698 31.4089 6.92499 31.1299 6.98198 31.0269C8.00798 29.5999 7.76299 27.1099 7.74399 25.2299C7.72399 23.2099 8.93999 22.0929 8.93999 22.0929L8.94898 22.0469C9.48499 22.1499 10.044 22.2109 10.593 22.2419L10.591 22.2789C10.591 22.2789 9.76598 23.1319 9.76499 24.4839C9.76598 25.8339 10.15 27.8339 10.142 28.2989C10.137 28.5849 9.92798 29.4729 9.77898 30.1599L9.60999 30.9479L9.82099 32.0799C9.82099 32.0799 9.99999 32.5239 9.25798 32.4449C8.84798 32.6499 8.25399 32.4439 8.00798 32.1649C7.76198 31.8879 7.59598 31.8029 7.09398 31.7729" fill="#ffffff" fill-rule="nonzero" opacity="1" stroke="none"/>
<path d="M10.2679 36.2976C9.96788 35.9306 9.88189 35.1176 9.88189 35.1176L9.71988 35.0996L9.71889 35.0996C9.75489 35.0666 9.78489 35.0356 9.80689 35.0066C9.98288 34.7746 11.0129 34.1886 11.2019 34.1996C11.3119 34.2066 11.7729 34.1966 12.1669 34.2346L12.1699 34.2066C12.0149 34.0876 11.6589 33.7436 11.6829 33.3436C11.6859 33.2926 11.6929 33.2416 11.7039 33.1876C11.7829 32.8166 12.0529 32.3916 12.3819 32.0126C12.5069 31.8666 12.7159 31.7086 12.9409 31.5626C13.3889 31.2706 13.8939 31.0256 13.8939 31.0256L13.9159 31.0056L13.9159 31.0046C14.5079 31.6306 15.8299 32.9936 16.4439 33.3576L16.5419 33.3836C16.3949 33.9506 16.3039 34.5926 16.3269 35.3146C16.3449 35.8826 16.3609 36.4906 16.4079 37.0476L16.4069 37.0486C15.6349 37.7756 14.2499 37.5846 12.9399 37.5066C11.7469 37.4346 10.7639 36.8006 10.3689 36.4076C10.3289 36.3676 10.2949 36.3316 10.2679 36.2976" fill="#ffffff" fill-rule="nonzero" opacity="1" stroke="none"/>
<path d="M5.58289 31.3906C5.58289 31.3906 5.28789 31.3626 5.35889 31.2976C5.43088 31.2346 5.79688 30.6416 5.87189 30.5096C5.90288 30.4556 6.04989 30.0526 6.18088 29.7676C6.36588 29.3636 6.46988 28.8786 6.46988 28.8786C6.73989 28.1786 6.78789 27.8676 6.78789 27.8676L6.99588 24.8776C7.03989 23.1396 8.06089 21.8826 8.06089 21.8826L8.07589 21.8346C8.35588 21.9206 8.64888 21.9906 8.94889 22.0466L8.93988 22.0936C8.93988 22.0936 7.72388 23.2096 7.74389 25.2296C7.76288 27.1096 8.24689 28.8176 7.46689 30.2156L7.17789 30.8006C7.17789 30.8006 6.78688 31.7726 6.78588 31.7726C6.75188 31.7906 6.46589 31.5616 6.23589 31.6336C6.00289 31.7056 5.62888 31.5626 5.58289 31.3906" fill="#ffffff" fill-rule="nonzero" opacity="1" stroke="none"/>
<path d="M4.33298 30.5093C3.77698 30.2463 4.69698 29.4033 4.69698 29.4033L5.43398 28.3683C5.43398 28.3683 5.97498 27.6193 6.16199 26.8573C6.37899 26.5843 6.47298 24.5603 6.47298 24.5603C6.74999 22.2903 7.64399 21.6863 7.64399 21.6863C7.78399 21.7403 7.92798 21.7893 8.07598 21.8333L8.07598 21.8343L8.06098 21.8833C8.06098 21.8833 7.03998 23.1403 6.99599 24.8773L6.78798 27.8683C6.78798 27.8683 6.73998 28.1783 6.46999 28.8793C6.46999 28.8793 6.32799 29.3823 6.14298 29.7863L5.38698 31.2603C5.38698 31.2603 5.04198 31.0083 4.81798 30.8593C4.52898 30.9283 4.33298 30.5093 4.33298 30.5093" fill="#ffffff" fill-rule="nonzero" opacity="1" stroke="none"/>
<path d="M48.7062 21.0547C49.2262 22.3537 49.5572 24.1577 49.8442 26.6247C50.3942 31.3707 49.1532 35.6247 48.7672 37.1977C48.3812 38.7707 49.0072 41.0057 49.7122 41.1827C49.7122 41.1827 47.0092 41.4787 45.8512 41.4337C45.3612 41.4157 45.3052 41.4227 44.7622 41.3977C42.8772 41.3157 40.9392 41.2117 40.8212 41.1237M14.7082 22.0517C14.7082 22.0517 12.7152 22.3617 10.5842 22.2387C10.0352 22.2067 9.47518 22.1467 8.93918 22.0437C8.63918 21.9867 8.34618 21.9167 8.06618 21.8307L8.06618 21.8297C7.91818 21.7857 7.77318 21.7367 7.63318 21.6827C7.63318 21.6827 6.73918 22.0077 6.46118 24.2787C6.46118 24.2787 6.34818 26.5217 6.05818 27.4167C5.50818 28.5927 4.30518 29.8177 4.30518 29.8177C4.30518 29.8177 3.97818 30.1807 4.37718 30.5397L5.24718 31.1417M6.77718 31.7757C6.74218 31.7937 5.44218 31.4887 5.39618 31.3157C5.39618 31.3157 5.35118 31.2147 5.42118 31.1497C5.49318 31.0867 5.71018 30.8457 5.78518 30.7137C5.81618 30.6597 5.83018 30.6347 5.96018 30.3507C6.14618 29.9457 6.45918 29.2527 6.45918 29.2527C6.72918 28.5517 6.68418 28.4277 6.68418 28.4277L6.98518 24.5957C7.02918 22.8577 8.05018 21.8797 8.05018 21.8797M28.0962 14.8317C28.0962 14.8317 27.9862 14.6477 27.8992 14.4967C27.8472 14.4057 27.8022 14.3267 27.7942 14.3057C27.7722 14.2487 27.7352 14.1587 27.8162 14.0467C27.8962 13.9347 28.0952 14.0217 28.1192 14.0407C28.1422 14.0597 28.2562 14.2037 28.4172 14.3287C28.5752 14.4577 28.5512 14.3377 28.6882 14.9327C28.7172 15.0577 28.7242 15.1577 28.7142 15.2397C28.6702 15.5477 28.3052 15.4887 27.9122 15.7507C27.4052 16.0887 26.8442 15.7247 26.8442 15.7247C26.8442 15.7247 26.0322 14.9587 25.9802 14.8807C25.9292 14.8057 25.8422 14.8127 25.7702 14.8947C25.6962 14.9767 25.7402 14.9847 25.4242 14.9907C25.1092 14.9957 24.9662 14.8107 24.9222 14.7187C24.8782 14.6307 25.3222 14.4477 25.3222 14.4477C25.3222 14.4477 25.8082 14.1607 26.2982 14.1227C26.3792 14.1157 26.4532 14.1077 26.5232 14.1017C26.8742 14.0667 27.0982 14.0457 27.4252 14.2457L27.8802 14.5157M34.2352 32.0487C34.2352 32.0487 34.2042 34.5797 34.2152 34.7757C34.2252 34.9757 34.2842 35.8077 34.0462 36.1407C33.8082 36.4777 33.5532 37.0727 33.5822 37.3147C33.6112 37.5557 33.6112 37.9817 33.5672 38.1057C33.5202 38.2307 33.2692 39.0077 33.2692 39.0077C33.2692 39.0077 33.1672 39.6527 33.7632 39.7277C34.3582 39.8037 35.1762 39.8127 35.4932 39.6537C35.8092 39.4927 36.0582 39.1747 35.9692 38.9667C35.8792 38.7557 35.6442 38.6157 35.4912 38.4137C35.3352 38.2117 35.1412 37.8307 35.2062 37.5907C35.2062 37.5907 35.3042 37.2657 35.3002 37.1237C35.2942 36.9847 35.2642 36.4197 35.4042 36.2217C35.5432 36.0267 36.5562 34.4767 36.5562 34.4767C36.5562 34.4767 37.0472 33.7507 37.2112 31.6537M34.3152 31.9847C35.4552 31.7307 36.4542 31.5997 37.2012 31.5327L37.2012 31.5317C38.0832 31.4517 38.6152 31.4607 38.6152 31.4607M26.6132 33.6107C26.5342 34.7767 26.4472 35.6197 26.4472 35.6197C26.2682 37.2637 25.4162 39.3967 25.4162 39.3967C25.4162 39.3967 26.3052 39.3667 27.1272 39.0937C27.9522 38.8187 28.4762 38.1787 29.2572 38.6287M22.4772 36.9607C22.4772 36.9607 24.6892 39.3047 25.4102 39.3887M47.0972 41.3867C47.0972 41.3867 44.7212 40.9307 44.6252 37.1287M29.9762 13.2157L30.3692 14.7327M22.1132 18.8907L22.3762 18.8577C22.3762 18.8577 23.0292 18.9567 23.1092 18.9617C23.1912 18.9667 23.7832 19.0757 23.7832 19.0757C23.8402 19.2407 23.4902 19.3597 23.4902 19.3597L22.8572 19.4647L23.0532 19.7867C23.2502 20.1067 22.8172 20.3627 22.8172 20.3627C22.9422 20.9717 22.5542 21.1557 22.5542 21.1557C21.9582 21.5567 21.3832 21.2087 20.9632 20.9687C20.8582 20.9097 20.7642 20.8557 20.6802 20.8227C20.2582 20.6567 20.3732 20.2637 20.3642 19.8727C20.3532 19.4817 20.5152 19.1407 20.6262 18.9937C20.7352 18.8457 21.2502 18.6617 21.2502 18.6617L21.6852 18.7767L22.1132 18.8907L22.1242 18.8937C22.1242 18.8937 22.3232 19.2027 22.2312 19.2627C22.1382 19.3267 21.8012 19.4747 21.6582 19.3977L21.5132 19.3227M27.4242 29.3417C27.4242 29.3417 26.9732 29.2217 26.8662 29.0377M34.1272 13.2077C34.1272 13.2077 34.5182 13.4427 34.9232 13.4497M32.4932 12.5227C32.4932 12.5227 32.8842 12.7577 33.2892 12.7647M23.5022 13.9037L24.1692 14.3497M45.0512 23.9837C38.8232 22.3157 42.8892 18.2167 43.5282 17.6167M44.2172 24.4317L43.2302 28.3047M34.7712 25.2637L35.8642 25.0367M35.2472 25.2027L35.3722 25.3417M34.3902 13.3377L34.3482 13.5237M32.8492 12.7737L32.8322 12.8957M23.7882 14.1707L23.6852 14.3237M27.1472 29.2777L27.0032 29.3997M27.2972 18.4347L27.3472 18.5097M26.8332 18.6757C26.8332 18.6757 27.2932 18.0537 27.5172 18.2327M28.4842 19.7857C28.4842 19.7857 28.9062 19.6937 29.1412 19.5317M33.0762 13.8397C33.0762 13.8397 33.0562 13.9107 33.3242 13.9267M32.8102 14.1977C32.8102 14.1977 32.9812 14.3427 33.2262 14.3567M29.7862 33.5307C29.7862 33.5307 29.7582 33.7697 29.7172 34.0157C29.6812 34.2327 29.6362 34.4537 29.5932 34.5197C29.5052 34.6597 29.3472 35.1577 29.4062 35.2357C29.4062 35.2357 29.5602 35.7207 29.8102 35.3717L30.0622 35.0227L30.3282 34.5937M29.6702 32.7447C29.6542 32.8937 29.5262 33.4357 29.8542 33.4857C29.8542 33.4857 30.1632 33.4927 30.1802 33.1857C30.1992 32.8797 30.3432 32.7337 30.3812 32.6057M31.2612 30.7267C31.2612 30.7267 30.8322 30.3607 30.2752 30.8727C29.8882 31.2277 29.8082 31.2987 29.7942 31.3087C29.7942 31.3097 29.7932 31.3097 29.7932 31.3097C29.7922 31.3107 29.7922 31.3107 29.7932 31.3097L29.7942 31.3087L29.7962 31.3067L29.7962 31.3057M29.7962 31.3067C29.7952 31.3077 29.7942 31.3077 29.7942 31.3087M29.7932 31.3097C29.4132 31.8257 29.4392 31.7797 29.3862 31.9147C29.3442 32.0317 29.1652 32.7877 29.1682 32.8987C29.1702 33.0057 29.1442 33.2377 29.0872 33.2807C29.0312 33.3217 28.7092 33.5407 28.6742 33.4937C28.6402 33.4437 28.3652 33.0457 28.2402 33.0207C28.1142 32.9947 27.9162 32.9747 27.9962 33.1517C28.0772 33.3297 27.5012 33.2387 27.8992 33.5807L28.2952 33.9237C28.2952 33.9237 28.6572 34.2347 28.8822 34.2827C29.1062 34.3357 29.4812 34.3057 29.6622 34.0117M30.9092 28.4257C30.9092 28.4257 28.7022 29.3147 29.6032 31.3607M29.8742 29.1237C29.8742 29.1237 29.7642 27.7637 29.7972 27.2267C29.8142 26.9327 30.1292 25.4577 30.4102 24.1847M35.7722 26.3247L36.0372 26.1647M41.8662 39.8547C41.8662 39.8547 43.0012 41.1347 43.9172 41.3477M39.8092 20.9627C39.8142 20.8647 40.6522 18.2537 42.2742 17.5847C42.8692 17.2417 43.5622 17.5307 43.5622 17.5307C43.9052 17.6777 44.8872 17.3017 46.0042 18.1587L46.9012 17.8787C48.4382 17.6347 49.1982 18.9617 49.1982 19.7837C49.1982 20.6047 48.0772 21.6507 48.0772 21.6507L46.9322 22.5847C46.6162 23.1467 45.4282 23.7577 45.0662 24.0057C44.5202 24.3817 43.9382 24.4457 43.3682 24.3267C41.5802 23.9557 39.9212 21.7787 39.9212 21.7787M35.4142 19.4767C35.4142 19.4767 35.8422 18.9237 36.5002 18.6337C36.6572 18.5647 39.7852 16.9247 42.6082 17.4347M45.5762 31.5137C45.5762 31.5137 44.5462 31.3827 43.7912 31.8987L43.7912 31.8997C43.6352 32.0057 43.4892 32.1407 43.3672 32.3117C42.9022 32.9627 40.9942 34.5457 39.7312 35.5627C39.3112 35.9017 38.9612 36.1777 38.7612 36.3357C38.6532 36.4207 38.2822 36.9787 38.2822 36.9787C38.2822 36.9787 38.7202 29.9057 43.3592 24.3687M39.7782 35.6277C39.7782 35.6277 39.5282 38.0957 39.2222 38.8257C38.9152 39.5547 38.7002 40.1267 38.7032 40.4127C38.7072 40.6937 38.5012 41.4487 38.4082 41.6447C38.3482 41.7717 38.2332 41.9867 38.1692 42.2247C38.1332 42.3587 38.1122 42.4997 38.1262 42.6367C38.1632 43.0237 38.1852 43.3477 38.4652 43.3837C38.7462 43.4217 39.1752 43.3257 39.1752 43.3257C39.1752 43.3257 39.5712 43.4707 39.7712 43.4827C39.9732 43.4947 40.2132 43.5307 40.3592 43.4387C40.5072 43.3457 40.7952 43.2437 40.9212 43.1487C41.0482 43.0547 41.4122 42.7357 41.4052 42.4917C41.4012 42.2467 40.8042 41.4057 40.8042 41.4057C40.8042 41.4057 40.7742 41.3047 40.7382 41.1467C40.6522 40.7647 40.5322 40.0537 40.7272 39.6637C41.0032 39.1137 44.0192 34.9137 43.8152 31.9327M39.1142 24.7877C39.0802 25.0267 38.7162 26.3767 38.6792 26.6587C38.6422 26.9387 38.6062 27.2217 38.7452 27.5697C38.8862 27.9237 39.0762 28.8027 39.0532 29.1857C39.0302 29.5657 38.8492 30.5867 38.7122 31.1627C38.6872 31.2707 38.6662 31.3587 38.6492 31.4307L38.5772 31.7417L38.0692 32.8307C38.0692 32.8307 37.2282 34.4587 37.0852 34.8337C36.9402 35.2107 36.2582 36.4817 36.9592 38.2787L37.2382 39.3027C37.7132 40.7847 37.8812 40.9157 38.4192 41.0047M32.3252 22.9737C32.3252 22.9737 32.1042 22.8137 32.1672 22.5867C32.2302 22.3597 31.9922 21.9337 32.1782 21.8317C32.3032 21.7627 32.3192 21.4307 32.4642 21.1867C32.5362 21.0647 32.6412 20.9647 32.8072 20.9307C33.3062 20.8317 33.1052 20.3587 33.4712 20.2487C33.8412 20.1397 34.1682 19.8647 34.3002 19.8727C34.4312 19.8807 34.9042 19.6807 35.0372 19.6527C35.0972 19.6427 35.2572 19.6167 35.4242 19.5997C35.6242 19.5777 35.8332 19.5677 35.8932 19.6057C35.9572 19.6487 36.2022 19.7617 36.4302 19.8507C36.5972 19.9157 36.7542 19.9697 36.8242 19.9737C36.9882 19.9837 37.6142 20.2357 37.7272 20.2427C37.8442 20.2497 38.2192 20.2727 38.1772 20.4187C38.1342 20.5627 38.0462 20.6887 38.1252 20.7257C38.2062 20.7637 38.4442 20.8937 38.4232 20.9737C38.4022 21.0557 38.2762 21.2297 38.3042 21.3267C38.3312 21.4287 38.5732 21.7707 38.6152 21.8897C38.6582 22.0057 38.6792 22.1877 38.5932 22.2637C38.5052 22.3427 38.4202 22.4037 38.4812 22.4707C38.5422 22.5417 38.5002 22.7027 38.4312 22.7647C38.3622 22.8267 38.2682 23.0017 38.1992 23.0817C38.1282 23.1577 37.9282 23.4907 37.8242 23.5657C37.7222 23.6427 37.4282 23.6087 37.3882 23.7367C37.3472 23.8677 36.9442 23.9897 36.8462 23.9837C36.7492 23.9777 36.2362 24.3087 36.1492 24.1057C36.0632 23.9047 36.0672 23.5587 36.1082 23.4297C36.1492 23.3027 36.3032 23.1977 36.3422 23.0987C36.3802 23.0037 36.3732 22.8567 36.3262 22.8027C36.2812 22.7517 36.0292 22.5377 36.2392 22.3237C36.4502 22.1037 36.8582 21.3417 36.9362 21.1307C37.0142 20.9217 36.9452 20.7057 36.8992 20.6527C36.8522 20.6017 36.3282 20.3077 36.2472 20.2707C36.1672 20.2327 35.5032 20.0927 35.3542 20.1007C35.2072 20.1067 34.7812 20.0667 34.6122 20.1727C34.4422 20.2757 34.0212 20.4317 33.9362 20.4927C33.8502 20.5537 33.5202 20.8617 33.5202 20.8617L33.0522 21.2617C33.0522 21.2617 32.4902 21.8007 32.4362 22.9787C32.4232 23.2387 32.4362 23.5307 32.4852 23.8537C32.4852 23.8537 32.5542 24.3797 32.8802 24.7757C32.9712 24.8867 33.6572 25.4177 33.6572 25.4177C33.6572 25.4177 33.9332 25.4697 33.9982 25.4737C34.0642 25.4777 34.2552 25.5537 34.3442 25.7387C34.4302 25.9247 34.6342 26.6627 35.0522 26.5377L35.3472 26.2607C35.3472 26.2607 35.7802 26.4327 35.8612 26.4707C35.9332 26.5067 36.6192 26.8477 37.4342 25.6797C37.5182 25.5587 37.6042 25.4217 37.6902 25.2667C37.6902 25.2667 37.9712 24.5487 38.2762 23.9717C38.3462 23.9387 38.6072 23.7757 38.6902 23.7457C39.5802 23.4197 39.9102 22.1977 39.9102 22.1977C39.9102 22.1977 39.9172 22.0267 39.9042 21.7807M29.4002 45.2847L29.3982 46.3247M25.3882 43.9657L25.3872 45.0207L29.4552 46.3917L36.8962 44.2047L36.8962 43.1527M25.3892 43.9667L29.4002 45.2847L36.8962 43.1527L32.6232 42.2747L29.8942 42.9127L29.6232 42.9767L25.3892 43.9667L25.3882 43.9657M32.8072 24.8117C32.8072 24.8117 32.6762 25.2087 32.5352 25.3087C32.3952 25.4077 31.7232 26.2827 31.8502 26.8557C31.9772 27.4287 32.2692 28.4157 32.2692 28.4157L32.5452 28.3827L35.1152 28.0737C35.1152 28.0737 35.2902 28.0307 35.5072 27.9487C35.7542 27.8557 36.0572 27.7117 36.2262 27.5207C36.5422 27.1647 37.4392 25.6837 37.4392 25.6837M29.8872 41.0887L29.6232 42.9767M29.6232 42.9767L29.3702 44.3167L29.8942 42.9127L30.8672 40.4477L32.0612 43.6937L31.3742 39.1217L31.3282 38.6357C31.3282 38.6357 30.8672 38.6717 30.6282 39.0437C30.3902 39.4147 30.1682 40.2137 30.0972 40.5347C30.0352 40.8137 29.8822 41.0717 29.8732 41.0877L29.8722 41.0887C29.5832 41.0967 29.6102 40.6897 29.6102 40.6897L29.5052 38.9497C29.4092 38.8767 29.3392 38.7947 29.2892 38.7057C29.1092 38.3877 29.1762 37.9867 29.1812 37.6737C29.1862 37.2727 29.5382 36.8177 29.8012 36.2427C29.9202 35.9807 30.1422 35.2827 30.3472 34.5997C30.5922 33.7837 30.8152 32.9887 30.8152 32.9887C30.9352 31.9977 31.1052 31.2707 31.2862 30.7357C31.6722 29.5937 32.1062 29.3257 32.2012 29.2397C32.3422 29.1147 32.5542 28.4597 32.5542 28.4597M31.4332 39.1157C31.6522 38.8227 31.8952 38.3267 31.7412 37.6707C31.4832 36.5797 31.5242 36.3407 31.6242 36.0217C31.6882 35.8197 33.0522 34.1957 33.9802 32.4977C34.0802 32.3187 34.1732 32.1377 34.2592 31.9577C34.6372 31.1727 34.8832 30.4017 34.8252 29.7797L35.6502 28.0157L35.6582 27.9987M32.1272 22.1667L30.4032 21.3407M35.1022 16.1727C35.1022 16.1727 34.8002 17.3937 36.4782 18.5857M40.2202 17.3737C40.2202 17.3737 39.9922 16.9437 39.3342 16.4737C39.0152 16.2467 38.6372 16.0197 38.2172 15.8497M36.0382 12.6637C36.0382 12.6637 37.8182 13.2947 38.9442 15.1647C38.9442 15.1647 39.3602 15.8887 39.3632 16.2547C39.3642 16.3757 39.3642 16.4227 39.3642 16.4307M39.3642 16.4307C39.3622 16.4197 39.3602 16.3077 39.3602 16.3077M31.8822 13.5177C31.8822 13.5177 32.2042 14.6537 32.8012 14.8097C32.8012 14.8097 33.7282 14.8387 34.4902 14.2647M34.7232 16.3187C34.7232 16.3187 34.5852 16.9517 34.4922 16.9167C34.4002 16.8847 34.1392 16.4457 34.1392 16.4457L34.4172 15.4727L34.5402 14.2697L34.5452 14.2137L35.4862 12.6807C35.5052 12.5757 35.3912 12.0177 35.2762 11.9157C35.1612 11.8157 34.8322 11.4457 34.8142 11.3097C34.7962 11.1737 34.6872 10.7237 34.6872 10.7237C34.6872 10.7237 33.9942 11.2867 33.8422 11.3737C33.6872 11.4587 33.1832 11.3607 33.0482 11.3527C32.9152 11.3447 32.5992 11.4327 32.5232 11.5897C32.4462 11.7457 32.1742 12.2297 32.1012 12.3327C32.0282 12.4357 31.9442 12.9407 31.9432 13.1847C31.9422 13.3087 31.8852 13.4117 31.8222 13.5077C31.7622 13.5957 31.6972 13.6777 31.6662 13.7607C31.6022 13.9297 31.6862 14.0967 31.7232 14.3687C31.7602 14.6407 31.7062 15.0927 31.6712 15.2277C31.6372 15.3597 31.4072 15.3607 31.3552 15.3577C31.3002 15.3547 31.0082 15.5247 31.0082 15.5247C31.0082 15.5247 31.0702 15.1497 31.0912 15.0567C31.1102 14.9637 30.8592 14.4247 30.8032 14.2467C30.7472 14.0677 30.5682 12.7527 30.5712 12.4677C30.5752 12.1877 30.8802 11.3717 30.9042 11.2237C30.9262 11.0767 31.1372 10.4567 31.2872 10.1977C31.3382 10.1077 31.4392 9.97967 31.5562 9.84667L31.5562 9.84567C31.7802 9.58967 32.0592 9.31167 32.1522 9.23767C32.2932 9.12667 33.1942 8.91067 33.1942 8.91067C33.1942 8.91067 34.2652 8.79967 34.8492 9.39967C34.8492 9.39967 35.5062 9.42567 35.6962 9.83967C35.8862 10.2587 36.2492 10.9397 36.2102 11.1357C36.1722 11.3377 36.0522 11.5447 36.0722 11.6547C36.0922 11.7647 36.0282 12.3927 35.9642 12.5647C35.9562 12.5867 35.9482 12.6077 35.9412 12.6277C35.8892 12.7697 35.8552 12.8867 35.8702 13.0147C35.8882 13.1647 36.0332 13.6587 35.9462 13.7607C35.8592 13.8627 35.7062 13.9617 35.7002 14.0567C35.6952 14.1487 35.6932 14.5937 35.5532 14.7067C35.4112 14.8197 35.3472 14.9887 35.3432 15.0697C35.3382 15.1517 35.4652 15.7237 35.2752 15.9677C35.2102 16.0527 35.1482 16.1167 35.0922 16.1597L35.0922 16.1607C35.0392 16.1657 34.9502 16.1487 34.8712 16.2127L34.7232 16.3187ZM29.7712 19.0227C29.7712 19.0227 30.2442 17.9287 30.2882 17.8627C30.2882 17.8627 31.1172 16.6217 30.2872 14.5387C30.1572 14.2147 29.6612 14.8177 29.6362 14.8487C29.6352 14.8487 29.6352 14.8497 29.6352 14.8497M27.4722 12.5377C27.4722 12.5377 27.0592 11.8017 27.7402 10.9917C28.4212 10.1867 28.6422 10.0787 28.9272 10.0417C29.2112 10.0057 29.7142 9.93967 29.7142 9.93967C29.7142 9.93967 30.6522 9.26067 31.5562 9.84567M31.5562 9.84667C31.5592 9.84767 31.5612 9.84867 31.5632 9.85067M26.5192 14.0567C26.5192 14.0567 26.5252 13.2767 26.7392 13.0867C26.8942 12.9497 27.1882 12.7227 27.4882 12.6667C27.6022 12.6457 27.7172 12.6497 27.8252 12.6937C28.2212 12.8547 29.3332 13.3647 29.6192 14.0137C29.7962 14.4187 29.7452 14.6807 29.6332 14.8457C29.5642 14.9457 29.4732 15.0097 29.3952 15.0497C29.1852 15.1597 28.7252 15.2417 28.7252 15.2417M23.7672 38.1557C23.7672 38.1557 23.5542 35.1327 23.6402 34.6977M27.9652 23.1697L28.0192 25.6577M23.6062 22.2937C23.6062 22.2937 21.4152 23.5507 21.8502 27.0687M29.1842 18.8857C29.1892 18.9757 29.3202 19.7777 29.3162 19.8397C29.3132 19.8977 29.5522 20.5007 29.3932 20.6347C29.2122 20.7837 28.9452 20.9037 28.7572 20.9977C27.3472 21.0017 26.5762 20.7017 26.5762 20.7017M28.8102 21.0207C28.7802 21.7037 29.1122 21.8547 29.1652 21.9497C29.2182 22.0427 29.2912 22.1807 29.2912 22.1807C29.2912 22.1807 29.5152 22.2137 29.7412 22.1237C29.9672 22.0337 30.1962 21.8027 30.1962 21.8027C30.5552 21.5337 30.2682 21.2727 30.3552 20.9947C30.4432 20.7197 30.1852 20.4597 30.1852 20.4597C30.1852 20.4597 30.2852 20.4657 30.2912 20.3657C30.2972 20.2647 30.0172 20.0447 29.9782 20.0237C29.9392 20.0017 30.0092 19.8657 29.9352 19.7267C29.8632 19.5947 29.7932 19.2347 29.7932 19.2347C29.7892 19.1907 29.7262 18.9287 29.7182 18.8937C29.6332 18.5577 29.3862 18.4777 29.3862 18.4777C29.3782 18.2837 29.1432 18.1347 29.1432 18.1347C29.1992 17.7127 28.7822 17.7647 28.7322 17.5777C28.6832 17.3947 28.3062 17.2127 28.3062 17.2127C28.1492 16.9617 27.7002 16.8967 27.7002 16.8967C27.5512 16.8587 26.8832 17.1287 26.8832 17.1287C26.8832 17.1287 26.6292 17.0527 26.3182 17.1847C26.3182 17.1847 25.6702 17.0357 25.3482 17.7017C25.3482 17.7017 25.0102 17.9287 24.8622 18.2177C24.8622 18.2177 24.3692 19.6767 24.3002 20.1847C24.2272 20.7287 24.2652 20.6117 24.2132 20.7547C24.1242 21.0027 23.0852 21.9177 23.6062 22.2937C24.1292 22.6677 24.2772 22.7267 24.3732 22.9737C24.4702 23.2217 25.9652 23.4067 26.2872 23.2617C26.6102 23.1177 26.7912 22.0587 26.7912 22.0587C26.8112 21.8177 26.8252 21.5967 26.7402 21.2707C26.7072 21.1407 26.6652 21.0147 26.6182 20.9067C26.4482 20.5237 26.3832 20.1057 26.3952 19.8967C26.4082 19.6837 26.2752 19.3547 26.1362 19.1727C25.9952 18.9917 25.7852 18.7887 25.8382 18.4187C25.8902 18.0467 26.1952 17.5197 26.3602 17.4577C26.5252 17.3987 26.9342 17.1197 27.7322 17.3097C27.7322 17.3097 28.0382 17.5797 28.0952 17.6257C28.1532 17.6687 28.3912 17.8197 28.5552 17.9597C28.7172 18.1037 28.7772 18.2937 28.7832 18.3447M19.3722 34.5077C19.3722 34.5077 19.7742 35.0217 20.6222 34.9787L20.6222 34.9777C21.6572 34.8207 22.4232 34.2237 22.7332 33.7317C23.1582 32.9327 23.4722 31.8407 22.2302 30.2767M27.3112 30.2177C27.3112 30.2177 26.9712 30.1157 26.9772 30.0067M26.7582 30.5077L26.5792 30.3637M24.5632 29.9487C24.5632 29.9487 24.7462 30.3297 24.9492 30.5667C25.1522 30.8037 25.8472 31.0977 26.2902 30.9637C26.4772 30.9067 26.5282 30.7637 26.6372 30.7427C26.7452 30.7217 26.8902 30.5697 27.0272 30.5517C27.1612 30.5317 27.3142 30.2177 27.3142 30.2177C27.3142 30.2177 27.7662 30.3257 27.7822 30.0547C27.7982 29.7877 27.8122 29.1177 27.8122 29.1177C27.8122 29.1177 28.1742 28.8977 28.2592 28.3907M22.4402 27.4017C22.4402 27.4017 22.2322 26.5207 22.5922 26.3547C22.5922 26.3547 22.6122 26.3377 22.6422 26.3097C22.7082 26.2497 22.8282 26.1397 22.9062 26.0517C23.0232 25.9237 23.2842 25.6127 23.4462 25.5987C23.6082 25.5777 23.7792 25.4297 23.8932 25.3027C24.0102 25.1727 24.3612 24.7097 24.8932 24.7967C25.4262 24.8827 26.6082 24.9267 26.7622 25.0427C26.9172 25.1607 27.6422 25.6617 27.7492 25.6677C27.7892 25.6707 27.8912 25.6687 28.0132 25.6897C28.2202 25.7257 28.4822 25.8267 28.5822 26.1207C28.5822 26.1207 28.8932 26.3547 28.6262 26.7437C28.6262 26.7437 29.1992 27.0717 29.2902 27.3497C29.3812 27.6227 29.4572 28.1667 28.9622 28.3247C28.9622 28.3247 28.3662 28.3967 28.2592 28.3907C28.2592 28.3907 28.2192 28.1457 28.0862 28.1087C27.9552 28.0767 27.8202 28.0687 27.6792 28.1667C27.5402 28.2657 27.0642 28.5597 26.9272 28.6077C26.7892 28.6497 26.5442 28.6907 26.5142 28.7707C26.4812 28.8497 26.3842 29.0327 25.8882 29.2967C25.8842 29.2997 24.0522 29.7147 24.0432 29.7167M22.7732 33.7577C24.1392 33.5777 24.4022 31.8837 24.4372 31.3477C24.4422 31.2737 24.3142 30.8157 24.3142 30.8157C24.3142 30.8157 24.2012 30.2977 24.0852 29.8457C24.0152 29.5737 22.6252 27.6227 22.6252 27.6227M20.6262 35.0417C20.6262 35.0417 21.1942 36.2037 21.2512 36.6137C21.2862 36.8597 21.6022 37.8817 21.8602 38.6877C22.0272 39.2067 22.1692 39.6367 22.1972 39.7117C22.2532 39.8697 22.6012 40.2797 22.4732 40.9397C22.4642 40.9827 22.4542 41.0267 22.4412 41.0717C22.4112 41.1797 22.3682 41.2947 22.3092 41.4137C21.8492 42.3597 21.7332 43.3997 19.3432 43.3117L18.7602 43.2577M20.3432 26.6247C20.3432 26.6247 21.7892 26.9987 22.4152 27.4357C22.4252 27.4427 22.4342 27.4487 22.4442 27.4567C22.5192 27.5107 22.5812 27.5677 22.6252 27.6227M10.9132 38.8727C10.9132 38.8727 10.6852 39.0757 10.6692 39.3427C10.6532 39.6127 10.6492 40.1227 10.4332 40.5957C10.2172 41.0657 9.77518 42.1447 9.81418 42.3887C9.85318 42.6347 10.4362 43.6427 10.4422 43.6937C10.4492 43.7467 10.6122 43.9097 10.6402 43.9187C10.6712 43.9297 10.9202 43.9657 10.9722 43.9577C11.0222 43.9517 11.2022 43.9827 11.2632 43.9657C11.3252 43.9517 11.4902 43.9077 11.4952 43.8277C11.4992 43.7477 11.4852 43.6357 11.5472 43.6107C11.6092 43.5837 11.9142 43.2177 11.8052 43.1797C11.6972 43.1447 11.5082 43.0807 11.4112 43.0457C11.3112 43.0087 11.1802 43.0127 11.1272 42.8877C11.0732 42.7627 11.0172 42.6877 11.0652 42.5617C11.1132 42.4307 11.2622 42.3117 11.3572 42.2457C11.4522 42.1797 12.5902 41.3777 12.7702 41.4097C12.9502 41.4437 13.3882 41.5397 13.5702 41.7107C13.7512 41.8837 15.3082 43.1887 15.6422 43.3407C15.9772 43.4917 17.3302 44.3117 18.0042 44.3787C18.6752 44.4517 19.8602 44.7037 20.3682 44.8447C20.8742 44.9857 21.9722 45.1947 22.4492 44.6457C22.9262 44.0987 23.1412 44.0627 23.1712 43.7197C23.2002 43.3787 23.3712 42.3997 23.0872 41.9177C22.8022 41.4367 22.5312 41.0977 22.5312 41.0977M10.3312 36.4417C10.3312 36.4417 9.98618 37.9177 10.9562 38.8207C10.9762 38.8407 10.9982 38.8607 11.0202 38.8787C12.0702 39.7767 12.9782 40.8007 14.2082 41.3857C15.4382 41.9747 18.1462 43.0487 18.4372 43.1497C18.4972 43.1697 18.6112 43.2127 18.7552 43.2707C19.2972 43.4887 20.2652 43.9147 20.4282 44.0737M9.87318 35.1227C9.87318 35.1227 9.95918 35.9367 10.2592 36.3037C10.2862 36.3377 10.3202 36.3737 10.3592 36.4137C10.7552 36.8067 11.7392 37.4417 12.9332 37.5127C14.2432 37.5917 15.6292 37.7827 16.4022 37.0547L16.4022 37.0537C16.4042 37.0527 16.4062 37.0507 16.4072 37.0497M13.6112 30.6887C13.6112 30.6887 13.7252 30.8127 13.9082 31.0077C14.5012 31.6327 15.8242 32.9967 16.4382 33.3617M16.4022 37.0547C16.4742 37.9307 16.6202 38.6837 16.9642 38.9667C16.9642 38.9667 17.3782 39.3157 17.4252 39.3577C17.4742 39.4027 17.8432 39.6357 17.8782 39.7197C17.9142 39.7997 18.0192 40.0787 17.9652 40.1357C17.9102 40.1937 17.6912 40.3127 17.6682 40.3537C17.6472 40.3907 17.5722 40.6087 17.7202 40.6887C17.7202 40.6887 17.7862 40.7417 17.8632 40.6447C17.9402 40.5507 18.0532 40.5137 18.1242 40.5007C18.1962 40.4837 18.5682 40.3257 18.5782 40.1637C18.5872 40.0097 18.5952 39.8847 18.5962 39.8727M18.5962 39.8727L18.5962 39.8727L19.2142 41.1617C19.2142 41.1617 19.4012 41.2527 19.4552 41.2047C19.5082 41.1577 19.5822 41.1027 19.5472 41.0107C19.5132 40.9167 19.4042 40.5367 19.4042 40.5367L19.2452 39.9907L19.1132 39.6617L18.9892 39.2877M18.9882 39.2867L18.9892 39.2877L19.6022 40.1047L19.9232 40.6467C19.9232 40.6467 20.0832 40.8307 20.1872 40.7847C20.2902 40.7427 20.4132 40.6877 20.3282 40.4707C20.2392 40.2537 20.0532 39.8187 20.0532 39.8187C20.0532 39.8187 19.7822 39.2877 19.5312 39.0907L20.0942 39.3057L20.8622 39.7957C20.8622 39.7957 20.9842 39.7827 21.0282 39.7257C21.0712 39.6667 21.0172 39.5617 20.9612 39.4987C20.9042 39.4357 20.3302 38.7257 20.3302 38.7257C20.3302 38.7257 20.0792 38.5367 19.9512 38.4807C19.9512 38.4807 19.8262 38.3817 19.8002 38.3077C19.7752 38.2377 19.4582 37.9447 19.4002 37.8917C19.3432 37.8377 18.8472 37.5247 18.6782 37.4847C18.5092 37.4447 18.0582 37.3877 18.0942 37.1267C18.1312 36.8677 18.6712 35.5877 18.6712 35.5877L19.0622 34.7917C19.0622 34.7917 19.1282 34.6647 19.2192 34.4797C19.4042 34.1027 19.6882 33.4867 19.7032 33.2337C19.7032 33.2337 20.6532 33.1047 20.6812 32.6477C20.7082 32.1927 21.0452 31.5127 18.3062 30.5117C18.3062 30.5117 17.4932 31.0567 17.0922 31.8927C16.8912 32.3147 16.6852 32.8127 16.5362 33.3877C16.3892 33.9547 16.2982 34.5977 16.3212 35.3197C16.3392 35.8877 16.3552 36.4957 16.4022 37.0537M11.6302 33.1827C11.6302 33.1827 10.7512 32.5917 10.6162 32.5837C10.5522 32.5797 10.3192 32.5407 10.0632 32.5057C9.78918 32.4677 9.48718 32.4347 9.33318 32.4537C9.03418 32.4887 8.08618 33.0227 8.02618 33.5847C7.96518 34.1477 7.52618 35.6557 8.92618 35.6297C8.92618 35.6297 9.45918 35.3337 9.71018 35.1047C9.74618 35.0717 9.77618 35.0407 9.79718 35.0117C9.97418 34.7797 11.0052 34.1927 11.1932 34.2047C11.3032 34.2117 11.7642 34.2007 12.1582 34.2387C12.4302 34.2657 12.6702 34.3147 12.7422 34.4067C12.9172 34.6317 13.0332 35.3937 13.1352 35.4797C13.2382 35.5667 14.0582 36.2347 14.0582 36.2347M13.8872 31.0277C13.8872 31.0277 13.3812 31.2727 12.9332 31.5657C12.7082 31.7117 12.4992 31.8697 12.3742 32.0157C12.0452 32.3947 11.7742 32.8207 11.6962 33.1917C11.6852 33.2447 11.6782 33.2967 11.6752 33.3477C11.6502 33.7477 12.0072 34.0917 12.1612 34.2107M16.7032 28.0727L15.4312 28.6167C15.4312 28.6167 14.1192 28.9427 13.7932 28.9797C13.4692 29.0117 12.2142 29.2877 12.2512 30.0177C12.2882 30.7447 12.1642 31.0047 12.4222 31.2087C12.6792 31.4147 12.9142 31.5357 12.9142 31.5357M20.8312 17.8617C20.8312 17.8617 21.6292 18.4287 21.7042 18.7077M18.0262 18.9317C18.0262 18.9317 17.8822 19.4647 18.0382 19.7127C18.0382 19.7127 18.4492 20.8637 19.6892 20.9567C19.8062 20.9667 20.9462 21.0097 20.9462 21.0097M23.1492 15.3637L23.4102 15.6477M18.4112 12.3827C18.2952 12.0767 18.6112 11.7917 18.7502 11.7107C18.7722 11.6987 18.9792 11.6537 18.9792 11.6537C18.9762 11.6327 18.9742 11.6207 18.9722 11.6027C18.9432 11.1657 20.2852 10.9507 20.2852 10.9507C20.3242 10.0917 22.3742 10.4567 22.3742 10.4567C23.3402 10.2997 24.3192 11.0307 24.3192 11.0307C25.0802 10.8857 25.4842 11.8017 25.4842 11.8017C26.2112 12.0187 25.8942 13.0627 25.8742 13.1577C25.8562 13.2487 25.8582 13.4237 25.4772 13.4827C25.3542 13.5007 25.2122 13.4607 25.0672 13.3957C24.7652 13.2597 24.7222 13.3247 24.2852 13.0477L23.7382 12.6367C23.7382 12.6367 23.7782 13.0707 23.5942 13.2497C23.4082 13.4267 23.3412 13.4227 23.2192 13.4157C23.0992 13.4087 22.8282 13.6737 22.6602 13.7737C22.4922 13.8707 22.2212 14.1597 21.8012 14.1777C21.8012 14.1777 21.0112 14.3467 20.7892 14.2237C20.5672 14.1037 20.0642 14.3307 19.9952 14.1377C19.9502 14.0147 19.8162 13.8297 19.5802 13.6797M19.2992 16.0647L21.2542 15.5577L21.3652 15.6177L22.1342 16.0357C22.1342 16.0357 22.6422 16.3077 22.8262 16.2787C23.0092 16.2497 23.0152 16.1477 23.0202 16.0677C23.0252 15.9887 23.1542 15.8527 23.2162 15.8377C23.2772 15.8217 23.4102 15.6477 23.4102 15.6477C23.4102 15.6477 23.6512 15.6407 23.7362 15.5867C23.8162 15.5347 23.9382 15.3907 23.9502 15.3767M23.9502 15.3767C23.9502 15.3767 24.2522 15.7167 24.3402 15.2797C24.4272 14.8407 24.8252 13.9147 24.8972 13.7167C24.9712 13.5207 25.0482 13.4387 25.0482 13.4387M21.3502 15.6447C21.3502 15.6447 21.4402 16.3677 21.0392 16.8517C20.9742 16.9307 20.8952 17.0037 20.8012 17.0647L20.1282 17.5117M16.9442 19.4387L17.9682 18.9247L18.7752 18.5197C18.7752 18.5197 19.9762 18.1017 20.6352 17.8087C20.8732 17.7037 21.0402 17.6137 21.0542 17.5667C21.1032 17.3877 21.0952 16.8817 21.0952 16.8817M14.4822 17.0497C13.8212 17.2937 13.1352 16.6057 12.4982 15.8017C11.8592 14.9947 12.3462 14.2957 13.2522 13.3017C14.0592 12.4187 16.5102 12.1687 17.0532 12.1277M14.1492 19.8977L12.9612 19.5037C12.7632 19.4497 11.6202 18.9797 11.3782 18.9647C11.1382 18.9507 10.5472 18.7157 10.2752 18.5387C10.0022 18.3567 9.44718 17.5177 9.45918 17.3147C9.46918 17.1497 9.55018 16.2357 9.66818 15.5597C9.69418 15.4077 9.72218 15.2677 9.75118 15.1507C9.90918 14.5157 10.4482 14.3057 10.8242 14.0857C11.2012 13.8647 11.6132 13.0427 12.0312 12.7837C12.4522 12.5267 13.5542 12.3117 14.4142 12.1197C15.2722 11.9297 16.9182 12.1087 16.9182 12.1087C16.9182 12.1087 16.9682 12.1057 17.0542 12.1077C17.3002 12.1147 17.8422 12.1627 18.3852 12.4337C18.5322 12.5067 18.6792 12.5957 18.8202 12.7047C19.1242 12.9417 19.3432 13.2187 19.4872 13.5137C19.7452 14.0417 19.7632 14.6277 19.6032 15.1367C19.5032 15.4577 19.3432 15.7567 19.1692 16.0067C18.9152 16.3727 18.6322 16.6377 18.4582 16.7237C18.1672 16.8677 17.8812 16.9317 17.7342 17.3677C17.5882 17.8017 17.3652 18.7977 16.8972 19.2147C16.8972 19.2147 16.8232 19.2357 16.8712 19.4367C16.8862 19.4947 16.9102 19.5687 16.9502 19.6627C17.1272 20.0767 17.7052 21.2007 17.6952 22.0497C17.6842 22.8977 17.8382 23.7127 18.0412 24.3707C18.2442 25.0297 18.6402 25.8207 18.8012 25.8307C18.9622 25.8407 19.2792 25.9387 19.3932 26.0697C19.5062 26.1967 19.9402 26.3827 20.0582 26.4317C20.1302 26.4597 20.3012 26.5387 20.3352 26.6267C20.3572 26.6847 20.3212 26.7467 20.1582 26.8017C19.7452 26.9387 19.3882 26.8357 19.3882 26.8357C19.3882 26.8357 19.1732 26.7127 19.1012 26.7167C19.0312 26.7217 18.9342 26.8187 18.8712 26.8537C18.8142 26.8887 18.5732 26.9547 18.4822 27.0717C18.4822 27.0727 18.4822 27.0727 18.4822 27.0737C18.4742 27.0827 18.4672 27.0927 18.4622 27.1027M18.4852 27.0657C18.4852 27.0657 18.4842 27.0677 18.4822 27.0717M18.4822 27.0737C18.4632 27.1227 18.3622 27.3887 18.3382 27.4797C18.3122 27.5787 18.2522 27.9187 18.2432 28.0577C18.2352 28.1997 18.2452 28.3837 18.1402 28.4367C18.1402 28.4367 17.8862 28.6227 17.7452 28.6357C17.6022 28.6457 17.3592 28.6717 17.2242 28.5637C17.0902 28.4537 16.9392 28.2627 16.8052 28.1567C16.7772 28.1327 16.7462 28.1007 16.7172 28.0617C16.6042 27.9137 16.5002 27.6587 16.5522 27.3107C16.6192 26.8697 16.8822 26.5247 16.8882 26.4217C16.8942 26.3217 16.4062 25.0397 16.4062 25.0397C16.4062 25.0397 15.6582 24.0277 15.5332 23.7767C15.4382 23.5917 15.0132 23.1267 14.7292 22.0457C14.6322 21.6767 14.5512 21.2347 14.5052 20.7077C14.5052 20.7077 14.4002 20.4017 14.4252 19.8357C14.4302 19.7137 14.4422 19.5787 14.4612 19.4327C14.5692 18.6107 14.5342 17.5387 14.5462 17.3367C14.5492 17.2887 14.5592 17.1907 14.5742 17.0607C14.6242 16.6607 14.7372 15.9607 14.9192 15.4817C15.1592 14.8497 16.0792 13.3107 16.0792 13.3107M14.3552 19.8317C14.3552 19.8317 14.2952 19.8757 14.1902 19.9517C13.9212 20.1457 13.3582 20.5457 12.7542 20.9447C11.9142 21.5007 11.1922 20.7307 10.7672 20.4217C10.3402 20.1157 9.43518 20.4217 8.62018 20.5367C8.14418 20.6017 7.73118 20.3137 7.43218 20.0277C7.21818 19.8237 7.06218 19.6227 6.98218 19.5507C6.79018 19.3777 6.63618 18.6007 6.84818 18.4107C7.06218 18.2207 7.67218 17.4907 7.67218 17.4907C8.62318 15.7717 9.60518 15.5487 9.60518 15.5487M7.43918 20.0217C7.43918 20.0217 7.43618 20.0237 7.43218 20.0277C7.36518 20.0837 6.88418 20.5407 7.63318 21.6827M10.5822 22.2757C10.5822 22.2757 9.75618 23.1297 9.75618 24.4827C9.75718 25.8327 10.1402 27.8347 10.1332 28.2997C10.1282 28.5857 10.0122 29.2877 9.86318 29.9757C9.77118 30.4017 9.54218 31.3537 9.95318 32.3797M8.93018 22.0897C8.93018 22.0897 7.71318 22.9267 7.73318 24.9487C7.75218 26.8297 8.03018 29.4147 7.25018 30.8127C7.19218 30.9167 7.12918 31.0167 7.06018 31.1137C7.06018 31.1137 6.45918 31.8207 6.96318 31.8507C7.46618 31.8807 7.76318 31.8407 8.00918 32.1187C8.11218 32.2357 8.22918 32.3497 8.34718 32.4107C8.34718 32.4107 8.85818 32.5277 9.41618 32.4447" fill="none" opacity="1" stroke="#231f20" stroke-linecap="round" stroke-linejoin="round" stroke-width="0.263"/>
<path d="M38.6603 36.4313C38.6603 36.4313 37.4273 37.4153 39.2643 37.9643" fill="none" opacity="1" stroke="#231f20" stroke-linecap="round" stroke-linejoin="round" stroke-width="0.238"/>
<path d="M48.547 25.0851C48.547 25.0851 48.874 26.7811 48.547 28.6451C48.22 30.5091 48.914 36.0611 48.767 37.1651" fill="none" opacity="1" stroke="#231f20" stroke-linecap="round" stroke-linejoin="round" stroke-width="0.263"/>
<path d="M44.604 20.2315L45.657 19.1785" fill="none" opacity="1" stroke="#231f20" stroke-linecap="round" stroke-linejoin="round" stroke-width="0.263"/>
<path d="M40.1221 27.4506C40.1221 27.4506 40.0731 28.2766 40.2121 29.4636M43.1901 35.4056C44.6091 37.0076 46.1731 38.6286 46.1731 38.6286M38.4411 24.7766L40.8341 24.6566C40.8341 24.6566 41.3541 24.5926 41.6911 24.3836M38.0831 23.7716C38.0831 23.7716 37.9411 24.6476 37.7351 25.1896M28.7501 19.1876C29.1421 18.9916 29.2021 18.7416 29.2021 18.7416C29.2021 18.7416 28.6301 18.3336 28.2941 18.1926C27.9581 18.0526 28.2971 17.7866 28.2971 17.7866M38.1021 20.2716C38.1021 20.2716 39.8281 19.9256 39.9051 21.7826M18.3071 30.5096C18.3071 30.5096 18.8541 29.8446 20.1111 29.8446C20.1111 29.8446 20.6491 29.8196 21.0811 29.8196M24.1221 32.6866C23.9891 33.1926 23.9851 33.7776 23.5881 34.8256C23.5881 34.8256 23.3831 35.3756 23.1471 35.8596C22.9761 36.4536 21.5781 37.6666 21.5781 37.6666M26.5681 23.0616C26.5681 23.0616 28.7251 23.5486 29.1971 22.0076M15.1901 23.3226C15.1901 23.3226 15.0741 24.3096 15.3651 25.7036C15.6551 27.0976 16.0611 28.3756 16.0611 28.3756M21.7041 28.6206C21.7041 28.6206 23.9251 29.4916 24.2611 30.5466M29.7951 27.5826C29.7951 27.5826 30.7431 24.6576 31.3361 24.4196" fill="none" opacity="1" stroke="#231f20" stroke-linecap="round" stroke-linejoin="round" stroke-width="0.263"/>
<path d="M24.5381 30.24L24.2841 30.454" fill="none" opacity="1" stroke="#231f20" stroke-linecap="round" stroke-linejoin="round" stroke-width="0.263"/>
</g>
</svg>
