<?xml version="1.0" encoding="UTF-8" standalone="no"?>
<!DOCTYPE svg PUBLIC "-//W3C//DTD SVG 1.1//EN" "http://www.w3.org/Graphics/SVG/1.1/DTD/svg11.dtd">
<!-- Created with Vectornator (http://vectornator.io/) -->
<svg height="100%" stroke-miterlimit="10" style="fill-rule:nonzero;clip-rule:evenodd;stroke-linecap:round;stroke-linejoin:round;" version="1.1" viewBox="0 0 126.129 93.67" width="100%" xml:space="preserve" xmlns="http://www.w3.org/2000/svg" xmlns:xlink="http://www.w3.org/1999/xlink">
<defs/>
<g id="Livello-1">
<g opacity="1">
<path d="M89.8481 30.7674C88.9661 45.4874 76.3151 56.7064 61.5931 55.8244C46.8701 54.9414 35.6501 42.2924 36.5331 27.5734C37.4151 12.8504 50.0651 1.63339 64.7881 2.51538C79.3361 3.38739 90.4641 15.7474 89.8741 30.2444" fill="#ffffff" fill-rule="nonzero" opacity="1" stroke="none"/>
<path d="M90.9741 29.9111L88.5011 29.8261M90.9861 28.6041L88.5121 28.6431M90.9371 27.2991L88.4681 27.4611M90.8291 26.0121L88.3681 26.2661M90.6591 24.7171L88.2141 25.0931M90.4291 23.4321L88.0051 23.9281M90.1391 22.1591L87.7421 22.7731M89.7891 20.9021L87.4251 21.6321M89.3851 19.6771L87.0491 20.4931M88.9191 18.4581L86.6261 19.3861M88.3971 17.2631L86.1501 18.3001M87.8201 16.0941L85.6251 17.2371M87.1881 14.9531L85.0511 16.1991M86.5051 13.8431L84.4291 15.1901M85.7711 12.7661L83.7611 14.2091M84.9871 11.7251L83.0481 13.2611M84.1561 10.7211L82.2911 12.3471M83.2801 9.75707L81.4941 11.4691M82.3601 8.83407L80.6561 10.6281M81.3981 7.95507L79.7811 9.82707M80.4071 7.13007L78.8581 9.05907M79.3681 6.34407L77.9111 8.34407M78.2921 5.60607L76.9331 7.67407M77.1841 4.92007L75.9251 7.05007M76.0441 4.28607L74.8891 6.47407M74.8751 3.70607L73.8281 5.94707M73.6801 3.18107L72.7431 5.47107M72.4621 2.71307L71.6381 5.04607M71.2221 2.30207L70.5141 4.67307M69.9791 1.95507L69.3591 4.35007M68.7061 1.66207L68.2061 4.08507M67.4211 1.42907L67.0421 3.87407M66.1411 1.25707L65.8541 3.71507M64.8391 1.14407L64.6761 3.61307M63.5331 1.09007L63.4941 3.56407M62.2411 1.09607L62.2971 3.57007M60.9361 1.16307L61.1161 3.63107M59.6351 1.29107L59.9391 3.74607M58.3421 1.47907L58.7681 3.91607M57.0741 1.72507L57.5921 4.14407M55.8051 2.03307L56.4421 4.42407M54.5521 2.40107L55.3061 4.75807M53.3181 2.82707L54.1861 5.14407M52.1061 3.31007L53.0861 5.58207M50.9311 3.84307L51.9931 6.07807M49.7691 4.43707L50.9381 6.61807M48.6371 5.08407L49.9101 7.20607M47.5361 5.78307L48.9091 7.84207M46.4691 6.53307L47.9391 8.52307M45.4381 7.33107L47.0011 9.24907M44.4451 8.17607L46.0981 10.0171M43.4921 9.06607L45.2311 10.8261M42.5921 9.98807L44.3921 11.6861M41.7251 10.9631L43.6051 12.5721M40.9051 11.9771L42.8601 13.4941M40.1331 13.0281L42.1581 14.4491M39.4101 14.1141L41.5021 15.4361M38.7381 15.2331L40.8921 16.4521M38.1201 16.3821L40.3311 17.4941M37.5621 17.5461L39.8121 18.5761M37.0541 18.7491L39.3521 19.6671M36.6031 19.9751L38.9441 20.7771M36.2101 21.2211L38.5871 21.9051M35.8751 22.4841L38.2841 23.0491M35.6031 23.7461L38.0321 24.2201M35.3881 25.0361L37.8381 25.3861M35.2331 26.3341L37.6971 26.5601M35.1391 27.6221L37.6091 27.7551M35.1031 28.9291L37.5771 28.9361M35.1271 30.2371L37.5991 30.1191M35.2121 31.5251L37.6771 31.3141M35.3581 32.8241L37.8091 32.4891M35.5641 34.1141L37.9961 33.6571M35.8281 35.3781L38.2411 34.8311M36.1551 36.6431L38.5371 35.9761M36.5401 37.8901L38.8871 37.1071M36.9841 39.1181L39.2901 38.2211M37.4841 40.3231L39.7441 39.3151M38.0401 41.5041L40.2481 40.3871M38.6511 42.6561L40.8031 41.4351M39.3071 43.7661L41.4131 42.4681M40.0221 44.8571L42.0631 43.4601M40.7861 45.9141L42.7591 44.4201M41.5991 46.9331L43.4981 45.3471M42.4571 47.9141L44.2791 46.2391M43.3611 48.8541L45.1001 47.0941M44.3071 49.7511L45.9611 47.9111M45.2941 50.6041L46.8571 48.6861M46.3081 51.4001L47.8011 49.4281M47.3701 52.1581L48.7661 50.1151M48.4661 52.8651L49.7621 50.7571M49.5951 53.5201L50.7871 51.3521M50.7531 54.1221L51.8381 51.8991M51.9381 54.6701L52.9121 52.3951M53.1341 55.1551L54.0231 52.8461M54.3661 55.5891L55.1401 53.2381M55.6181 55.9641L56.2731 53.5781M56.8861 56.2811L57.4201 53.8651M58.1521 56.5351L58.5951 54.1001M59.4451 56.7321L59.7641 54.2781M60.7451 56.8691L60.9401 54.4021M62.0341 56.9461L62.1351 54.4741M63.3421 56.9631L63.3171 54.4891M64.6481 56.9211L64.4991 54.4511M65.9361 56.8181L65.6931 54.3561M67.2321 56.6541L66.8671 54.2071M68.5191 56.4291L68.0321 54.0031M69.7941 56.1441L69.1871 53.7451M71.0391 55.8041L70.3441 53.4291M72.2811 55.4011L71.4701 53.0631M73.5021 54.9401L72.5781 52.6451M74.7011 54.4231L73.6651 52.1761M75.8731 53.8511L74.7301 51.6561M77.0171 53.2241L75.7701 51.0871M78.1301 52.5451L76.7821 50.4701M79.1991 51.8241L77.7771 49.7981M80.2451 51.0451L78.7281 49.0901M81.2531 50.2181L79.6451 48.3381M82.2221 49.3461L80.5261 47.5441M83.1491 48.4291L81.3691 46.7111M84.0331 47.4711L82.1731 45.8391M84.8721 46.4721L82.9361 44.9321M85.6641 45.4361L83.6561 43.9901M86.3981 44.3761L84.3391 43.0031M87.0901 43.2691L84.9671 41.9991M87.7301 42.1321L85.5471 40.9661M88.3151 40.9651L86.0781 39.9081M88.8461 39.7721L86.5591 38.8261M89.3201 38.5551L86.9891 37.7231M89.7311 37.3311L87.3711 36.5871M90.0891 36.0751L87.6951 35.4491M90.3881 34.8021L87.9651 34.2981M90.6271 33.5171L88.1821 33.1361M90.8031 32.2371L88.3461 31.9491M90.9151 31.0771L88.4461 30.9141" fill="none" opacity="1" stroke="#231f20" stroke-linecap="butt" stroke-linejoin="miter" stroke-width="0.463"/>
<path d="M58.7136 29.9391C58.7226 29.8931 58.9726 30.0871 59.0096 30.0181L59.6596 30.8861C59.6596 30.8861 60.6746 31.4591 60.8416 31.3621C61.0096 31.2611 61.1586 31.0031 61.2676 30.9821C61.3756 30.9611 61.5196 30.8101 61.6566 30.7911C61.7916 30.7721 61.9446 30.4581 61.9446 30.4581C61.9446 30.4581 62.3956 30.5651 62.4116 30.2951C62.4276 30.0281 62.4416 29.3581 62.4416 29.3581C62.4416 29.3581 62.8036 29.1381 62.8886 28.6321C62.9956 28.6381 63.5906 28.5671 63.5906 28.5671C64.0856 28.4081 64.0096 27.8651 63.9186 27.5911C63.8286 27.3141 63.2556 26.9861 63.2556 26.9861C63.5226 26.5971 63.2116 26.3631 63.2116 26.3631C63.1116 26.0701 62.8496 25.9691 62.6426 25.9331L62.3876 25.8921L61.1726 25.2201L59.0686 25.1301L57.1386 27.6851L56.4806 27.3891L56.4806 25.6501L57.2946 23.3931L58.1696 22.5311L59.0686 23.2701L61.9776 23.3601C61.9776 23.3601 63.0416 23.4481 63.1816 23.2251C63.4496 22.7971 63.8206 22.2151 63.8206 22.2151L63.8526 22.2771C63.9486 22.3301 64.0066 22.3891 64.0066 22.3891C64.0066 22.3891 64.2726 22.4051 64.3496 22.4561C64.3236 22.4091 64.4286 22.2911 64.7456 22.0481C65.1046 21.7801 64.8176 21.5191 64.9046 21.2411C64.9926 20.9661 64.7346 20.7061 64.7346 20.7061L67.0466 21.4071L67.0906 21.4331C66.9466 21.6771 66.9306 22.0081 66.8056 22.0781C66.6196 22.1801 66.8576 22.6051 66.7946 22.8311C66.7316 23.0581 66.9526 23.2191 66.9526 23.2191L67.0636 23.2241C67.0506 23.4841 67.0636 23.7751 67.1126 24.0981C67.1126 24.0981 67.1816 24.6241 67.5076 25.0191L67.5066 25.0191L67.4346 25.0561C67.4346 25.0561 67.3026 25.4521 67.1616 25.5521C67.0226 25.6511 66.3506 26.5261 66.4776 27.0981C66.6056 27.6711 66.8956 28.6571 66.8956 28.6571L67.1716 28.6241L67.1806 28.7011C67.1806 28.7011 66.9696 29.3561 66.8286 29.4811C66.7336 29.5661 66.2996 29.8341 65.9136 30.9751L65.8896 30.9671C65.8896 30.9671 65.4606 30.6011 64.9036 31.1121C64.5166 31.4671 64.4366 31.5381 64.4236 31.5481C64.4236 31.5471 64.4236 31.5471 64.4246 31.5461L64.4226 31.5481L64.4216 31.5491C64.4206 31.5501 64.4206 31.5501 64.4216 31.5491C64.0416 32.0651 64.0676 32.0181 64.0156 32.1541C63.9726 32.2711 63.7936 33.0261 63.7966 33.1371C63.7996 33.2441 63.7736 33.4761 63.7166 33.5181C63.6596 33.5601 63.3386 33.7781 63.3036 33.7321C63.2696 33.6821 62.9946 33.2841 62.8696 33.2591C62.7446 33.2331 62.5456 33.2131 62.6266 33.3901C62.7066 33.5681 62.1306 33.4771 62.5286 33.8191L62.9246 34.1621C62.9246 34.1621 63.2866 34.4731 63.5106 34.5201C63.7346 34.5731 64.1096 34.5431 64.2906 34.2491L64.3456 34.2541C64.3096 34.4701 64.2646 34.6911 64.2216 34.7571C64.1336 34.8971 63.9766 35.3941 64.0346 35.4731C64.0346 35.4731 64.1896 35.9571 64.4396 35.6091L64.6906 35.2601L64.9556 34.8311L64.9756 34.8371C64.7706 35.5201 64.5486 36.2181 64.4296 36.4791C64.1666 37.0541 63.8156 37.5081 63.8096 37.9081C63.8056 38.2221 63.7386 38.6231 63.9186 38.9401L63.9176 38.9401L63.8856 38.9431C63.1056 38.4921 62.5816 39.1331 61.7576 39.4071C60.9356 39.6801 60.0466 39.7101 60.0466 39.7101L60.0376 39.6231C59.3166 39.5401 58.4176 38.5161 58.4176 38.5161L56.9986 37.1241C57.3956 35.1911 58.2576 35.0761 58.2576 35.0761L58.2196 35.0631C58.6166 34.0161 58.9156 32.2771 59.0476 31.7711C59.0476 31.7711 58.9496 31.2791 58.9876 31.0911" fill="#ffffff" fill-rule="nonzero" opacity="1" stroke="none"/>
<path d="M59.3574 25.0193C59.3574 25.0193 59.0214 25.1303 58.8864 25.2423C58.7524 25.3543 58.2144 25.7803 58.1024 25.8253C57.9904 25.8703 57.1384 26.6653 57.0714 26.7663C57.0044 26.8673 56.9594 27.2143 57.0044 27.3263C57.0494 27.4383 57.4524 28.4613 57.4754 28.5593C57.4974 28.6573 57.8564 28.7493 57.9004 28.8873C57.9454 29.0253 57.9874 29.2843 58.5284 29.5673L58.4214 30.4193L58.7134 30.1963C58.7134 30.1963 59.9624 30.2623 60.0974 30.0153C60.2314 29.7693 60.6694 29.3473 60.9994 29.1863C61.3294 29.0253 62.0914 28.5203 62.3154 28.4243C62.5394 28.3283 63.0104 28.6573 63.1674 28.6573C63.3234 28.6573 64.4224 28.4173 63.9514 27.7713C63.4804 27.1243 63.2344 26.8113 63.2794 26.6543C63.3234 26.4973 63.0634 25.9593 62.3874 25.8923C61.7114 25.8253 61.3964 25.3093 61.3964 25.3093L59.3574 25.0193Z" fill="#ffffff" fill-rule="nonzero" opacity="1" stroke="none"/>
<path d="M72.0638 20.4268C72.0638 20.4268 70.8928 19.9538 70.5848 19.8868C70.2758 19.8198 68.8918 20.1088 68.4558 20.3568C68.0188 20.6048 67.7828 20.7728 67.7158 20.9618C67.6488 21.1518 67.0348 21.3208 67.0348 21.4778C67.0348 21.6348 66.7968 22.1278 66.7748 22.2618C66.7528 22.3968 66.7528 23.0238 66.8648 23.1358C66.9768 23.2478 66.9368 23.8758 67.0348 24.0098C67.1338 24.1438 67.3578 24.9668 67.7828 25.2648C68.2088 25.5638 68.8008 25.7128 68.8858 25.8698C68.9708 26.0268 69.3968 26.9548 69.5988 26.8378C69.7998 26.7218 69.9568 26.4528 70.2258 26.5868C70.4948 26.7218 71.1448 26.8788 71.5478 26.4968C71.9518 26.1168 72.3718 25.2478 72.8448 25.0198C73.3188 24.7908 73.8558 24.3908 74.1028 23.7638C74.3488 23.1358 74.6628 22.0828 74.4838 21.4778C74.3038 20.8728 73.7298 20.6048 73.4678 20.6048C73.2068 20.6048 72.0638 20.4268 72.0638 20.4268" fill="#ffffff" fill-rule="nonzero" opacity="1" stroke="none"/>
<path d="M72.9065 37.2144C72.9065 37.2144 73.3445 30.1464 77.9805 24.6134L77.9895 24.5714C78.5595 24.6904 79.1405 24.6254 79.6865 24.2504L79.6715 24.2284C73.4465 22.5614 77.5105 18.4654 78.1495 17.8654L78.1835 17.7794C78.6275 17.9704 79.1225 17.5604 80.7555 18.4564C80.8855 18.5284 81.6235 18.0154 81.9235 18.0084C82.4135 17.9974 83.5755 19.1534 83.7385 19.4004C83.8265 19.5334 83.8875 20.0934 83.7225 20.4934C83.5585 20.8944 83.1675 21.1354 83.2455 21.3024C83.7095 22.2894 83.9935 23.2934 84.2035 25.0294C84.2035 25.0294 84.4755 26.5244 84.5605 28.2274C84.6235 29.4854 84.5005 30.8564 84.5295 31.8254C84.5805 33.5044 83.2535 36.5254 83.2535 38.3254C83.2535 38.8704 83.5325 41.2124 84.3435 41.4154C84.3435 41.4154 81.6285 41.7114 80.4715 41.6664C79.9815 41.6494 79.9255 41.6554 79.3825 41.6314C77.4995 41.5494 75.5615 41.4444 75.4435 41.3564L75.3615 41.3804C75.2745 40.9984 75.1555 40.2874 75.3505 39.8974C75.6265 39.3484 78.6405 35.1514 78.4365 32.1724L78.4135 32.1384L78.4125 32.1384C78.2555 32.2444 78.1105 32.3794 77.9885 32.5504C77.5245 33.2014 75.6175 34.7834 74.3545 35.7994C73.9345 36.1374 73.5845 36.4134 73.3845 36.5714C73.2765 36.6564 72.9065 37.2144 72.9065 37.2144" fill="#ffffff" fill-rule="nonzero" opacity="1" stroke="none"/>
<path d="M72.7935 42.4576C72.8575 42.2196 72.9725 42.0046 73.0325 41.8776C73.1245 41.6816 73.3305 40.9266 73.3265 40.6466C73.3235 40.3596 73.5395 39.7896 73.8455 39.0596C74.1515 38.3306 74.4015 35.8646 74.4015 35.8646L74.3545 35.7996C75.6175 34.7836 77.5245 33.2016 77.9885 32.5496C78.1105 32.3796 78.2555 32.2446 78.4125 32.1386L78.4135 32.1386L78.4365 32.1716C78.6405 35.1516 75.6255 39.3486 75.3505 39.8976C75.1545 40.2876 75.2745 40.9986 75.3615 41.3806C75.3975 41.5376 75.4265 41.6386 75.4265 41.6386C75.4265 41.6386 76.0235 42.4796 76.0275 42.7236C76.0345 42.9676 75.6715 43.2866 75.5435 43.3796C75.4185 43.4756 75.1295 43.5776 74.9825 43.6706C74.8355 43.7626 74.5955 43.7266 74.3945 43.7146C74.1945 43.7026 73.7985 43.5576 73.7985 43.5576C73.7985 43.5576 73.3695 43.6526 73.0895 43.6156C72.8085 43.5796 72.7875 43.2556 72.7505 42.8696C72.7365 42.7316 72.7575 42.5906 72.7935 42.4576" fill="#ffffff" fill-rule="nonzero" opacity="1" stroke="none"/>
<path d="M70.0403 19.7241C70.0403 19.7241 70.4673 19.1711 71.1253 18.8811C71.2823 18.8121 71.4523 18.7581 71.6333 18.7291C72.3693 18.2861 73.7393 17.6861 75.0313 17.6951C75.5613 17.6071 76.4413 17.5811 76.8963 17.6771L76.8933 17.8251L76.8963 17.8331C75.2753 18.5021 74.4383 21.1111 74.4323 21.2091L74.4153 21.2131C74.3053 20.7621 74.1363 20.7141 73.7393 20.6051C72.8363 20.3581 71.9293 20.4271 71.0673 20.0671L71.0553 20.0971C70.8273 20.0081 70.5823 19.8961 70.5183 19.8521C70.4593 19.8141 70.2503 19.8251 70.0503 19.8471L70.0403 19.7251L70.0403 19.7241Z" fill="#ffffff" fill-rule="nonzero" opacity="1" stroke="none"/>
<path d="M74.4321 21.2092C74.4381 21.1112 75.2751 18.5022 76.8961 17.8332C77.2201 17.6992 77.5761 17.6422 77.9631 17.6992C77.9631 17.6992 78.0451 17.7192 78.1841 17.7792L78.1491 17.8652C77.5111 18.4652 73.4471 22.5612 79.6711 24.2282L79.6871 24.2502C79.1411 24.6262 78.5591 24.6902 77.9891 24.5712C76.2021 24.2002 74.5451 22.0252 74.5451 22.0252L74.5271 22.0262C74.5151 21.7962 74.4851 21.5002 74.4151 21.2132L74.4321 21.2092Z" fill="#ffffff" fill-rule="nonzero" opacity="1" stroke="none"/>
<path d="M68.8859 32.1965C69.2639 31.4115 69.5089 30.6425 69.4509 30.0195L70.2759 28.2575L70.1329 28.1905C70.3799 28.0975 70.6819 27.9535 70.8509 27.7635C71.1669 27.4065 72.0639 25.9265 72.0639 25.9265L72.0579 25.9225C72.1429 25.8015 72.2279 25.6655 72.3149 25.5105C72.3149 25.5105 72.2339 25.3435 72.6689 24.9395L72.7579 24.8385L72.9069 24.7225L73.0049 24.6255C73.0049 24.6255 73.7729 24.7915 73.7379 25.0315C73.7039 25.2705 73.3399 26.6195 73.3029 26.9015C73.2659 27.1805 73.2309 27.4635 73.3689 27.8115C73.5099 28.1655 73.6999 29.0435 73.6769 29.4265C73.6539 29.8065 73.4729 30.8265 73.3359 31.4025C73.3109 31.5105 73.2899 31.5985 73.2729 31.6705L73.2389 31.6995C73.2389 31.6995 72.7079 31.6915 71.8259 31.7705L71.8259 31.7715C71.0789 31.8385 70.0809 31.9695 68.9419 32.2235L68.8859 32.1965Z" fill="#ffffff" fill-rule="nonzero" opacity="1" stroke="none"/>
<path d="M71.4285 37.9527C70.7285 36.1567 72.0305 34.5937 72.1755 34.2177C72.3185 33.8427 72.7355 33.2467 72.7355 33.2467L73.2005 31.9807L73.2735 31.6697C73.2895 31.5987 73.3105 31.5107 73.3355 31.4017C73.4725 30.8267 73.6535 29.8067 73.6765 29.4267C73.6995 29.0437 73.5095 28.1657 73.3695 27.8117C73.2305 27.4637 73.2665 27.1807 73.3035 26.9017C73.3405 26.6197 73.7035 25.2707 73.7375 25.0307C73.7725 24.7917 72.7355 24.9067 72.7355 24.9067L72.6685 24.7907L72.7465 24.6257L72.9065 24.1947C72.9765 24.1627 73.3855 23.9127 73.4685 23.8827C74.3575 23.5567 74.5335 22.4437 74.5335 22.4437C74.5335 22.4437 74.5405 22.2727 74.5275 22.0257L74.5445 22.0247C74.5445 22.0247 76.2025 24.2007 77.9895 24.5707L77.9805 24.6127C73.3445 30.1457 72.9065 37.2147 72.9065 37.2147C72.9065 37.2147 73.2765 36.6567 73.3845 36.5717C73.5845 36.4137 73.9345 36.1377 74.3545 35.7997L74.4015 35.8647C74.4015 35.8647 74.1515 38.3307 73.8455 39.0597C73.5395 39.7887 73.3235 40.3597 73.3265 40.6467C73.3305 40.9267 73.1245 41.6817 73.0325 41.8777C72.9725 42.0047 72.8575 42.2197 72.7935 42.4577L73.2285 41.1567C73.2285 41.1567 72.4215 41.4707 72.1755 40.4177L71.4285 37.9527Z" fill="#ffffff" fill-rule="nonzero" opacity="1" stroke="none"/>
<path d="M71.5207 44.4345L64.0277 46.6335L63.9997 45.9965L64.0007 45.9965L64.0287 45.5155L71.5557 43.3845L71.5207 44.4345Z" fill="#ffffff" fill-rule="nonzero" opacity="1" stroke="none"/>
<path d="M66.4777 27.0976C66.3507 26.5256 67.0227 25.6506 67.1617 25.5516C67.3027 25.4516 67.4347 25.0556 67.4347 25.0556L67.5067 25.0196L67.5077 25.0196C67.5987 25.1306 67.7097 25.2316 67.8447 25.3066L68.2837 25.6606C68.2837 25.6606 68.5597 25.7126 68.6247 25.7166C68.6907 25.7206 68.8817 25.7976 68.9697 25.9816C69.0567 26.1676 69.2607 26.9046 69.6777 26.7806L69.9727 26.5036C69.9727 26.5036 70.4057 26.6756 70.4867 26.7136C70.5577 26.7486 71.2447 27.0896 72.0587 25.9226L72.0637 25.9266C72.0637 25.9266 71.1667 27.4066 70.8507 27.7626C70.6817 27.9536 70.3797 28.0976 70.1327 28.1906C69.9157 28.2726 69.7407 28.3156 69.7407 28.3156L67.1717 28.6236L66.8957 28.6566C66.8957 28.6566 66.6047 27.6706 66.4777 27.0976" fill="#ffffff" fill-rule="nonzero" opacity="1" stroke="none"/>
<path d="M69.7175 16.41L69.7175 16.409C69.7735 16.366 69.8355 16.302 69.9005 16.218C70.0915 15.973 69.9635 15.402 69.9685 15.319C69.9735 15.239 70.0365 15.07 70.1785 14.957C70.3185 14.844 70.3205 14.4 70.3265 14.307C70.3315 14.213 70.4845 14.114 70.5715 14.012C70.6585 13.91 70.5135 13.416 70.4955 13.266C70.4805 13.138 70.5145 13.021 70.5665 12.879L70.6635 12.916C70.6635 12.916 72.4425 13.546 73.5675 15.414C73.5675 15.414 73.9835 16.138 73.9865 16.504C73.9875 16.625 73.9875 16.672 73.9875 16.68L73.9875 16.681L73.9575 16.723C74.6155 17.192 74.9435 17.616 74.9435 17.616L74.6585 17.695C73.3315 17.915 72.3695 18.286 71.6335 18.73C71.4525 18.758 71.2825 18.812 71.1255 18.881L71.1035 18.833C69.4255 17.643 69.7275 16.422 69.7275 16.422L69.7185 16.41L69.7175 16.41Z" fill="#ffffff" fill-rule="nonzero" opacity="1" stroke="none"/>
<path d="M68.3898 39.9553C67.7948 39.8803 67.8968 39.2363 67.8968 39.2363C67.8968 39.2363 68.1468 38.4593 68.1938 38.3343C68.2388 38.2113 68.2378 37.7843 68.2088 37.5443C68.1798 37.3023 68.4348 36.7073 68.6718 36.3703C68.9108 36.0373 68.8508 35.2063 68.8408 35.0073C68.8308 34.8103 68.8088 32.7083 68.8088 32.7083L68.7718 32.6883L68.7708 32.6883C68.8648 32.5173 68.9538 32.3463 69.0358 32.1753L69.0888 32.2003C70.1698 31.9593 71.1178 31.8353 71.8258 31.7713L71.8358 31.8873C71.6718 33.9823 71.1818 34.7083 71.1818 34.7083C71.1818 34.7083 70.1688 36.2563 70.0298 36.4523C69.8898 36.6493 69.9198 37.2143 69.9258 37.3533C69.9298 37.4943 69.8318 37.8203 69.8318 37.8203C69.7668 38.0593 69.9608 38.4403 70.1168 38.6423C70.2698 38.8433 70.5038 38.9833 70.5948 39.1943C70.6838 39.4033 70.4348 39.7203 70.1188 39.8813C69.8018 40.0403 68.9848 40.0303 68.3898 39.9553" fill="#ffffff" fill-rule="nonzero" opacity="1" stroke="none"/>
<path d="M65.1998 12.7196C65.2038 12.4396 65.5078 11.6236 65.5318 11.4766C65.5538 11.3286 65.7658 10.7096 65.9148 10.4506C65.9658 10.3606 66.0668 10.2336 66.1838 10.0996C66.4078 9.8436 66.6868 9.56558 66.7798 9.49158C66.9208 9.38059 67.8208 9.16458 67.8208 9.16458C67.8208 9.16458 68.8918 9.05359 69.4748 9.65259C69.4748 9.65259 70.1318 9.6796 70.3208 10.0926C70.5118 10.5116 70.8738 11.1916 70.8358 11.3886C70.7968 11.5896 70.6768 11.7966 70.6978 11.9066C70.7178 12.0176 70.6538 12.6446 70.5888 12.8156C70.5818 12.8376 70.5738 12.8586 70.5658 12.8796C70.5148 13.0206 70.4798 13.1386 70.4958 13.2666C70.5128 13.4166 70.6578 13.9096 70.5718 14.0116C70.4848 14.1136 70.3318 14.2126 70.3258 14.3066C70.3208 14.3996 70.3188 14.8436 70.1788 14.9566C70.0368 15.0696 69.9728 15.2396 69.9688 15.3196C69.9638 15.4016 70.0908 15.9726 69.9008 16.2176C69.8358 16.3016 69.7738 16.3656 69.7178 16.4096C69.6118 16.4946 69.5298 16.5076 69.4968 16.4616C69.4478 16.3956 69.3158 16.6476 69.3148 16.6286L69.2558 16.7936C69.2558 16.7936 69.2108 17.2006 69.1178 17.1656C69.0268 17.1336 68.8778 16.6946 68.8778 16.6946L69.0438 15.7226L69.1658 14.5206L69.1718 14.4646L70.1118 12.9326C70.1308 12.8276 70.0168 12.2696 69.9018 12.1676C69.7868 12.0676 69.4588 11.6976 69.4398 11.5616C69.4218 11.4266 69.3138 10.9766 69.3138 10.9766C69.3138 10.9766 68.6208 11.5396 68.4678 11.6256C68.3138 11.7116 67.8108 11.6126 67.6748 11.6046C67.5418 11.5966 67.2268 11.6846 67.1508 11.8416C67.0738 11.9976 66.8018 12.4816 66.7288 12.5846C66.6558 12.6876 66.5708 13.1916 66.5698 13.4356C66.5688 13.5596 66.5128 13.6636 66.4498 13.7586C66.3898 13.8466 66.3248 13.9286 66.2938 14.0116C66.2298 14.1806 66.3138 14.3466 66.3508 14.6196C66.3878 14.8906 66.3338 15.3436 66.2988 15.4776C66.2648 15.6096 66.0348 15.6106 65.9828 15.6076C65.9288 15.6046 65.6358 15.7746 65.6358 15.7746C65.6358 15.7746 65.6988 15.3996 65.7188 15.3066C65.7378 15.2136 65.4878 14.6756 65.4308 14.4966C65.3748 14.3186 65.1968 13.0046 65.1998 12.7196" fill="#ffffff" fill-rule="nonzero" opacity="1" stroke="none"/>
<path d="M64.5233 43.1445L64.2523 43.2085L64.5153 41.3215L64.5023 41.3205C64.5103 41.3045 64.6633 41.0465 64.7253 40.7685C64.7973 40.4475 65.0183 39.6485 65.2573 39.2785C65.4953 38.9065 65.9563 38.8705 65.9563 38.8705L66.0023 39.3565L66.4833 42.7665L66.3943 43.0125L65.4953 40.6815L64.5233 43.1445Z" fill="#ffffff" fill-rule="nonzero" opacity="1" stroke="none"/>
<path d="M66.5703 13.4358C66.5713 13.1918 66.6553 12.6878 66.7283 12.5848C66.8013 12.4818 67.0733 11.9978 67.1503 11.8418C67.2263 11.6848 67.5413 11.5968 67.6753 11.6048C67.8103 11.6128 68.3143 11.7118 68.4683 11.6258C68.6203 11.5398 69.3133 10.9758 69.3133 10.9758C69.3133 10.9758 69.4223 11.4258 69.4403 11.5618C69.4583 11.6978 69.7863 12.0678 69.9023 12.1678C70.0163 12.2698 70.1303 12.8278 70.1113 12.9328L69.1713 14.4648L69.1663 14.5198L69.1163 14.5148C68.3543 15.0888 67.4283 15.0598 67.4283 15.0598C66.8313 14.9038 66.5103 13.7688 66.5103 13.7688L66.4503 13.7588L66.4493 13.7588C66.5133 13.6628 66.5693 13.5598 66.5703 13.4358" fill="#ffffff" fill-rule="nonzero" opacity="1" stroke="none"/>
<path d="M60.0204 44.1976L64.2514 43.2076L64.5234 43.1446L66.0644 42.7846L66.3194 42.7246L67.2504 42.5076L71.5564 43.3846L64.0294 45.5156L60.0204 44.1976Z" fill="#ffffff" fill-rule="nonzero" opacity="1" stroke="none"/>
<path d="M63.8097 37.9086C63.8147 37.5086 64.1667 37.0536 64.4297 36.4796C64.5487 36.2176 64.7707 35.5196 64.9747 34.8366C65.2197 34.0216 65.4437 33.2276 65.4437 33.2276C65.5627 32.2366 65.7327 31.5106 65.9137 30.9756C66.2997 29.8336 66.7337 29.5666 66.8287 29.4806C66.9697 29.3556 67.1807 28.7016 67.1807 28.7016L67.1717 28.6236L69.7407 28.3156C69.7407 28.3156 69.9157 28.2726 70.1327 28.1906L70.2757 28.2576L69.4517 30.0196C69.5087 30.6426 69.2637 31.4116 68.8857 32.1966C68.7997 32.3766 68.7057 32.5576 68.6067 32.7366C67.6787 34.4336 66.3157 36.0556 66.2517 36.2576C66.1517 36.5766 66.1107 36.8156 66.3687 37.9056C66.5227 38.5616 66.2797 39.0576 66.0607 39.3506L66.0017 39.3566L65.9567 38.8706C65.9567 38.8706 65.4957 38.9066 65.2567 39.2786C65.0187 39.6486 64.7967 40.4476 64.7257 40.7686C64.6637 41.0466 64.5107 41.3046 64.5017 41.3206L64.5007 41.3216C64.2117 41.3296 64.2387 40.9236 64.2387 40.9236L64.1337 39.1836C64.0377 39.1116 63.9687 39.0296 63.9187 38.9406C63.7377 38.6226 63.8057 38.2216 63.8097 37.9086" fill="#ffffff" fill-rule="nonzero" opacity="1" stroke="none"/>
<path d="M64.4232 31.5482L64.4222 31.5482L64.4242 31.5462C64.4242 31.5472 64.4232 31.5472 64.4232 31.5482" fill="#85b5d7" fill-rule="nonzero" opacity="1" stroke="none"/>
<path d="M64.4224 31.548C64.4224 31.549 64.4214 31.549 64.4214 31.549L64.4224 31.548Z" fill="#85b5d7" fill-rule="nonzero" opacity="1" stroke="none"/>
<path d="M62.5287 33.8191C62.1307 33.4771 62.7067 33.5681 62.6267 33.3901C62.5457 33.2131 62.7447 33.2331 62.8697 33.2591C62.9937 33.2841 63.2697 33.6821 63.3037 33.7321C63.3387 33.7781 63.6597 33.5601 63.7167 33.5181C63.7737 33.4761 63.7997 33.2441 63.7967 33.1371C63.7937 33.0261 63.9727 32.2711 64.0147 32.1541C64.0677 32.0181 64.0417 32.0651 64.4217 31.5491C64.4217 31.5491 64.4227 31.5491 64.4227 31.5481L64.4237 31.5481C64.4367 31.5381 64.5167 31.4671 64.9037 31.1121C65.4607 30.6011 65.8897 30.9671 65.8897 30.9671L65.9137 30.9751C65.7327 31.5101 65.5627 32.2371 65.4437 33.2271C65.4437 33.2271 65.2207 34.0211 64.9757 34.8371L64.9557 34.8311L64.6907 35.2601L64.4397 35.6091C64.1887 35.9571 64.0347 35.4731 64.0347 35.4731C63.9767 35.3941 64.1337 34.8971 64.2217 34.7571C64.2647 34.6911 64.3097 34.4701 64.3457 34.2541L64.2907 34.2501C64.1097 34.5431 63.7347 34.5731 63.5107 34.5201C63.2867 34.4731 62.9247 34.1621 62.9247 34.1621L62.5287 33.8191Z" fill="#ffffff" fill-rule="nonzero" opacity="1" stroke="none"/>
<path d="M64.4216 31.5494C64.4206 31.5504 64.4206 31.5504 64.4216 31.5484L64.4216 31.5494Z" fill="#85b5d7" fill-rule="nonzero" opacity="1" stroke="none"/>
<path d="M64.7349 20.7065C64.7349 20.7065 64.7789 20.4885 64.7849 20.3885C64.7909 20.2875 64.5109 20.0675 64.4719 20.0465C64.4329 20.0245 64.5029 19.8885 64.4289 19.7505C64.3569 19.6175 64.2869 19.2585 64.2869 19.2585C64.2829 19.2145 64.2759 19.1755 64.2679 19.1405L64.2779 19.1365C64.2779 19.1365 64.8729 18.1775 64.9169 18.1115C64.9169 18.1115 65.7459 16.8705 64.9159 14.7885C64.7849 14.4655 64.2899 15.0685 64.2649 15.0985L64.2619 15.0965C64.3739 14.9315 64.4249 14.6695 64.2479 14.2645C63.9619 13.6155 62.8499 13.1055 62.4549 12.9455C62.3469 12.9015 62.2319 12.8975 62.1179 12.9185L62.1019 12.7895C62.1019 12.7895 61.6889 12.0545 62.3699 11.2445C63.0509 10.4405 63.2709 10.3315 63.5559 10.2955C63.8409 10.2585 64.3429 10.1935 64.3429 10.1935C64.3429 10.1935 65.2809 9.5145 66.1839 10.0995L66.1839 10.1005C66.0669 10.2335 65.9659 10.3605 65.9149 10.4505C65.7649 10.7095 65.5539 11.3295 65.5319 11.4765C65.5079 11.6235 65.2039 12.4395 65.1999 12.7195C65.1969 13.0045 65.3749 14.3185 65.4309 14.4965C65.4869 14.6755 65.7379 15.2145 65.7189 15.3065C65.6989 15.4005 65.6359 15.7745 65.6359 15.7745C65.6359 15.7745 65.9289 15.6045 65.9829 15.6075C66.0349 15.6105 66.2649 15.6105 66.2989 15.4775C66.3339 15.3435 66.3879 14.8905 66.3509 14.6195C66.3139 14.3475 66.2299 14.1805 66.2939 14.0115C66.3239 13.9285 66.3899 13.8465 66.4499 13.7585L66.5099 13.7685C66.5099 13.7685 66.8319 14.9035 67.4279 15.0605C67.4279 15.0605 68.3549 15.0895 69.1159 14.5155L69.1659 14.5205L69.0439 15.7225L68.8769 16.6945C68.8769 16.6945 69.0269 17.1335 69.1179 17.1655C69.2109 17.2005 69.2859 16.7455 69.2859 16.7455L69.3439 16.5605C69.3449 16.5795 69.4479 16.3955 69.4969 16.4615C69.5299 16.5085 69.6119 16.4945 69.7179 16.4105L69.7279 16.4225C69.7279 16.4225 69.4259 17.6425 71.1039 18.8335L71.1249 18.8815C70.4669 19.1705 70.0399 19.7245 70.0399 19.7245L70.0499 19.8465C69.8829 19.8645 69.7229 19.8895 69.6629 19.8995C69.5299 19.9275 69.0569 20.1275 68.9259 20.1195C68.7939 20.1115 68.4669 20.3865 68.0979 20.4955C67.7319 20.6055 67.9329 21.0775 67.4339 21.1765C67.2679 21.2105 67.1639 21.3105 67.0909 21.4325" fill="#ffffff" fill-rule="nonzero" opacity="1" stroke="none"/>
<path d="M60.4691 18.6668C60.5211 18.2948 60.8261 17.7688 60.9901 17.7068C61.1561 17.6478 61.5651 17.3688 62.3611 17.5578C62.3611 17.5578 62.6671 17.8278 62.7251 17.8748C62.7831 17.9178 63.0511 18.0028 63.2141 18.1428C63.3771 18.2868 63.3991 18.4278 63.4051 18.4788C63.4131 18.5308 63.6181 18.8228 63.6451 18.8658C63.6731 18.9088 63.8531 19.4238 63.8581 19.5158C63.8631 19.6058 63.9491 20.0248 63.9451 20.0868C63.9421 20.1448 64.1021 20.6688 63.9431 20.8018C63.7621 20.9518 63.9811 22.1978 63.7941 22.2918C63.5691 22.6278 63.3881 23.1548 63.0461 23.2568C62.2371 23.4958 61.2001 23.2498 61.2001 23.2498L61.3711 21.5168C61.3381 21.3878 61.2961 21.2608 61.2481 21.1528C61.0781 20.7698 61.0131 20.3528 61.0261 20.1438C61.0391 19.9308 60.9061 19.6018 60.7671 19.4198C60.6261 19.2388 60.4161 19.0358 60.4691 18.6668" fill="#ffffff" fill-rule="nonzero" opacity="1" stroke="none"/>
<path d="M59.2621 30.6158L58.8931 30.7258L58.6341 29.9988C58.7471 29.7928 59.6561 29.9338 59.7411 29.8598C59.8541 29.7578 60.1231 29.8898 60.1581 29.7598C60.1911 29.6248 60.3511 29.6618 60.5191 29.5378C60.6891 29.4138 60.7241 29.2818 60.8321 29.2618C60.9421 29.2418 61.1121 29.0908 61.1441 29.0118C61.1751 28.9318 61.4191 28.8908 61.5571 28.8488C61.6941 28.8008 62.1701 28.5068 62.3091 28.4088C62.4501 28.3098 62.5841 28.3178 62.7161 28.3498C62.8491 28.3878 62.8881 28.6318 62.8881 28.6318C62.8041 29.1378 62.4421 29.3578 62.4421 29.3578C62.4421 29.3578 62.4281 30.0278 62.4121 30.2948C62.3961 30.5648 61.9441 30.4578 61.9441 30.4578C61.9441 30.4578 61.7921 30.7718 61.6571 30.7918C61.5201 30.8098 61.3761 30.9618 61.2671 30.9818C61.1591 31.0028 60.9601 31.1528 60.7921 31.2528C60.6251 31.3498 59.8421 31.0348 59.8421 31.0348L59.2621 30.6158Z" fill="#ffffff" fill-rule="nonzero" opacity="1" stroke="none"/>
<path d="M60.0555 15.2409C59.7405 15.2459 59.5975 15.0609 59.5535 14.9689C59.5095 14.8809 59.9525 14.6979 59.9525 14.6979C59.9525 14.6979 60.4385 14.4119 60.9285 14.3729C61.0095 14.3659 61.0835 14.3589 61.1535 14.3519C61.5035 14.3169 61.7285 14.2969 62.0555 14.4969L62.4505 14.7379L62.5275 14.7469L62.5285 14.7469C62.4765 14.6559 62.4325 14.5779 62.4245 14.5559C62.4025 14.4999 62.3645 14.4099 62.4455 14.2969C62.5255 14.1859 62.7245 14.2719 62.7485 14.2919C62.7715 14.3099 62.8865 14.4549 63.0465 14.5799C63.2045 14.7089 63.1805 14.5879 63.3175 15.1829C63.3465 15.3079 63.3535 15.4079 63.3435 15.4899C63.2995 15.7979 62.9665 15.7939 62.5415 15.9999C62.0015 16.2629 61.4745 15.9739 61.4745 15.9739C61.4745 15.9739 60.6625 15.2089 60.6115 15.1309C60.5605 15.0559 60.4735 15.0629 60.4015 15.1449C60.3275 15.2269 60.3705 15.2349 60.0555 15.2409" fill="#ffffff" fill-rule="nonzero" opacity="1" stroke="none"/>
<path d="M61.1494 14.3079C61.1494 14.3079 61.1554 13.5279 61.3704 13.3389C61.5244 13.2019 61.8184 12.9739 62.1174 12.9189C62.2314 12.8979 62.3464 12.9019 62.4554 12.9459C62.8504 13.1059 63.9624 13.6159 64.2474 14.2649C64.4244 14.6699 64.3744 14.9309 64.2614 15.0959C64.1934 15.1959 64.1024 15.2599 64.0234 15.2999C63.8144 15.4089 63.3544 15.4919 63.3544 15.4919L63.3434 15.4899C63.3534 15.4079 63.3464 15.3079 63.3174 15.1829C63.1804 14.5879 63.2044 14.7089 63.0464 14.5799C62.8864 14.4549 62.7714 14.3099 62.7484 14.2919C62.7244 14.2719 62.5254 14.1859 62.4454 14.2969C62.3644 14.4099 62.4024 14.4999 62.4244 14.5559C62.4324 14.5779 62.4764 14.6559 62.5284 14.7469L62.5274 14.7469L62.4504 14.7379L62.0554 14.4969C61.7284 14.2969 61.5044 14.3169 61.1534 14.3519L61.1494 14.3089L61.1494 14.3079Z" fill="#ffffff" fill-rule="nonzero" opacity="1" stroke="none"/>
<path d="M60.0204 44.1976L64.0294 45.5156L64.0004 45.9956L64.0004 46.1646L64.0284 46.2636L63.9934 46.5896L59.9834 45.2746L60.0194 44.1976L60.0204 44.1976Z" fill="#ffffff" fill-rule="nonzero" opacity="1" stroke="none"/>
<path d="M60.0969 23.4113C59.9019 23.2663 59.1019 23.4663 59.0049 23.2183C58.9089 22.9723 58.7609 22.9123 58.2389 22.5393C57.7179 22.1633 58.2839 21.6903 58.4169 21.6583C58.5509 21.6253 58.4959 21.5393 58.4959 21.5393C58.4969 21.4743 58.6129 21.3223 58.8049 21.1423C58.9969 20.9643 58.9119 20.9873 58.9539 20.4263C58.9949 19.8773 59.2519 19.7433 59.2519 19.7433C59.1259 19.1123 59.4459 18.6263 59.4459 18.6263C59.4389 18.2523 60.0199 17.8973 60.0199 17.8973C60.3429 17.2313 60.9709 17.4933 60.9709 17.4933C61.2809 17.3603 61.4919 17.2643 61.4919 17.2643C61.4919 17.2643 61.7949 17.2873 61.9089 17.2443C62.0219 17.1993 62.2869 17.1533 62.4359 17.1913C62.4359 17.1913 62.6739 17.1773 62.8309 17.4283C62.8309 17.4283 63.1769 17.4573 63.2259 17.6393C63.2759 17.8263 63.6929 17.7373 63.6369 18.1583C63.6369 18.1583 63.8789 18.4963 63.8879 18.6893C63.8949 18.8633 64.1829 18.8063 64.2679 19.1403C64.2759 19.1763 64.2829 19.2143 64.2869 19.2583C64.2869 19.2583 64.3569 19.6183 64.4289 19.7503C64.5029 19.8883 64.4329 20.0243 64.4719 20.0463C64.5109 20.0673 64.7909 20.2873 64.7849 20.3883C64.7789 20.4883 64.7349 20.7063 64.7349 20.7063C64.7349 20.7063 64.9929 20.9663 64.9049 21.2413C64.8169 21.5183 65.1049 21.7803 64.7459 22.0483C64.4289 22.2913 64.3229 22.4083 64.3499 22.4563C64.2719 22.4053 63.9659 22.3173 63.9659 22.3173C63.9659 22.3173 63.8489 22.2773 63.7529 22.2243C63.6579 22.1723 63.5819 22.0753 63.5629 22.0393C63.5269 21.9693 63.4099 21.9493 63.4399 21.2663L63.3869 21.1653C63.5749 21.0703 63.7619 20.9513 63.9429 20.8023C64.1029 20.6683 63.9419 20.1443 63.9449 20.0873C63.9489 20.0243 63.8639 19.6053 63.8579 19.5163C63.8549 19.4503 63.7629 19.1713 63.6999 19.0003C63.6739 18.9303 63.6539 18.8783 63.6459 18.8663C63.6179 18.8233 63.4129 18.5303 63.4059 18.4793C63.3989 18.4283 63.3769 18.2863 63.2139 18.1433C63.0509 18.0033 62.7829 17.9173 62.7249 17.8743C62.6679 17.8283 62.3619 17.5583 62.3619 17.5583C61.5649 17.3683 61.1559 17.6473 60.9899 17.7063C60.8259 17.7683 60.5209 18.2943 60.4689 18.6663C60.4159 19.0363 60.6259 19.2393 60.7669 19.4203C60.9059 19.6013 61.0389 19.9313 61.0259 20.1433C61.0139 20.3523 61.0789 20.7703 61.2479 21.1523C61.2959 21.2613 61.3379 21.3873 61.3709 21.5163C61.4559 21.8433 61.4859 22.1863 61.4219 22.3043C61.3299 22.4713 61.3069 22.8653 61.2949 23.0553C61.2839 23.2463 60.9509 23.4263 60.9179 23.4633C60.9179 23.4633 60.2909 23.5543 60.0969 23.4113" fill="#ffffff" fill-rule="nonzero" opacity="1" stroke="none"/>
<path d="M53.0458 12.6347C52.9118 12.2817 53.6078 11.8737 53.6068 11.8557C53.5778 11.4187 54.1638 11.4537 54.1638 11.4537C54.1858 11.0917 54.9198 11.2037 54.9198 11.2037C55.2648 10.7787 55.2648 10.7657 55.2648 10.7657C55.6418 10.5607 57.0068 10.7097 57.0068 10.7097C57.9728 10.5527 58.0288 10.9457 58.0288 10.9457C58.7098 11.0027 58.9508 11.2837 58.9508 11.2837C59.1478 11.1217 59.4288 11.3937 59.4288 11.3937C60.0388 11.5547 60.1148 12.0537 60.1148 12.0537C60.8418 12.2707 60.5048 12.7357 60.5048 12.7357C60.9258 13.1247 60.5248 13.3147 60.5048 13.4087C60.4868 13.5007 60.4888 13.6757 60.1088 13.7337C59.9848 13.7517 59.8428 13.7117 59.6988 13.6477C59.3968 13.5117 59.0858 13.2647 58.9148 13.2177C58.6628 13.1497 58.7038 13.0337 58.7038 13.0337C58.5378 12.9957 58.5598 13.1487 58.4788 12.9067L58.3698 12.8887C58.3698 12.8887 58.4108 13.3227 58.2258 13.5017C58.0398 13.6777 57.9738 13.6737 57.8518 13.6667C57.7308 13.6597 57.4608 13.9247 57.2928 14.0247C57.1248 14.1217 57.0428 14.1557 56.9478 14.1637C56.8538 14.1707 56.6528 14.5897 56.4348 14.4277C56.4348 14.4277 56.2718 14.2307 56.1278 14.3697C55.9858 14.5077 55.6448 14.5977 55.4228 14.4747C55.2008 14.3537 54.8548 14.3067 54.7848 14.1137C54.7408 13.9917 54.4158 13.8857 54.1808 13.7347L54.1208 13.7647C53.9768 13.4697 53.7588 13.1927 53.4548 12.9567C53.3138 12.8477 53.1668 12.7587 53.0208 12.6857L53.0458 12.6357L53.0458 12.6347Z" fill="#ffffff" fill-rule="nonzero" opacity="1" stroke="none"/>
<path d="M54.9977 20.1194C54.9877 19.7294 55.1617 19.3974 55.2597 19.2404C55.4197 18.9844 55.8837 18.9094 55.8837 18.9094L56.3187 19.0244L56.7457 19.1384L57.0087 19.1054C57.0087 19.1054 57.6617 19.2044 57.7417 19.2094C57.8227 19.2144 58.4157 19.3234 58.4157 19.3234C58.4727 19.4884 58.1227 19.6074 58.1227 19.6074L57.4897 19.7114L57.6857 20.0334C57.8817 20.3534 57.4497 20.6094 57.4497 20.6094C57.5747 21.2174 57.1867 21.4014 57.1867 21.4014C56.5907 21.8034 56.0167 21.4544 55.5967 21.2154C55.4917 21.1554 55.3977 21.1024 55.3137 21.0694C54.8927 20.9034 55.0067 20.5104 54.9977 20.1194" fill="#ffffff" fill-rule="nonzero" opacity="1" stroke="none"/>
<path d="M55.2555 35.2157L55.2555 35.2147C55.6365 35.1957 56.1065 35.0637 56.6715 34.7217C56.6715 34.7217 57.0555 34.4607 57.3655 33.9697L57.3665 33.9697L57.4065 33.9957C58.7705 33.8157 59.0225 32.1787 59.0685 31.6437L58.9515 32.3947C58.9515 32.3947 58.6435 33.5337 58.6795 33.4907C58.5465 33.9957 58.6165 34.0157 58.2195 35.0627C58.1105 35.3517 57.6585 36.4167 57.5675 36.5597L56.2675 37.8987L56.1495 37.7807C55.8915 36.9747 55.9195 37.0957 55.8855 36.8497C55.8275 36.4407 55.2595 35.2787 55.2595 35.2787L55.2555 35.2157Z" fill="#ffffff" fill-rule="nonzero" opacity="1" stroke="none"/>
<path d="M52.6737 19.9601C52.5177 19.7121 52.6477 19.2611 52.6477 19.2611L52.6027 19.1721L53.4097 18.7681C53.4097 18.7681 54.6107 18.3501 55.2687 18.0571L55.2697 18.0571L55.4647 18.1101C55.4647 18.1101 56.2627 18.6771 56.3367 18.9551L56.3367 18.9561L56.3187 19.0251L55.8837 18.9091C55.8837 18.9091 55.3687 19.0931 55.2597 19.2411C55.1487 19.3881 54.9877 19.7291 54.9977 20.1191C55.0067 20.5101 54.8927 20.9031 55.3137 21.0691C55.3977 21.1021 55.4917 21.1551 55.5967 21.2151L55.5797 21.2561C55.5797 21.2561 54.4407 21.2131 54.3237 21.2031C53.0847 21.1101 52.6737 19.9601 52.6737 19.9601" fill="#ffffff" fill-rule="nonzero" opacity="1" stroke="none"/>
<path d="M53.8036 16.2566C53.9776 16.0056 54.1366 15.7076 54.2376 15.3866C54.3976 14.8786 54.3796 14.2926 54.1206 13.7646L54.1806 13.7346C54.4156 13.8856 54.7406 13.9916 54.7856 14.1146C54.8546 14.3066 55.2006 14.3546 55.4226 14.4746C55.6446 14.5976 55.9856 14.5086 56.1276 14.3696C56.2726 14.2306 56.4346 14.4276 56.4346 14.4276C56.6536 14.5896 56.8536 14.1706 56.9486 14.1636C57.0426 14.1556 57.1246 14.1216 57.2926 14.0246C57.4606 13.9246 57.7316 13.6596 57.8516 13.6666C57.9736 13.6746 58.0396 13.6776 58.2256 13.5016C58.4106 13.3226 58.3696 12.8886 58.3696 12.8886L58.5126 12.7966C58.5226 12.8116 58.5966 12.9956 58.7626 13.0346C58.7626 13.0346 58.6636 13.1496 58.9146 13.2176C59.0856 13.2646 59.3976 13.5116 59.6986 13.6476L59.6796 13.6896C59.6796 13.6896 59.6026 13.7716 59.5286 13.9676C59.4566 14.1656 59.0586 15.0916 58.9716 15.5296C58.8836 15.9666 58.5816 15.6266 58.5816 15.6266C58.5696 15.6406 58.4486 15.7846 58.3686 15.8366C58.2836 15.8906 58.0416 15.8976 58.0416 15.8976C58.0416 15.8976 57.9096 16.0716 57.8486 16.0876C57.7866 16.1026 57.6576 16.2386 57.6526 16.3176C57.6476 16.3966 57.6416 16.4986 57.4586 16.5286C57.2746 16.5576 56.7676 16.2856 56.7676 16.2856L55.9976 15.8676L55.8876 15.8076L53.9336 16.3146L53.8036 16.2566Z" fill="#ffffff" fill-rule="nonzero" opacity="1" stroke="none"/>
<path d="M47.0602 31.4479C46.8032 31.2449 46.9262 30.9839 46.8892 30.2579C46.8522 29.5279 48.1072 29.2529 48.4312 29.2199C48.7562 29.1839 50.0672 28.8579 50.0672 28.8579L51.3382 28.3149L51.3532 28.3029C51.3822 28.3429 51.4122 28.3739 51.4402 28.3979C51.5752 28.5039 51.7252 28.6949 51.8592 28.8049C51.9952 28.9129 52.2382 28.8869 52.3802 28.8769C52.5222 28.8649 52.7752 28.6779 52.7752 28.6779C52.8802 28.6249 52.8702 28.4419 52.8782 28.2999C52.8872 28.1599 52.9472 27.8209 52.9732 27.7219C52.9972 27.6309 53.0982 27.3649 53.1172 27.3159L53.1172 27.3139C53.2082 27.1969 53.4492 27.1309 53.5062 27.0959C53.5682 27.0609 53.6662 26.9649 53.7362 26.9599C53.8072 26.9549 54.0222 27.0779 54.0222 27.0779C54.0222 27.0779 54.3792 27.1809 54.7922 27.0439C54.9552 26.9889 54.9912 26.9279 54.9692 26.8699L54.9762 26.8669C54.9762 26.8669 56.4222 27.2409 57.0482 27.6779C57.0582 27.6849 57.0672 27.6909 57.0772 27.6989L57.0772 27.6999L57.0572 27.7269C57.0572 27.7269 57.4872 27.8919 57.6492 28.5509C57.6792 28.6729 57.7552 28.7109 57.8432 28.8009C57.9492 28.9099 57.8462 28.9139 57.9562 29.0389C58.1352 29.2439 58.3292 29.4009 58.4452 29.5619C58.5662 29.7309 58.6432 30.0319 58.6942 30.0869L58.7162 30.0859C58.8332 30.5379 58.9462 31.1109 58.9462 31.1109L59.0692 31.6419C59.0692 31.6419 59.0692 31.6429 59.0692 31.6439C59.0222 32.1779 58.7702 33.8149 57.4062 33.9959L57.3662 33.9699L57.3652 33.9699C57.0552 34.4609 56.6712 34.7219 56.6712 34.7219C56.1062 35.0639 55.6362 35.1959 55.2552 35.2149L55.2552 35.2159C54.4082 35.2589 54.0062 34.7449 54.0062 34.7449L53.8542 34.7179C54.0382 34.3409 54.3222 33.7249 54.3372 33.4719C54.3372 33.4719 55.2872 33.3439 55.3142 32.8869C55.3412 32.4319 55.6782 31.7519 52.9412 30.7509C52.9412 30.7509 52.1282 31.2959 51.7272 32.1319C51.5262 32.5539 51.3202 33.0509 51.1722 33.6259L51.0742 33.5999C50.4602 33.2359 49.1382 31.8719 48.5462 31.2469L48.5462 31.2479L48.5242 31.2669C48.5242 31.2669 48.0192 31.5129 47.5712 31.8049L47.5512 31.7749C47.5512 31.7749 47.3162 31.6539 47.0602 31.4479" fill="#ffffff" fill-rule="nonzero" opacity="1" stroke="none"/>
<path d="M50.957 35.5563C50.934 34.8353 51.025 34.1933 51.172 33.6263C51.321 33.0513 51.527 32.5543 51.727 32.1313C52.128 31.2963 52.941 30.7513 52.941 30.7513C55.679 31.7523 55.342 32.4313 55.314 32.8863C55.287 33.3433 54.338 33.4723 54.338 33.4723C54.322 33.7253 54.038 34.3403 53.854 34.7173C53.763 34.9023 53.697 35.0293 53.697 35.0293L53.306 35.8243C53.306 35.8243 52.766 37.1033 52.729 37.3623C52.694 37.6233 53.144 37.6803 53.313 37.7203C53.482 37.7603 53.978 38.0733 54.035 38.1263C54.092 38.1803 54.41 38.4723 54.434 38.5423C54.461 38.6163 54.585 38.7153 54.585 38.7153C54.713 38.7713 54.964 38.9603 54.964 38.9603C54.964 38.9603 55.538 39.6693 55.594 39.7323C55.651 39.7953 55.704 39.9013 55.661 39.9593C55.618 40.0163 55.496 40.0303 55.496 40.0303L54.728 39.5403L54.165 39.3253C54.417 39.5223 54.687 40.0523 54.687 40.0523C54.687 40.0523 54.873 40.4873 54.962 40.7043C55.047 40.9213 54.924 40.9753 54.821 41.0173C54.717 41.0643 54.557 40.8803 54.557 40.8803L54.236 40.3383L53.623 39.5223L53.748 39.8963L53.88 40.2253L54.038 40.7703C54.038 40.7703 54.147 41.1503 54.182 41.2443C54.217 41.3363 54.142 41.3913 54.09 41.4373C54.036 41.4863 53.848 41.3953 53.848 41.3953L53.231 40.1073C53.23 40.1183 53.222 40.2443 53.213 40.3973C53.203 40.5593 52.831 40.7173 52.759 40.7333C52.688 40.7473 52.575 40.7843 52.498 40.8783C52.421 40.9753 52.355 40.9223 52.355 40.9223C52.207 40.8423 52.282 40.6243 52.304 40.5873C52.326 40.5463 52.546 40.4273 52.6 40.3693C52.654 40.3123 52.549 40.0343 52.514 39.9533C52.478 39.8703 52.109 39.6363 52.061 39.5923C52.014 39.5503 51.6 39.2013 51.6 39.2013C51.256 38.9183 51.11 38.1663 51.038 37.2903C50.991 36.7323 50.975 36.1243 50.957 35.5563" fill="#ffffff" fill-rule="nonzero" opacity="1" stroke="none"/>
<path d="M51.507 19.684C51.459 19.483 51.533 19.463 51.533 19.463C52.001 19.046 52.223 18.05 52.37 17.616C52.516 17.181 52.802 17.117 53.094 16.973C53.267 16.887 53.55 16.622 53.804 16.257L53.934 16.315L55.888 15.808L55.998 15.868L55.983 15.894C55.983 15.894 56.074 16.617 55.672 17.1L55.673 17.1L55.728 17.131C55.728 17.131 55.737 17.636 55.687 17.815C55.673 17.862 55.507 17.952 55.269 18.057C54.611 18.35 53.409 18.768 53.409 18.768L52.603 19.172L51.579 19.686L51.507 19.684Z" fill="#ffffff" fill-rule="nonzero" opacity="1" stroke="none"/>
<path d="M47.1359 16.0512C46.4979 15.2452 46.9839 14.5472 47.8899 13.5532C48.6969 12.6702 51.1459 12.4212 51.6889 12.3792L51.6899 12.3602C51.9349 12.3672 52.4769 12.4142 53.0199 12.6852C53.1669 12.7582 53.3139 12.8482 53.4549 12.9572C53.7579 13.1932 53.9769 13.4702 54.1209 13.7642C54.3789 14.2922 54.3969 14.8782 54.2369 15.3872C54.1369 15.7082 53.9779 16.0062 53.8039 16.2562C53.5499 16.6222 53.2669 16.8862 53.0939 16.9732C52.8019 17.1162 52.5159 17.1812 52.3699 17.6162C52.2229 18.0502 52.0009 19.0452 51.5329 19.4622C51.5329 19.4622 51.4589 19.4832 51.5069 19.6842C51.5209 19.7422 51.5459 19.8162 51.5859 19.9102C51.7629 20.3232 52.3409 21.4472 52.3299 22.2952C52.3199 23.1432 52.4729 23.9572 52.6759 24.6152C52.8789 25.2732 53.2749 26.0642 53.4359 26.0742C53.5959 26.0832 53.9129 26.1812 54.0279 26.3132C54.1399 26.4392 54.5739 26.6262 54.6919 26.6742C54.7639 26.7022 54.9349 26.7812 54.9689 26.8692C54.9909 26.9282 54.9549 26.9892 54.7919 27.0432C54.3789 27.1812 54.0219 27.0782 54.0219 27.0782C54.0219 27.0782 53.8069 26.9552 53.7359 26.9592C53.6659 26.9652 53.5689 27.0612 53.5059 27.0962C53.4489 27.1302 53.2079 27.1972 53.1169 27.3142L53.1169 27.3152C53.0989 27.3652 52.9969 27.6312 52.9729 27.7222C52.9479 27.8212 52.8869 28.1602 52.8779 28.3002C52.8699 28.4412 52.8809 28.6252 52.7749 28.6782C52.7749 28.6782 52.5219 28.8642 52.3799 28.8772C52.2379 28.8872 51.9949 28.9132 51.8599 28.8042C51.7249 28.6952 51.5749 28.5042 51.4409 28.3982C51.4119 28.3742 51.3819 28.3422 51.3529 28.3032C51.2399 28.1562 51.1359 27.9002 51.1889 27.5522C51.2549 27.1122 51.5179 26.7672 51.5239 26.6642C51.5299 26.5652 51.0419 25.2832 51.0419 25.2832C51.0419 25.2832 50.2949 24.2722 50.1699 24.0212C50.0739 23.8362 49.6499 23.3722 49.3659 22.2922C49.2689 21.9222 49.1879 21.4812 49.1429 20.9542C49.1429 20.9542 49.0369 20.6482 49.0619 20.0822C49.0669 19.9602 49.0789 19.8262 49.0979 19.6802C49.2059 18.8592 49.1709 17.7872 49.1839 17.5852C49.1859 17.5372 49.1959 17.4392 49.2119 17.3102L49.1189 17.2982C48.4589 17.5422 47.7729 16.8552 47.1359 16.0512" fill="#ffffff" fill-rule="nonzero" opacity="1" stroke="none"/>
<path d="M44.2666 31.2561C44.2486 31.1771 44.3176 30.8281 44.4096 30.4021C44.5586 29.7151 44.7676 28.8271 44.7726 28.5411C44.7796 28.0761 44.3966 26.0751 44.3956 24.7261C44.3956 23.3741 45.2216 22.5211 45.2216 22.5211L45.2236 22.4841C47.3526 22.6071 49.3446 22.2971 49.3446 22.2971L49.3656 22.2921C49.6496 23.3721 50.0746 23.8361 50.1696 24.0211C50.2946 24.2721 51.0416 25.2831 51.0416 25.2831C51.0416 25.2831 51.5306 26.5651 51.5246 26.6641C51.5186 26.7671 51.2556 27.1121 51.1886 27.5521C51.1366 27.9001 51.2406 28.1561 51.3526 28.3031L51.3386 28.3151L50.0676 28.8581C50.0676 28.8581 48.7566 29.1841 48.4306 29.2201C48.1066 29.2521 46.8526 29.5281 46.8896 30.2581C46.9266 30.9841 46.8026 31.2451 47.0606 31.4481C47.3166 31.6541 47.5516 31.7751 47.5516 31.7751L47.5706 31.8051C47.3466 31.9511 47.1376 32.1091 47.0116 32.2541C46.6836 32.6341 46.4126 33.0591 46.3346 33.4301L46.2696 33.4201C46.2696 33.4201 45.3906 32.8301 45.2556 32.8221C45.1906 32.8181 44.9586 32.7791 44.7026 32.7441L44.7126 32.6691L44.7126 32.6681C44.3096 32.1131 44.3116 31.4441 44.2666 31.2561" fill="#ffffff" fill-rule="nonzero" opacity="1" stroke="none"/>
<path d="M42.2743 21.9284C41.5253 20.7874 42.0053 20.3314 42.0733 20.2744C42.3723 20.5604 42.7843 20.8474 43.2603 20.7824C44.0753 20.6684 44.9793 20.3624 45.4063 20.6684C45.8313 20.9774 46.5523 21.7464 47.3923 21.1904C47.9953 20.7924 48.5583 20.3924 48.8273 20.1994C48.9323 20.1224 48.9923 20.0784 48.9923 20.0784L49.0623 20.0824C49.0373 20.6484 49.1423 20.9544 49.1423 20.9544C49.1883 21.4804 49.2683 21.9224 49.3663 22.2914L49.3443 22.2974C49.3443 22.2974 47.3523 22.6074 45.2233 22.4844C44.6743 22.4524 44.1153 22.3914 43.5793 22.2894C43.2793 22.2324 42.9863 22.1624 42.7063 22.0764L42.7063 22.0754C42.5583 22.0314 42.4143 21.9824 42.2743 21.9284" fill="#ffffff" fill-rule="nonzero" opacity="1" stroke="none"/>
<path d="M41.6235 19.7976C41.4315 19.6246 41.2775 18.8476 41.4895 18.6586C41.7035 18.4686 42.3125 17.7396 42.3125 17.7396C43.2635 16.0206 44.2445 15.7986 44.2445 15.7986L44.3075 15.8086C44.1895 16.4846 44.1085 17.3986 44.0985 17.5636C44.0865 17.7666 44.6415 18.6046 44.9135 18.7866C45.1855 18.9626 45.7775 19.1986 46.0165 19.2126C46.2595 19.2266 47.4015 19.6976 47.5995 19.7506L48.7865 20.1446L48.8275 20.1986C48.5585 20.3926 47.9955 20.7926 47.3925 21.1906C46.5525 21.7466 45.8305 20.9776 45.4065 20.6686C44.9795 20.3626 44.0755 20.6686 43.2605 20.7826C42.7845 20.8476 42.3725 20.5596 42.0725 20.2746C41.8595 20.0716 41.7035 19.8696 41.6235 19.7976" fill="#ffffff" fill-rule="nonzero" opacity="1" stroke="none"/>
<path d="M43.5662 35.8666C42.1662 35.8926 42.6062 34.3846 42.6662 33.8226C42.7262 33.2606 43.6742 32.7276 43.9732 32.6916C44.1262 32.6736 44.4282 32.7066 44.7022 32.7446C44.9582 32.7786 45.1912 32.8186 45.2552 32.8216C45.3902 32.8306 46.2692 33.4206 46.2692 33.4206L46.3342 33.4306C46.3232 33.4836 46.3162 33.5346 46.3132 33.5856C46.2892 33.9856 46.6452 34.3296 46.8002 34.4486L46.7972 34.4766C46.4032 34.4386 45.9422 34.4496 45.8322 34.4416C45.6432 34.4306 44.6132 35.0166 44.4372 35.2486C44.4152 35.2776 44.3852 35.3086 44.3492 35.3416C44.0992 35.5706 43.5662 35.8666 43.5662 35.8666" fill="#ffffff" fill-rule="nonzero" opacity="1" stroke="none"/>
<path d="M45.0819 43.9248C45.0759 43.8738 44.4929 42.8668 44.4539 42.6218C44.4149 42.3778 44.8559 41.2988 45.0729 40.8298C45.2889 40.3568 45.2929 39.8468 45.3089 39.5768C45.3249 39.3108 45.5529 39.1068 45.5529 39.1068L45.5949 39.0558C45.6149 39.0758 45.6369 39.0948 45.6589 39.1138C46.7089 40.0098 47.6159 41.0348 48.8449 41.6188C50.0749 42.2078 52.7819 43.2808 53.0719 43.3808C53.1319 43.4018 53.2459 43.4448 53.3899 43.5028L53.3949 43.4888L53.9769 43.5428C56.3669 43.6318 56.4829 42.5918 56.9419 41.6468C57.0009 41.5268 57.0439 41.4128 57.0739 41.3048L57.1639 41.3308C57.1639 41.3308 57.4349 41.6698 57.7199 42.1498C58.0029 42.6318 57.8329 43.6108 57.8029 43.9508C57.7739 44.2938 57.5579 44.3298 57.0819 44.8758C56.6049 45.4248 55.5079 45.2158 55.0019 45.0758C54.4949 44.9348 53.3099 44.6828 52.6389 44.6098C51.9659 44.5428 50.6139 43.7238 50.2779 43.5718C49.9439 43.4208 48.3889 42.1158 48.2079 41.9438C48.0259 41.7718 47.5879 41.6768 47.4079 41.6418C47.2279 41.6108 46.0909 42.4128 45.9959 42.4778C45.9009 42.5438 45.7519 42.6628 45.7039 42.7938C45.6559 42.9198 45.7119 42.9948 45.7659 43.1198C45.8189 43.2448 45.9499 43.2408 46.0499 43.2778C46.1469 43.3128 46.3359 43.3768 46.4439 43.4118C46.5529 43.4498 46.2479 43.8148 46.1859 43.8418C46.1239 43.8678 46.1379 43.9788 46.1329 44.0588C46.1289 44.1388 45.9639 44.1828 45.9019 44.1968C45.8409 44.2138 45.6609 44.1828 45.6109 44.1888C45.5589 44.1968 45.3099 44.1618 45.2799 44.1498C45.2509 44.1408 45.0889 43.9778 45.0819 43.9248" fill="#ffffff" fill-rule="nonzero" opacity="1" stroke="none"/>
<path d="M44.0988 17.5634C44.1088 17.3984 44.1898 16.4844 44.3078 15.8094C44.3338 15.6574 44.3618 15.5174 44.3908 15.4014C44.5488 14.7664 45.0868 14.5564 45.4628 14.3364C45.8398 14.1154 46.2518 13.2944 46.6698 13.0354C47.0898 12.7784 48.1918 12.5634 49.0508 12.3714C49.9088 12.1814 51.5538 12.3604 51.5538 12.3604C51.5538 12.3604 51.6038 12.3574 51.6898 12.3604L51.6888 12.3794C51.1468 12.4204 48.6968 12.6704 47.8908 13.5534C46.9838 14.5464 46.4978 15.2454 47.1358 16.0514C47.7728 16.8544 48.4588 17.5424 49.1188 17.2984L49.2118 17.3094C49.1958 17.4394 49.1868 17.5374 49.1838 17.5854C49.1718 17.7874 49.2068 18.8584 49.0978 19.6804C49.0788 19.8264 49.0668 19.9604 49.0618 20.0824L48.9928 20.0784C48.9928 20.0784 48.9318 20.1224 48.8268 20.1994L48.7868 20.1444L47.5998 19.7514C47.4018 19.6974 46.2588 19.2274 46.0168 19.2124C45.7768 19.1984 45.1858 18.9634 44.9138 18.7864C44.6418 18.6044 44.0868 17.7664 44.0988 17.5634" fill="#ffffff" fill-rule="nonzero" opacity="1" stroke="none"/>
<path d="M44.9988 36.6499C45.3948 37.0419 46.3768 37.6769 47.5708 37.7489C48.8808 37.8269 50.2658 38.0179 51.0378 37.2909C51.1108 38.1659 51.2558 38.9189 51.5998 39.2009C51.5998 39.2009 52.0138 39.5499 52.0608 39.5919C52.1088 39.6369 52.4788 39.8699 52.5138 39.9529C52.5488 40.0339 52.6538 40.3129 52.5998 40.3699C52.5458 40.4279 52.3268 40.5459 52.3038 40.5869C52.2828 40.6239 52.2078 40.8419 52.3548 40.9219C52.3548 40.9219 52.4218 40.9749 52.4988 40.8789C52.5748 40.7849 52.6878 40.7479 52.7588 40.7339C52.8308 40.7169 53.2038 40.5599 53.2128 40.3969C53.2228 40.2439 53.2298 40.1189 53.2308 40.1069L53.8488 41.3949C53.8488 41.3949 54.0358 41.4859 54.0898 41.4379C54.1418 41.3909 54.2168 41.3359 54.1818 41.2439C54.1468 41.1499 54.0388 40.7699 54.0388 40.7699L53.8798 40.2249L53.7478 39.8959L53.6238 39.5229L54.2358 40.3389L54.5568 40.8799C54.5568 40.8799 54.7178 41.0639 54.8208 41.0179C54.9238 40.9759 55.0468 40.9209 54.9618 40.7039C54.8728 40.4869 54.6878 40.0529 54.6878 40.0529C54.6878 40.0529 54.4168 39.5219 54.1648 39.3249L54.7278 39.5409L55.4958 40.0299C55.4958 40.0299 55.6178 40.0169 55.6618 39.9599C55.7048 39.9009 55.6508 39.7959 55.5948 39.7329C55.5378 39.6699 54.9638 38.9599 54.9638 38.9599C54.9638 38.9599 54.7128 38.7709 54.5848 38.7149C54.5848 38.7149 54.4608 38.6169 54.4348 38.5419C54.4098 38.4729 54.0918 38.1809 54.0348 38.1269C53.9778 38.0729 53.4818 37.7599 53.3128 37.7209C53.1448 37.6799 52.6938 37.6239 52.7288 37.3629C52.7668 37.1029 53.3058 35.8239 53.3058 35.8239L53.6968 35.0289C53.6968 35.0289 53.7628 34.9019 53.8538 34.7179L54.0058 34.7449C54.0058 34.7449 54.4078 35.2589 55.2558 35.2159L55.2598 35.2789C55.2598 35.2789 55.8278 36.4409 55.8848 36.8489C55.9188 37.0959 56.2358 38.1169 56.4938 38.9229C56.6598 39.4409 56.8028 39.8709 56.8298 39.9459C56.8858 40.1039 57.2338 40.5139 57.1058 41.1729C57.0968 41.2159 57.0868 41.2599 57.0738 41.3049C57.0438 41.4129 57.0008 41.5269 56.9418 41.6469C56.4828 42.5919 56.3668 43.6319 53.9768 43.5429L53.3948 43.4889L53.3898 43.5029C53.2458 43.4449 53.1328 43.4019 53.0718 43.3809C52.7818 43.2809 50.0748 42.2079 48.8458 41.6189C47.6158 41.0349 46.7088 40.0099 45.6588 39.1139C45.6368 39.0949 45.6158 39.0759 45.5948 39.0559C44.6258 38.1529 44.9708 36.6779 44.9708 36.6779L44.9988 36.6509L44.9988 36.6499Z" fill="#ffffff" fill-rule="nonzero" opacity="1" stroke="none"/>
<path d="M41.7244 32.015C41.2214 31.985 41.3884 31.748 41.3884 31.748C41.4574 31.651 41.5554 31.372 41.6124 31.269C42.6384 29.842 42.3934 27.352 42.3744 25.472C42.3544 23.452 43.5704 22.335 43.5704 22.335L43.5794 22.289C44.1154 22.392 44.6744 22.453 45.2234 22.484L45.2214 22.521C45.2214 22.521 44.3964 23.374 44.3954 24.726C44.3964 26.076 44.7804 28.076 44.7724 28.541C44.7674 28.827 44.5584 29.715 44.4094 30.402L44.2404 31.19L44.4514 32.322C44.4514 32.322 44.6304 32.766 43.8884 32.687C43.4784 32.892 42.8844 32.686 42.6384 32.407C42.3924 32.13 42.2264 32.045 41.7244 32.015" fill="#ffffff" fill-rule="nonzero" opacity="1" stroke="none"/>
<path d="M44.8983 36.5397C44.5983 36.1727 44.5123 35.3597 44.5123 35.3597L44.3503 35.3417L44.3493 35.3417C44.3853 35.3087 44.4153 35.2777 44.4373 35.2487C44.6133 35.0167 45.6433 34.4307 45.8323 34.4417C45.9423 34.4487 46.4033 34.4387 46.7973 34.4767L46.8003 34.4487C46.6453 34.3297 46.2893 33.9857 46.3133 33.5857C46.3163 33.5347 46.3233 33.4837 46.3343 33.4297C46.4133 33.0587 46.6833 32.6337 47.0123 32.2547C47.1373 32.1087 47.3463 31.9507 47.5713 31.8047C48.0193 31.5127 48.5243 31.2677 48.5243 31.2677L48.5463 31.2477L48.5463 31.2467C49.1383 31.8727 50.4603 33.2357 51.0743 33.5997L51.1723 33.6257C51.0253 34.1927 50.9343 34.8347 50.9573 35.5567C50.9753 36.1247 50.9913 36.7327 51.0383 37.2897L51.0373 37.2907C50.2653 38.0177 48.8803 37.8267 47.5703 37.7487C46.3773 37.6767 45.3943 37.0427 44.9993 36.6497C44.9593 36.6097 44.9253 36.5737 44.8983 36.5397" fill="#ffffff" fill-rule="nonzero" opacity="1" stroke="none"/>
<path d="M40.2133 31.6327C40.2133 31.6327 39.9183 31.6047 39.9893 31.5397C40.0613 31.4767 40.4273 30.8837 40.5023 30.7517C40.5333 30.6977 40.6803 30.2947 40.8113 30.0097C40.9963 29.6057 41.1003 29.1207 41.1003 29.1207C41.3703 28.4207 41.4183 28.1097 41.4183 28.1097L41.6263 25.1197C41.6703 23.3817 42.6913 22.1247 42.6913 22.1247L42.7063 22.0767C42.9863 22.1627 43.2793 22.2327 43.5793 22.2887L43.5703 22.3357C43.5703 22.3357 42.3543 23.4517 42.3743 25.4717C42.3933 27.3517 42.8773 29.0597 42.0973 30.4577L41.8083 31.0427C41.8083 31.0427 41.4173 32.0147 41.4163 32.0147C41.3823 32.0327 41.0963 31.8037 40.8663 31.8757C40.6333 31.9477 40.2593 31.8047 40.2133 31.6327" fill="#ffffff" fill-rule="nonzero" opacity="1" stroke="none"/>
<path d="M38.9634 30.7514C38.4074 30.4884 39.3274 29.6454 39.3274 29.6454L40.0644 28.6104C40.0644 28.6104 40.6054 27.8614 40.7924 27.0994C41.0094 26.8264 41.1034 24.8024 41.1034 24.8024C41.3804 22.5324 42.2744 21.9284 42.2744 21.9284C42.4144 21.9824 42.5584 22.0314 42.7064 22.0754L42.7064 22.0764L42.6914 22.1254C42.6914 22.1254 41.6704 23.3824 41.6264 25.1194L41.4184 28.1104C41.4184 28.1104 41.3704 28.4204 41.1004 29.1214C41.1004 29.1214 40.9584 29.6244 40.7734 30.0284L40.0174 31.5024C40.0174 31.5024 39.6724 31.2504 39.4484 31.1014C39.1594 31.1704 38.9634 30.7514 38.9634 30.7514" fill="#ffffff" fill-rule="nonzero" opacity="1" stroke="none"/>
<path d="M83.3366 21.2968C83.8566 22.5958 84.1876 24.3998 84.4746 26.8668C85.0246 31.6128 83.7836 35.8668 83.3976 37.4398C83.0116 39.0128 83.6376 41.2478 84.3426 41.4248C84.3426 41.4248 81.6396 41.7208 80.4816 41.6758C79.9916 41.6578 79.9356 41.6648 79.3926 41.6398C77.5076 41.5578 75.5696 41.4538 75.4516 41.3658M49.3386 22.2938C49.3386 22.2938 47.3456 22.6038 45.2146 22.4808C44.6656 22.4488 44.1056 22.3888 43.5696 22.2858C43.2696 22.2288 42.9766 22.1588 42.6966 22.0728L42.6966 22.0718C42.5486 22.0278 42.4036 21.9788 42.2636 21.9248C42.2636 21.9248 41.3696 22.2498 41.0916 24.5208C41.0916 24.5208 40.9786 26.7638 40.6886 27.6588C40.1386 28.8348 38.9356 30.0598 38.9356 30.0598C38.9356 30.0598 38.6086 30.4228 39.0076 30.7818L39.8776 31.3838M41.4076 32.0178C41.3726 32.0358 40.0726 31.7308 40.0266 31.5578C40.0266 31.5578 39.9816 31.4568 40.0516 31.3918C40.1236 31.3288 40.3406 31.0878 40.4156 30.9558C40.4466 30.9018 40.4606 30.8768 40.5906 30.5928C40.7766 30.1878 41.0896 29.4948 41.0896 29.4948C41.3596 28.7938 41.3146 28.6698 41.3146 28.6698L41.6156 24.8378C41.6596 23.0998 42.6806 22.1218 42.6806 22.1218M62.7266 15.0738C62.7266 15.0738 62.6166 14.8898 62.5296 14.7388C62.4776 14.6478 62.4326 14.5688 62.4246 14.5478C62.4026 14.4908 62.3656 14.4008 62.4466 14.2888C62.5266 14.1768 62.7256 14.2638 62.7496 14.2828C62.7726 14.3018 62.8866 14.4458 63.0476 14.5708C63.2056 14.6998 63.1816 14.5798 63.3186 15.1748C63.3476 15.2998 63.3546 15.3998 63.3446 15.4818C63.3006 15.7898 62.9356 15.7308 62.5426 15.9928C62.0356 16.3308 61.4746 15.9668 61.4746 15.9668C61.4746 15.9668 60.6626 15.2008 60.6106 15.1228C60.5596 15.0478 60.4726 15.0548 60.4006 15.1368C60.3266 15.2188 60.3706 15.2268 60.0546 15.2328C59.7396 15.2378 59.5966 15.0528 59.5526 14.9608C59.5086 14.8728 59.9526 14.6898 59.9526 14.6898C59.9526 14.6898 60.4386 14.4028 60.9286 14.3648C61.0096 14.3578 61.0836 14.3498 61.1536 14.3438C61.5046 14.3088 61.7286 14.2878 62.0556 14.4878L62.5106 14.7578M68.8656 32.2908C68.8656 32.2908 68.8346 34.8218 68.8456 35.0178C68.8556 35.2178 68.9146 36.0498 68.6766 36.3828C68.4386 36.7198 68.1836 37.3148 68.2126 37.5568C68.2416 37.7978 68.2416 38.2238 68.1976 38.3478C68.1506 38.4728 67.8996 39.2498 67.8996 39.2498C67.8996 39.2498 67.7976 39.8948 68.3936 39.9698C68.9886 40.0458 69.8066 40.0548 70.1236 39.8958C70.4396 39.7348 70.6886 39.4168 70.5996 39.2088C70.5096 38.9978 70.2746 38.8578 70.1216 38.6558C69.9656 38.4538 69.7716 38.0728 69.8366 37.8328C69.8366 37.8328 69.9346 37.5078 69.9306 37.3658C69.9246 37.2268 69.8946 36.6618 70.0346 36.4638C70.1736 36.2688 71.1866 34.7188 71.1866 34.7188C71.1866 34.7188 71.6776 33.9928 71.8416 31.8958M68.9456 32.2268C70.0856 31.9728 71.0846 31.8418 71.8316 31.7748L71.8316 31.7738C72.7136 31.6938 73.2456 31.7028 73.2456 31.7028M61.2436 33.8528C61.1646 35.0188 61.0776 35.8618 61.0776 35.8618C60.8986 37.5058 60.0466 39.6388 60.0466 39.6388C60.0466 39.6388 60.9356 39.6088 61.7576 39.3358C62.5826 39.0608 63.1066 38.4208 63.8876 38.8708M57.1076 37.2028C57.1076 37.2028 59.3196 39.5468 60.0406 39.6308M81.7276 41.6288C81.7276 41.6288 79.3516 41.1728 79.2556 37.3708M64.6066 13.4578L64.9996 14.9748M56.7436 19.1328L57.0066 19.0998C57.0066 19.0998 57.6596 19.1988 57.7396 19.2038C57.8216 19.2088 58.4136 19.3178 58.4136 19.3178C58.4706 19.4828 58.1206 19.6018 58.1206 19.6018L57.4876 19.7068L57.6836 20.0288C57.8806 20.3488 57.4476 20.6048 57.4476 20.6048C57.5726 21.2138 57.1846 21.3978 57.1846 21.3978C56.5886 21.7988 56.0136 21.4508 55.5936 21.2108C55.4886 21.1518 55.3946 21.0978 55.3106 21.0648C54.8886 20.8988 55.0036 20.5058 54.9946 20.1148C54.9836 19.7238 55.1456 19.3828 55.2566 19.2358C55.3656 19.0878 55.8806 18.9038 55.8806 18.9038L56.3156 19.0188L56.7436 19.1328L56.7546 19.1358C56.7546 19.1358 56.9536 19.4448 56.8616 19.5048C56.7686 19.5688 56.4316 19.7168 56.2886 19.6398L56.1436 19.5648M62.0546 29.5838C62.0546 29.5838 61.6036 29.4638 61.4966 29.2798M68.7576 13.4498C68.7576 13.4498 69.1486 13.6848 69.5536 13.6918M67.1236 12.7648C67.1236 12.7648 67.5146 12.9998 67.9196 13.0068M58.1326 14.1458L58.7996 14.5918M79.6816 24.2258C73.4536 22.5578 77.5196 18.4588 78.1586 17.8588M78.8476 24.6738L77.8606 28.5468M69.4016 25.5058L70.4946 25.2788M69.8776 25.4448L70.0026 25.5838M69.0206 13.5798L68.9786 13.7658M67.4796 13.0158L67.4626 13.1378M58.4186 14.4128L58.3156 14.5658M61.7776 29.5198L61.6336 29.6418M61.9276 18.6768L61.9776 18.7518M61.4636 18.9178C61.4636 18.9178 61.9236 18.2958 62.1476 18.4748M63.1146 20.0278C63.1146 20.0278 63.5366 19.9358 63.7716 19.7738M67.7066 14.0818C67.7066 14.0818 67.6866 14.1528 67.9546 14.1688M67.4406 14.4398C67.4406 14.4398 67.6116 14.5848 67.8566 14.5988M64.4166 33.7728C64.4166 33.7728 64.3886 34.0118 64.3476 34.2578C64.3116 34.4748 64.2666 34.6958 64.2236 34.7618C64.1356 34.9018 63.9776 35.3998 64.0366 35.4778C64.0366 35.4778 64.1906 35.9628 64.4406 35.6138L64.6926 35.2648L64.9586 34.8358M64.3006 32.9868C64.2846 33.1358 64.1566 33.6778 64.4846 33.7278C64.4846 33.7278 64.7936 33.7348 64.8106 33.4278C64.8296 33.1218 64.9736 32.9758 65.0116 32.8478M65.8916 30.9688C65.8916 30.9688 65.4626 30.6028 64.9056 31.1148C64.5186 31.4698 64.4386 31.5408 64.4246 31.5508C64.4246 31.5518 64.4236 31.5518 64.4236 31.5518C64.4226 31.5528 64.4226 31.5528 64.4236 31.5518L64.4246 31.5508L64.4266 31.5488L64.4266 31.5478M64.4266 31.5488C64.4256 31.5498 64.4246 31.5498 64.4246 31.5508M64.4236 31.5518C64.0436 32.0678 64.0696 32.0218 64.0166 32.1568C63.9746 32.2738 63.7956 33.0298 63.7986 33.1408C63.8006 33.2478 63.7746 33.4798 63.7176 33.5228C63.6616 33.5638 63.3396 33.7828 63.3046 33.7358C63.2706 33.6858 62.9956 33.2878 62.8706 33.2628C62.7446 33.2368 62.5466 33.2168 62.6266 33.3938C62.7076 33.5718 62.1316 33.4808 62.5296 33.8228L62.9256 34.1658C62.9256 34.1658 63.2876 34.4768 63.5126 34.5248C63.7366 34.5778 64.1116 34.5478 64.2926 34.2538M65.5396 28.6678C65.5396 28.6678 63.3326 29.5568 64.2336 31.6028M64.5046 29.3658C64.5046 29.3658 64.3946 28.0058 64.4276 27.4688C64.4446 27.1748 64.7596 25.6998 65.0406 24.4268M70.4026 26.5668L70.6676 26.4068M76.4966 40.0968C76.4966 40.0968 77.6316 41.3768 78.5476 41.5898M74.4396 21.2048C74.4446 21.1068 75.2826 18.4958 76.9046 17.8268C77.4996 17.4838 78.1926 17.7728 78.1926 17.7728C78.5356 17.9198 79.5176 17.5438 80.6346 18.4008L81.5316 18.1208C83.0686 17.8768 83.8286 19.2038 83.8286 20.0258C83.8286 20.8468 82.7076 21.8928 82.7076 21.8928L81.5626 22.8268C81.2466 23.3888 80.0586 23.9998 79.6966 24.2478C79.1506 24.6238 78.5686 24.6878 77.9986 24.5688C76.2106 24.1978 74.5516 22.0208 74.5516 22.0208M70.0446 19.7188C70.0446 19.7188 70.4726 19.1658 71.1306 18.8758C71.2876 18.8068 74.4156 17.1668 77.2386 17.6768M80.2066 31.7558C80.2066 31.7558 79.1766 31.6248 78.4216 32.1408L78.4216 32.1418C78.2656 32.2478 78.1196 32.3828 77.9976 32.5538C77.5326 33.2048 75.6246 34.7878 74.3616 35.8048C73.9416 36.1438 73.5916 36.4198 73.3916 36.5778C73.2836 36.6628 72.9126 37.2208 72.9126 37.2208C72.9126 37.2208 73.3506 30.1478 77.9896 24.6108M74.4086 35.8698C74.4086 35.8698 74.1586 38.3378 73.8526 39.0678C73.5456 39.7968 73.3306 40.3688 73.3336 40.6548C73.3376 40.9358 73.1316 41.6908 73.0386 41.8868C72.9786 42.0138 72.8636 42.2288 72.7996 42.4668C72.7636 42.6008 72.7426 42.7418 72.7566 42.8788C72.7936 43.2658 72.8156 43.5898 73.0956 43.6258C73.3766 43.6638 73.8056 43.5678 73.8056 43.5678C73.8056 43.5678 74.2016 43.7128 74.4016 43.7248C74.6036 43.7368 74.8436 43.7728 74.9896 43.6808C75.1376 43.5878 75.4256 43.4858 75.5516 43.3908C75.6786 43.2968 76.0426 42.9778 76.0356 42.7338C76.0316 42.4888 75.4346 41.6478 75.4346 41.6478C75.4346 41.6478 75.4046 41.5468 75.3686 41.3888C75.2826 41.0068 75.1626 40.2958 75.3576 39.9058C75.6336 39.3558 78.6496 35.1558 78.4456 32.1748M73.7446 25.0298C73.7106 25.2688 73.3466 26.6188 73.3096 26.9008C73.2726 27.1808 73.2366 27.4638 73.3756 27.8118C73.5166 28.1658 73.7066 29.0448 73.6836 29.4278C73.6606 29.8078 73.4796 30.8288 73.3426 31.4048C73.3176 31.5128 73.2966 31.6008 73.2796 31.6728L73.2076 31.9838L72.6996 33.0728C72.6996 33.0728 71.8586 34.7008 71.7156 35.0758C71.5706 35.4528 70.8886 36.7238 71.5896 38.5208L71.8686 39.5448C72.3436 41.0268 72.5116 41.1578 73.0496 41.2468M66.9556 23.2158C66.9556 23.2158 66.7346 23.0558 66.7976 22.8288C66.8606 22.6018 66.6226 22.1758 66.8086 22.0738C66.9336 22.0048 66.9496 21.6728 67.0946 21.4288C67.1666 21.3068 67.2716 21.2068 67.4376 21.1728C67.9366 21.0738 67.7356 20.6008 68.1016 20.4908C68.4716 20.3818 68.7986 20.1068 68.9306 20.1148C69.0616 20.1228 69.5346 19.9228 69.6676 19.8948C69.7276 19.8848 69.8876 19.8588 70.0546 19.8418C70.2546 19.8198 70.4636 19.8098 70.5236 19.8478C70.5876 19.8908 70.8326 20.0038 71.0606 20.0928C71.2276 20.1578 71.3846 20.2118 71.4546 20.2158C71.6186 20.2258 72.2446 20.4778 72.3576 20.4848C72.4746 20.4918 72.8496 20.5148 72.8076 20.6608C72.7646 20.8048 72.6766 20.9308 72.7556 20.9678C72.8366 21.0058 73.0746 21.1358 73.0536 21.2158C73.0326 21.2978 72.9066 21.4718 72.9346 21.5688C72.9616 21.6708 73.2036 22.0128 73.2456 22.1318C73.2886 22.2478 73.3096 22.4298 73.2236 22.5058C73.1356 22.5848 73.0506 22.6458 73.1116 22.7128C73.1726 22.7838 73.1306 22.9448 73.0616 23.0068C72.9926 23.0688 72.8986 23.2438 72.8296 23.3238C72.7586 23.3998 72.5586 23.7328 72.4546 23.8078C72.3526 23.8848 72.0586 23.8508 72.0186 23.9788C71.9776 24.1098 71.5746 24.2318 71.4766 24.2258C71.3796 24.2198 70.8666 24.5508 70.7796 24.3478C70.6936 24.1468 70.6976 23.8008 70.7386 23.6718C70.7796 23.5448 70.9336 23.4398 70.9726 23.3408C71.0106 23.2458 71.0036 23.0988 70.9566 23.0448C70.9116 22.9938 70.6596 22.7798 70.8696 22.5658C71.0806 22.3458 71.4886 21.5838 71.5666 21.3728C71.6446 21.1638 71.5756 20.9478 71.5296 20.8948C71.4826 20.8438 70.9586 20.5498 70.8776 20.5128C70.7976 20.4748 70.1336 20.3348 69.9846 20.3428C69.8376 20.3488 69.4116 20.3088 69.2426 20.4148C69.0726 20.5178 68.6516 20.6738 68.5666 20.7348C68.4806 20.7958 68.1506 21.1038 68.1506 21.1038L67.6826 21.5038C67.6826 21.5038 67.1206 22.0428 67.0666 23.2208C67.0536 23.4808 67.0666 23.7728 67.1156 24.0958C67.1156 24.0958 67.1846 24.6218 67.5106 25.0178C67.6016 25.1288 68.2876 25.6598 68.2876 25.6598C68.2876 25.6598 68.5636 25.7118 68.6286 25.7158C68.6946 25.7198 68.8856 25.7958 68.9746 25.9808C69.0606 26.1668 69.2646 26.9048 69.6826 26.7798L69.9776 26.5028C69.9776 26.5028 70.4106 26.6748 70.4916 26.7128C70.5636 26.7488 71.2496 27.0898 72.0646 25.9218C72.1486 25.8008 72.2346 25.6638 72.3206 25.5088C72.3206 25.5088 72.6016 24.7908 72.9066 24.2138C72.9766 24.1808 73.2376 24.0178 73.3206 23.9878C74.2106 23.6618 74.5406 22.4398 74.5406 22.4398C74.5406 22.4398 74.5476 22.2688 74.5346 22.0228M64.0306 45.5268L64.0286 46.5668M60.0186 44.2078L60.0176 45.2628L64.0856 46.6338L71.5266 44.4468L71.5266 43.3948M60.0196 44.2088L64.0306 45.5268L71.5266 43.3948L67.2536 42.5168L64.5246 43.1548L64.2536 43.2188L60.0196 44.2088L60.0186 44.2078M67.4376 25.0538C67.4376 25.0538 67.3066 25.4508 67.1656 25.5508C67.0256 25.6498 66.3536 26.5248 66.4806 27.0978C66.6076 27.6708 66.8996 28.6578 66.8996 28.6578L67.1756 28.6248L69.7456 28.3158C69.7456 28.3158 69.9206 28.2728 70.1376 28.1908C70.3846 28.0978 70.6876 27.9538 70.8566 27.7628C71.1726 27.4068 72.0696 25.9258 72.0696 25.9258M64.5176 41.3308L64.2536 43.2188M64.2536 43.2188L64.0006 44.5588L64.5246 43.1548L65.4976 40.6898L66.6916 43.9358L66.0046 39.3638L65.9586 38.8778C65.9586 38.8778 65.4976 38.9138 65.2586 39.2858C65.0206 39.6568 64.7986 40.4558 64.7276 40.7768C64.6656 41.0558 64.5126 41.3138 64.5036 41.3298L64.5026 41.3308C64.2136 41.3388 64.2406 40.9318 64.2406 40.9318L64.1356 39.1918C64.0396 39.1188 63.9696 39.0368 63.9196 38.9478C63.7396 38.6298 63.8066 38.2288 63.8116 37.9158C63.8166 37.5148 64.1686 37.0598 64.4316 36.4848C64.5506 36.2228 64.7726 35.5248 64.9776 34.8418C65.2226 34.0258 65.4456 33.2308 65.4456 33.2308C65.5656 32.2398 65.7356 31.5128 65.9166 30.9778C66.3026 29.8358 66.7366 29.5678 66.8316 29.4818C66.9726 29.3568 67.1846 28.7018 67.1846 28.7018M66.0636 39.3578C66.2826 39.0648 66.5256 38.5688 66.3716 37.9128C66.1136 36.8218 66.1546 36.5828 66.2546 36.2638C66.3186 36.0618 67.6826 34.4378 68.6106 32.7398C68.7106 32.5608 68.8036 32.3798 68.8896 32.1998C69.2676 31.4148 69.5136 30.6438 69.4556 30.0218L70.2806 28.2578L70.2886 28.2408M66.7576 22.4088L65.0336 21.5828M69.7326 16.4148C69.7326 16.4148 69.4306 17.6358 71.1086 18.8278M74.8506 17.6158C74.8506 17.6158 74.6226 17.1858 73.9646 16.7158C73.6456 16.4888 73.2676 16.2618 72.8476 16.0918M70.6686 12.9058C70.6686 12.9058 72.4486 13.5368 73.5746 15.4068C73.5746 15.4068 73.9906 16.1308 73.9936 16.4968C73.9946 16.6178 73.9946 16.6648 73.9946 16.6728M73.9946 16.6728C73.9926 16.6618 73.9906 16.5498 73.9906 16.5498M66.5126 13.7598C66.5126 13.7598 66.8346 14.8958 67.4316 15.0518C67.4316 15.0518 68.3586 15.0808 69.1206 14.5068M69.3536 16.5608C69.3536 16.5608 69.2156 17.1938 69.1226 17.1588C69.0306 17.1268 68.7696 16.6878 68.7696 16.6878L69.0476 15.7148L69.1706 14.5118L69.1756 14.4558L70.1166 12.9228C70.1356 12.8178 70.0216 12.2598 69.9066 12.1578C69.7916 12.0578 69.4626 11.6878 69.4446 11.5518C69.4266 11.4158 69.3176 10.9658 69.3176 10.9658C69.3176 10.9658 68.6246 11.5288 68.4726 11.6158C68.3176 11.7008 67.8136 11.6028 67.6786 11.5948C67.5456 11.5868 67.2296 11.6748 67.1536 11.8318C67.0766 11.9878 66.8046 12.4718 66.7316 12.5748C66.6586 12.6778 66.5746 13.1828 66.5736 13.4268C66.5726 13.5508 66.5156 13.6538 66.4526 13.7498C66.3926 13.8378 66.3276 13.9198 66.2966 14.0028C66.2326 14.1718 66.3166 14.3388 66.3536 14.6108C66.3906 14.8828 66.3366 15.3348 66.3016 15.4698C66.2676 15.6018 66.0376 15.6028 65.9856 15.5998C65.9306 15.5968 65.6386 15.7668 65.6386 15.7668C65.6386 15.7668 65.7006 15.3918 65.7216 15.2988C65.7406 15.2058 65.4896 14.6668 65.4336 14.4888C65.3776 14.3098 65.1986 12.9948 65.2016 12.7098C65.2056 12.4298 65.5106 11.6138 65.5346 11.4658C65.5566 11.3188 65.7676 10.6988 65.9176 10.4398C65.9686 10.3498 66.0696 10.2218 66.1866 10.0888L66.1866 10.0878C66.4106 9.83178 66.6896 9.55378 66.7826 9.47978C66.9236 9.36878 67.8246 9.15278 67.8246 9.15278C67.8246 9.15278 68.8956 9.04178 69.4796 9.64178C69.4796 9.64178 70.1366 9.66778 70.3266 10.0818C70.5166 10.5008 70.8796 11.1818 70.8406 11.3778C70.8026 11.5798 70.6826 11.7868 70.7026 11.8968C70.7226 12.0068 70.6586 12.6348 70.5946 12.8068C70.5866 12.8288 70.5786 12.8498 70.5716 12.8698C70.5196 13.0118 70.4856 13.1288 70.5006 13.2568C70.5186 13.4068 70.6636 13.9008 70.5766 14.0028C70.4896 14.1048 70.3366 14.2038 70.3306 14.2988C70.3256 14.3908 70.3236 14.8358 70.1836 14.9488C70.0416 15.0618 69.9776 15.2308 69.9736 15.3118C69.9686 15.3938 70.0956 15.9658 69.9056 16.2098C69.8406 16.2948 69.7786 16.3588 69.7226 16.4018L69.7226 16.4028C69.6696 16.4078 69.5806 16.3908 69.5016 16.4548L69.3536 16.5608ZM64.4016 19.2648C64.4016 19.2648 64.8746 18.1708 64.9186 18.1048C64.9186 18.1048 65.7476 16.8638 64.9176 14.7808C64.7876 14.4568 64.2916 15.0598 64.2666 15.0908C64.2656 15.0908 64.2656 15.0918 64.2656 15.0918M62.1026 12.7798C62.1026 12.7798 61.6896 12.0438 62.3706 11.2338C63.0516 10.4288 63.2726 10.3208 63.5576 10.2838C63.8416 10.2478 64.3446 10.1818 64.3446 10.1818C64.3446 10.1818 65.2826 9.50278 66.1866 10.0878M66.1866 10.0888C66.1896 10.0898 66.1916 10.0908 66.1936 10.0928M61.1496 14.2988C61.1496 14.2988 61.1556 13.5188 61.3696 13.3288C61.5246 13.1918 61.8186 12.9648 62.1186 12.9088C62.2326 12.8878 62.3476 12.8918 62.4556 12.9358C62.8516 13.0968 63.9636 13.6068 64.2496 14.2558C64.4266 14.6608 64.3756 14.9228 64.2636 15.0878C64.1946 15.1878 64.1036 15.2518 64.0256 15.2918C63.8156 15.4018 63.3556 15.4838 63.3556 15.4838M58.3976 38.3978C58.3976 38.3978 58.1846 35.3748 58.2706 34.9398M62.5956 23.4118L62.6496 25.8998M58.2366 22.5358C58.2366 22.5358 56.0456 23.7928 56.4806 27.3108M63.8146 19.1278C63.8196 19.2178 63.9506 20.0198 63.9466 20.0818C63.9436 20.1398 64.1826 20.7428 64.0236 20.8768C63.8426 21.0258 63.5756 21.1458 63.3876 21.2398C61.9776 21.2438 61.2066 20.9438 61.2066 20.9438M63.4406 21.2628C63.4106 21.9458 63.7426 22.0968 63.7956 22.1918C63.8486 22.2848 63.9216 22.4228 63.9216 22.4228C63.9216 22.4228 64.1456 22.4558 64.3716 22.3658C64.5976 22.2758 64.8266 22.0448 64.8266 22.0448C65.1856 21.7758 64.8986 21.5148 64.9856 21.2368C65.0736 20.9618 64.8156 20.7018 64.8156 20.7018C64.8156 20.7018 64.9156 20.7078 64.9216 20.6078C64.9276 20.5068 64.6476 20.2868 64.6086 20.2658C64.5696 20.2438 64.6396 20.1078 64.5656 19.9688C64.4936 19.8368 64.4236 19.4768 64.4236 19.4768C64.4196 19.4328 64.3566 19.1708 64.3486 19.1358C64.2636 18.7998 64.0166 18.7198 64.0166 18.7198C64.0086 18.5258 63.7736 18.3768 63.7736 18.3768C63.8296 17.9548 63.4126 18.0068 63.3626 17.8198C63.3136 17.6368 62.9366 17.4548 62.9366 17.4548C62.7796 17.2038 62.3306 17.1388 62.3306 17.1388C62.1816 17.1008 61.5136 17.3708 61.5136 17.3708C61.5136 17.3708 61.2596 17.2948 60.9486 17.4268C60.9486 17.4268 60.3006 17.2778 59.9786 17.9438C59.9786 17.9438 59.6406 18.1708 59.4926 18.4598C59.4926 18.4598 58.9996 19.9188 58.9306 20.4268C58.8576 20.9708 58.8956 20.8538 58.8436 20.9968C58.7546 21.2448 57.7156 22.1598 58.2366 22.5358C58.7596 22.9098 58.9076 22.9688 59.0036 23.2158C59.1006 23.4638 60.5956 23.6488 60.9176 23.5038C61.2406 23.3598 61.4216 22.3008 61.4216 22.3008C61.4416 22.0598 61.4556 21.8388 61.3706 21.5128C61.3376 21.3828 61.2956 21.2568 61.2486 21.1488C61.0786 20.7658 61.0136 20.3478 61.0256 20.1388C61.0386 19.9258 60.9056 19.5968 60.7666 19.4148C60.6256 19.2338 60.4156 19.0308 60.4686 18.6608C60.5206 18.2888 60.8256 17.7618 60.9906 17.6998C61.1556 17.6408 61.5646 17.3618 62.3626 17.5518C62.3626 17.5518 62.6686 17.8218 62.7256 17.8678C62.7836 17.9108 63.0216 18.0618 63.1856 18.2018C63.3476 18.3458 63.4076 18.5358 63.4136 18.5868M54.0026 34.7498C54.0026 34.7498 54.4046 35.2638 55.2526 35.2208L55.2526 35.2198C56.2876 35.0628 57.0536 34.4658 57.3636 33.9738C57.7886 33.1748 58.1026 32.0828 56.8606 30.5188M61.9416 30.4598C61.9416 30.4598 61.6016 30.3578 61.6076 30.2488M61.3886 30.7498L61.2096 30.6058M59.1936 30.1908C59.1936 30.1908 59.3766 30.5718 59.5796 30.8088C59.7826 31.0458 60.4776 31.3398 60.9206 31.2058C61.1076 31.1488 61.1586 31.0058 61.2676 30.9848C61.3756 30.9638 61.5206 30.8118 61.6576 30.7938C61.7916 30.7738 61.9446 30.4598 61.9446 30.4598C61.9446 30.4598 62.3966 30.5678 62.4126 30.2968C62.4286 30.0298 62.4426 29.3598 62.4426 29.3598C62.4426 29.3598 62.8046 29.1398 62.8896 28.6328M57.0706 27.6438C57.0706 27.6438 56.8626 26.7628 57.2226 26.5968C57.2226 26.5968 57.2426 26.5798 57.2726 26.5518C57.3386 26.4918 57.4586 26.3818 57.5366 26.2938C57.6536 26.1658 57.9146 25.8548 58.0766 25.8408C58.2386 25.8198 58.4096 25.6718 58.5236 25.5448C58.6406 25.4148 58.9916 24.9518 59.5236 25.0388C60.0566 25.1248 61.2386 25.1688 61.3926 25.2848C61.5476 25.4028 62.2726 25.9038 62.3796 25.9098C62.4196 25.9128 62.5216 25.9108 62.6436 25.9318C62.8506 25.9678 63.1126 26.0688 63.2126 26.3628C63.2126 26.3628 63.5236 26.5968 63.2566 26.9858C63.2566 26.9858 63.8296 27.3138 63.9206 27.5918C64.0116 27.8648 64.0876 28.4088 63.5926 28.5668C63.5926 28.5668 62.9966 28.6388 62.8896 28.6328C62.8896 28.6328 62.8496 28.3878 62.7166 28.3508C62.5856 28.3188 62.4506 28.3108 62.3096 28.4088C62.1706 28.5078 61.6946 28.8018 61.5576 28.8498C61.4196 28.8918 61.1746 28.9328 61.1446 29.0128C61.1116 29.0918 61.0146 29.2748 60.5186 29.5388C60.5146 29.5418 58.6826 29.9568 58.6736 29.9588M57.4036 33.9998C58.7696 33.8198 59.0326 32.1258 59.0676 31.5898C59.0726 31.5158 58.9446 31.0578 58.9446 31.0578C58.9446 31.0578 58.8316 30.5398 58.7156 30.0878C58.6456 29.8158 57.2556 27.8648 57.2556 27.8648M55.2566 35.2838C55.2566 35.2838 55.8246 36.4458 55.8816 36.8558C55.9166 37.1018 56.2326 38.1238 56.4906 38.9298C56.6576 39.4488 56.7996 39.8788 56.8276 39.9538C56.8836 40.1118 57.2316 40.5218 57.1036 41.1818C57.0946 41.2248 57.0846 41.2688 57.0716 41.3138C57.0416 41.4218 56.9986 41.5368 56.9396 41.6558C56.4796 42.6018 56.3636 43.6418 53.9736 43.5538L53.3906 43.4998M54.9736 26.8668C54.9736 26.8668 56.4196 27.2408 57.0456 27.6778C57.0556 27.6848 57.0646 27.6908 57.0746 27.6988C57.1496 27.7528 57.2116 27.8098 57.2556 27.8648M45.5436 39.1148C45.5436 39.1148 45.3156 39.3178 45.2996 39.5848C45.2836 39.8548 45.2796 40.3648 45.0636 40.8378C44.8476 41.3078 44.4056 42.3868 44.4446 42.6308C44.4836 42.8768 45.0666 43.8848 45.0726 43.9358C45.0796 43.9888 45.2426 44.1518 45.2706 44.1608C45.3016 44.1718 45.5506 44.2078 45.6026 44.1998C45.6526 44.1938 45.8326 44.2248 45.8936 44.2078C45.9556 44.1938 46.1206 44.1498 46.1256 44.0698C46.1296 43.9898 46.1156 43.8778 46.1776 43.8528C46.2396 43.8258 46.5446 43.4598 46.4356 43.4218C46.3276 43.3868 46.1386 43.3228 46.0416 43.2878C45.9416 43.2508 45.8106 43.2548 45.7576 43.1298C45.7036 43.0048 45.6476 42.9298 45.6956 42.8038C45.7436 42.6728 45.8926 42.5538 45.9876 42.4878C46.0826 42.4218 47.2206 41.6198 47.4006 41.6518C47.5806 41.6858 48.0186 41.7818 48.2006 41.9528C48.3816 42.1258 49.9386 43.4308 50.2726 43.5828C50.6076 43.7338 51.9606 44.5538 52.6346 44.6208C53.3056 44.6938 54.4906 44.9458 54.9986 45.0868C55.5046 45.2278 56.6026 45.4368 57.0796 44.8878C57.5566 44.3408 57.7716 44.3048 57.8016 43.9618C57.8306 43.6208 58.0016 42.6418 57.7176 42.1598C57.4326 41.6788 57.1616 41.3398 57.1616 41.3398M44.9616 36.6838C44.9616 36.6838 44.6166 38.1598 45.5866 39.0628C45.6066 39.0828 45.6286 39.1028 45.6506 39.1208C46.7006 40.0188 47.6086 41.0428 48.8386 41.6278C50.0686 42.2168 52.7766 43.2908 53.0676 43.3918C53.1276 43.4118 53.2416 43.4548 53.3856 43.5128C53.9276 43.7308 54.8956 44.1568 55.0586 44.3158M44.5036 35.3648C44.5036 35.3648 44.5896 36.1788 44.8896 36.5458C44.9166 36.5798 44.9506 36.6158 44.9896 36.6558C45.3856 37.0488 46.3696 37.6838 47.5636 37.7548C48.8736 37.8338 50.2596 38.0248 51.0326 37.2968L51.0326 37.2958C51.0346 37.2948 51.0366 37.2928 51.0376 37.2918M48.2416 30.9308C48.2416 30.9308 48.3556 31.0548 48.5386 31.2498C49.1316 31.8748 50.4546 33.2388 51.0686 33.6038M51.0326 37.2968C51.1046 38.1728 51.2506 38.9258 51.5946 39.2088C51.5946 39.2088 52.0086 39.5578 52.0556 39.5998C52.1046 39.6448 52.4736 39.8778 52.5086 39.9618C52.5446 40.0418 52.6496 40.3208 52.5956 40.3778C52.5406 40.4358 52.3216 40.5548 52.2986 40.5958C52.2776 40.6328 52.2026 40.8508 52.3506 40.9308C52.3506 40.9308 52.4166 40.9838 52.4936 40.8868C52.5706 40.7928 52.6836 40.7558 52.7546 40.7428C52.8266 40.7258 53.1986 40.5678 53.2086 40.4058C53.2176 40.2518 53.2256 40.1268 53.2266 40.1148M53.2266 40.1148L53.2266 40.1148L53.8446 41.4038C53.8446 41.4038 54.0316 41.4948 54.0856 41.4468C54.1386 41.3998 54.2126 41.3448 54.1776 41.2528C54.1436 41.1588 54.0346 40.7788 54.0346 40.7788L53.8756 40.2328L53.7436 39.9038L53.6196 39.5298M53.6186 39.5288L53.6196 39.5298L54.2326 40.3468L54.5536 40.8888C54.5536 40.8888 54.7136 41.0728 54.8176 41.0268C54.9206 40.9848 55.0436 40.9298 54.9586 40.7128C54.8696 40.4958 54.6836 40.0608 54.6836 40.0608C54.6836 40.0608 54.4126 39.5298 54.1616 39.3328L54.7246 39.5478L55.4926 40.0378C55.4926 40.0378 55.6146 40.0248 55.6586 39.9678C55.7016 39.9088 55.6476 39.8038 55.5916 39.7408C55.5346 39.6778 54.9606 38.9678 54.9606 38.9678C54.9606 38.9678 54.7096 38.7788 54.5816 38.7228C54.5816 38.7228 54.4566 38.6238 54.4306 38.5498C54.4056 38.4798 54.0886 38.1868 54.0306 38.1338C53.9736 38.0798 53.4776 37.7668 53.3086 37.7268C53.1396 37.6868 52.6886 37.6298 52.7246 37.3688C52.7616 37.1098 53.3016 35.8298 53.3016 35.8298L53.6926 35.0338C53.6926 35.0338 53.7586 34.9068 53.8496 34.7218C54.0346 34.3448 54.3186 33.7288 54.3336 33.4758C54.3336 33.4758 55.2836 33.3468 55.3116 32.8898C55.3386 32.4348 55.6756 31.7548 52.9366 30.7538C52.9366 30.7538 52.1236 31.2988 51.7226 32.1348C51.5216 32.5568 51.3156 33.0548 51.1666 33.6298C51.0196 34.1968 50.9286 34.8398 50.9516 35.5618C50.9696 36.1298 50.9856 36.7378 51.0326 37.2958M46.2606 33.4248C46.2606 33.4248 45.3816 32.8338 45.2466 32.8258C45.1826 32.8218 44.9496 32.7828 44.6936 32.7478C44.4196 32.7098 44.1176 32.6768 43.9636 32.6958C43.6646 32.7308 42.7166 33.2648 42.6566 33.8268C42.5956 34.3898 42.1566 35.8978 43.5566 35.8718C43.5566 35.8718 44.0896 35.5758 44.3406 35.3468C44.3766 35.3138 44.4066 35.2828 44.4276 35.2538C44.6046 35.0218 45.6356 34.4348 45.8236 34.4468C45.9336 34.4538 46.3946 34.4428 46.7886 34.4808C47.0606 34.5078 47.3006 34.5568 47.3726 34.6488C47.5476 34.8738 47.6636 35.6358 47.7656 35.7218C47.8686 35.8088 48.6886 36.4768 48.6886 36.4768M48.5176 31.2698C48.5176 31.2698 48.0116 31.5148 47.5636 31.8078C47.3386 31.9538 47.1296 32.1118 47.0046 32.2578C46.6756 32.6368 46.4046 33.0628 46.3266 33.4338C46.3156 33.4868 46.3086 33.5388 46.3056 33.5898C46.2806 33.9898 46.6376 34.3338 46.7916 34.4528M51.3336 28.3148L50.0616 28.8588C50.0616 28.8588 48.7496 29.1848 48.4236 29.2218C48.0996 29.2538 46.8446 29.5298 46.8816 30.2598C46.9186 30.9868 46.7946 31.2468 47.0526 31.4508C47.3096 31.6568 47.5446 31.7778 47.5446 31.7778M55.4616 18.1038C55.4616 18.1038 56.2596 18.6708 56.3346 18.9498M52.6566 19.1738C52.6566 19.1738 52.5126 19.7068 52.6686 19.9548C52.6686 19.9548 53.0796 21.1058 54.3196 21.1988C54.4366 21.2088 55.5766 21.2518 55.5766 21.2518M57.7796 15.6058L58.0406 15.8898M53.0416 12.6248C52.9256 12.3188 53.2416 12.0338 53.3806 11.9528C53.4026 11.9408 53.6096 11.8958 53.6096 11.8958C53.6066 11.8748 53.6046 11.8628 53.6026 11.8448C53.5736 11.4078 54.9156 11.1928 54.9156 11.1928C54.9546 10.3338 57.0046 10.6988 57.0046 10.6988C57.9706 10.5418 58.9496 11.2728 58.9496 11.2728C59.7106 11.1278 60.1146 12.0438 60.1146 12.0438C60.8416 12.2608 60.5246 13.3048 60.5046 13.3998C60.4866 13.4908 60.4886 13.6658 60.1076 13.7248C59.9846 13.7428 59.8426 13.7028 59.6976 13.6378C59.3956 13.5018 59.3526 13.5668 58.9156 13.2898L58.3686 12.8788C58.3686 12.8788 58.4086 13.3128 58.2246 13.4918C58.0386 13.6688 57.9716 13.6648 57.8496 13.6578C57.7296 13.6508 57.4586 13.9158 57.2906 14.0158C57.1226 14.1128 56.8516 14.4018 56.4316 14.4198C56.4316 14.4198 55.6416 14.5888 55.4196 14.4658C55.1976 14.3458 54.6946 14.5728 54.6256 14.3798C54.5806 14.2568 54.4466 14.0718 54.2106 13.9218M53.9296 16.3068L55.8846 15.7998L55.9956 15.8598L56.7646 16.2778C56.7646 16.2778 57.2726 16.5498 57.4566 16.5208C57.6396 16.4918 57.6456 16.3898 57.6506 16.3098C57.6556 16.2308 57.7846 16.0948 57.8466 16.0798C57.9076 16.0638 58.0406 15.8898 58.0406 15.8898C58.0406 15.8898 58.2816 15.8828 58.3666 15.8288C58.4466 15.7768 58.5686 15.6328 58.5806 15.6188M58.5806 15.6188C58.5806 15.6188 58.8826 15.9588 58.9706 15.5218C59.0576 15.0828 59.4556 14.1568 59.5276 13.9588C59.6016 13.7628 59.6786 13.6808 59.6786 13.6808M55.9806 15.8868C55.9806 15.8868 56.0706 16.6098 55.6696 17.0938C55.6046 17.1728 55.5256 17.2458 55.4316 17.3068L54.7586 17.7538M51.5746 19.6808L52.5986 19.1668L53.4056 18.7618C53.4056 18.7618 54.6066 18.3438 55.2656 18.0508C55.5036 17.9458 55.6706 17.8558 55.6846 17.8088C55.7336 17.6298 55.7256 17.1238 55.7256 17.1238M49.1126 17.2918C48.4516 17.5358 47.7656 16.8478 47.1286 16.0438C46.4896 15.2368 46.9766 14.5378 47.8826 13.5438C48.6896 12.6608 51.1406 12.4108 51.6836 12.3698M48.7796 20.1398L47.5916 19.7458C47.3936 19.6918 46.2506 19.2218 46.0086 19.2068C45.7686 19.1928 45.1776 18.9578 44.9056 18.7808C44.6326 18.5988 44.0776 17.7598 44.0896 17.5568C44.0996 17.3918 44.1806 16.4778 44.2986 15.8018C44.3246 15.6498 44.3526 15.5098 44.3816 15.3928C44.5396 14.7578 45.0786 14.5478 45.4546 14.3278C45.8316 14.1068 46.2436 13.2848 46.6616 13.0258C47.0826 12.7688 48.1846 12.5538 49.0446 12.3618C49.9026 12.1718 51.5486 12.3508 51.5486 12.3508C51.5486 12.3508 51.5986 12.3478 51.6846 12.3498C51.9306 12.3568 52.4726 12.4048 53.0156 12.6758C53.1626 12.7488 53.3096 12.8378 53.4506 12.9468C53.7546 13.1838 53.9736 13.4608 54.1176 13.7558C54.3756 14.2838 54.3936 14.8698 54.2336 15.3788C54.1336 15.6998 53.9736 15.9988 53.7996 16.2488C53.5456 16.6148 53.2626 16.8798 53.0886 16.9658C52.7976 17.1098 52.5116 17.1738 52.3646 17.6098C52.2186 18.0438 51.9956 19.0398 51.5276 19.4568C51.5276 19.4568 51.4536 19.4778 51.5016 19.6788C51.5166 19.7368 51.5406 19.8108 51.5806 19.9048C51.7576 20.3188 52.3356 21.4428 52.3256 22.2918C52.3146 23.1398 52.4686 23.9548 52.6716 24.6128C52.8746 25.2718 53.2706 26.0628 53.4316 26.0728C53.5926 26.0828 53.9096 26.1808 54.0236 26.3118C54.1366 26.4388 54.5706 26.6248 54.6886 26.6738C54.7606 26.7018 54.9316 26.7808 54.9656 26.8688C54.9876 26.9268 54.9516 26.9888 54.7886 27.0438C54.3756 27.1808 54.0186 27.0778 54.0186 27.0778C54.0186 27.0778 53.8036 26.9548 53.7316 26.9588C53.6616 26.9638 53.5646 27.0608 53.5016 27.0958C53.4446 27.1308 53.2036 27.1968 53.1126 27.3138C53.1126 27.3148 53.1126 27.3148 53.1126 27.3158C53.1046 27.3248 53.0976 27.3348 53.0926 27.3448M53.1156 27.3078C53.1156 27.3078 53.1146 27.3098 53.1126 27.3138M53.1126 27.3158C53.0936 27.3648 52.9926 27.6308 52.9686 27.7218C52.9426 27.8208 52.8826 28.1608 52.8736 28.2998C52.8656 28.4418 52.8756 28.6258 52.7706 28.6788C52.7706 28.6788 52.5166 28.8648 52.3756 28.8778C52.2326 28.8878 51.9896 28.9138 51.8546 28.8058C51.7206 28.6958 51.5696 28.5048 51.4356 28.3988C51.4076 28.3748 51.3766 28.3428 51.3476 28.3038C51.2346 28.1558 51.1306 27.9008 51.1826 27.5528C51.2496 27.1118 51.5126 26.7668 51.5186 26.6638C51.5246 26.5638 51.0366 25.2818 51.0366 25.2818C51.0366 25.2818 50.2886 24.2698 50.1636 24.0188C50.0686 23.8338 49.6436 23.3688 49.3596 22.2878C49.2626 21.9188 49.1816 21.4768 49.1356 20.9498C49.1356 20.9498 49.0306 20.6438 49.0556 20.0778C49.0606 19.9558 49.0726 19.8208 49.0916 19.6748C49.1996 18.8528 49.1646 17.7808 49.1766 17.5788C49.1796 17.5308 49.1896 17.4328 49.2046 17.3028C49.2546 16.9028 49.3676 16.2028 49.5496 15.7238C49.7896 15.0918 50.7096 13.5528 50.7096 13.5528M48.9856 20.0738C48.9856 20.0738 48.9256 20.1178 48.8206 20.1938C48.5516 20.3878 47.9886 20.7878 47.3846 21.1868C46.5446 21.7428 45.8226 20.9728 45.3976 20.6638C44.9706 20.3578 44.0656 20.6638 43.2506 20.7788C42.7746 20.8438 42.3616 20.5558 42.0626 20.2698C41.8486 20.0658 41.6926 19.8648 41.6126 19.7928C41.4206 19.6198 41.2666 18.8428 41.4786 18.6528C41.6926 18.4628 42.3026 17.7328 42.3026 17.7328C43.2536 16.0138 44.2356 15.7908 44.2356 15.7908M42.0696 20.2638C42.0696 20.2638 42.0666 20.2658 42.0626 20.2698C41.9956 20.3258 41.5146 20.7828 42.2636 21.9248M45.2126 22.5178C45.2126 22.5178 44.3866 23.3718 44.3866 24.7248C44.3876 26.0748 44.7706 28.0768 44.7636 28.5418C44.7586 28.8278 44.6426 29.5298 44.4936 30.2178C44.4016 30.6438 44.1726 31.5958 44.5836 32.6218M43.5606 22.3318C43.5606 22.3318 42.3436 23.1688 42.3636 25.1908C42.3826 27.0718 42.6606 29.6568 41.8806 31.0548C41.8226 31.1588 41.7596 31.2588 41.6906 31.3558C41.6906 31.3558 41.0896 32.0628 41.5936 32.0928C42.0966 32.1228 42.3936 32.0828 42.6396 32.3608C42.7426 32.4778 42.8596 32.5918 42.9776 32.6528C42.9776 32.6528 43.4886 32.7698 44.0466 32.6868" fill="none" opacity="1" stroke="#231f20" stroke-linecap="round" stroke-linejoin="round" stroke-width="0.263"/>
<path d="M73.2907 36.6734C73.2907 36.6734 72.0577 37.6574 73.8947 38.2064" fill="none" opacity="1" stroke="#231f20" stroke-linecap="round" stroke-linejoin="round" stroke-width="0.238"/>
<path d="M83.1774 25.3272C83.1774 25.3272 83.5044 27.0232 83.1774 28.8872C82.8504 30.7512 83.5444 36.3032 83.3974 37.4072" fill="none" opacity="1" stroke="#231f20" stroke-linecap="round" stroke-linejoin="round" stroke-width="0.263"/>
<path d="M79.2344 20.4736L80.2874 19.4206" fill="none" opacity="1" stroke="#231f20" stroke-linecap="round" stroke-linejoin="round" stroke-width="0.263"/>
<path d="M74.7525 27.6927C74.7525 27.6927 74.7035 28.5187 74.8425 29.7057M77.8205 35.6477C79.2395 37.2497 80.8035 38.8707 80.8035 38.8707M73.0715 25.0187L75.4645 24.8987C75.4645 24.8987 75.9845 24.8347 76.3215 24.6257M72.7135 24.0137C72.7135 24.0137 72.5715 24.8897 72.3655 25.4317M63.3805 19.4297C63.7725 19.2337 63.8325 18.9837 63.8325 18.9837C63.8325 18.9837 63.2605 18.5757 62.9245 18.4347C62.5885 18.2947 62.9275 18.0287 62.9275 18.0287M72.7325 20.5137C72.7325 20.5137 74.4585 20.1677 74.5355 22.0247M52.9375 30.7517C52.9375 30.7517 53.4845 30.0867 54.7415 30.0867C54.7415 30.0867 55.2795 30.0617 55.7115 30.0617M58.7525 32.9287C58.6195 33.4347 58.6155 34.0197 58.2185 35.0677C58.2185 35.0677 58.0135 35.6177 57.7775 36.1017C57.6065 36.6957 56.2085 37.9087 56.2085 37.9087M61.1985 23.3037C61.1985 23.3037 63.3555 23.7907 63.8275 22.2497M49.8205 23.5647C49.8205 23.5647 49.7045 24.5517 49.9955 25.9457C50.2855 27.3397 50.6915 28.6177 50.6915 28.6177M56.3345 28.8627C56.3345 28.8627 58.5555 29.7337 58.8915 30.7887M64.4255 27.8247C64.4255 27.8247 65.3735 24.8997 65.9665 24.6617" fill="none" opacity="1" stroke="#231f20" stroke-linecap="round" stroke-linejoin="round" stroke-width="0.263"/>
<path d="M59.1685 30.4821L58.9145 30.6961" fill="none" opacity="1" stroke="#231f20" stroke-linecap="round" stroke-linejoin="round" stroke-width="0.263"/>
<path d="M21.8022 92.204C21.7752 92.392 21.8692 92.513 22.0572 92.513L22.9312 92.513C23.0382 92.513 23.1592 92.419 23.1732 92.325L24.1402 86.319L24.1942 86.319L26.6262 92.5C26.6532 92.58 26.7472 92.647 26.8542 92.647L27.0962 92.647C27.2172 92.647 27.2982 92.58 27.3252 92.5L29.7432 86.319L29.7842 86.319L30.7782 92.325C30.8052 92.419 30.9122 92.513 31.0332 92.513L31.9072 92.513C32.0952 92.513 32.1892 92.392 32.1492 92.204L30.4962 83.174C30.4692 83.067 30.3622 82.973 30.2542 82.973L30.0392 82.973C29.9452 82.973 29.8372 83.04 29.8112 83.12L27.0162 89.987L26.9622 89.987L24.1542 83.12C24.1272 83.04 24.0062 82.973 23.9252 82.973L23.7102 82.973C23.6032 82.973 23.4952 83.067 23.4682 83.174L21.8022 92.204ZM34.1242 92.258C34.1242 92.392 34.2452 92.513 34.3792 92.513L35.2662 92.513C35.4002 92.513 35.5212 92.392 35.5212 92.258L35.5212 83.362C35.5212 83.228 35.4002 83.107 35.2662 83.107L34.3792 83.107C34.2452 83.107 34.1242 83.228 34.1242 83.362L34.1242 92.258ZM38.1282 92.258C38.1282 92.392 38.2352 92.513 38.3832 92.513L43.1672 92.513C43.3152 92.513 43.4222 92.392 43.4222 92.258L43.4222 91.519C43.4222 91.384 43.3152 91.263 43.1672 91.263L39.5252 91.263L39.5252 83.362C39.5252 83.228 39.4042 83.107 39.2702 83.107L38.3832 83.107C38.2352 83.107 38.1282 83.228 38.1282 83.362L38.1282 92.258ZM44.4702 92.513L45.3172 92.513C45.4782 92.513 45.5852 92.406 45.6262 92.311C45.8952 91.693 46.1772 91.089 46.4452 90.471L50.8392 90.471L51.6732 92.311C51.7262 92.432 51.8202 92.513 51.9822 92.513L52.8282 92.513C53.0302 92.513 53.1372 92.338 53.0572 92.164L48.9582 83.12C48.9182 83.04 48.7972 82.973 48.7302 82.973L48.5952 82.973C48.5282 82.973 48.4072 83.04 48.3672 83.12L44.2422 92.164C44.1612 92.338 44.2692 92.513 44.4702 92.513M46.9692 89.315L48.6092 85.633L48.6762 85.633L50.3292 89.315L46.9692 89.315ZM54.4002 92.258C54.4002 92.392 54.5212 92.513 54.6552 92.513L55.5022 92.513C55.6502 92.513 55.7572 92.392 55.7572 92.258L55.7572 85.714L55.7712 85.714L61.6022 92.647L61.9522 92.647C62.0862 92.647 62.2072 92.54 62.2072 92.406L62.2072 83.362C62.2072 83.228 62.0862 83.107 61.9522 83.107L61.0922 83.107C60.9442 83.107 60.8372 83.228 60.8372 83.362L60.8372 89.718L60.8232 89.718L54.9912 82.973L54.6552 82.973C54.5212 82.973 54.4002 83.08 54.4002 83.214L54.4002 92.258ZM64.1292 87.823C64.1292 90.511 66.2652 92.647 68.9532 92.647C71.6402 92.647 73.7902 90.511 73.7902 87.823C73.7902 85.136 71.6402 82.973 68.9532 82.973C66.2652 82.973 64.1292 85.136 64.1292 87.823M65.4722 87.823C65.4722 85.915 67.0442 84.316 68.9532 84.316C70.8742 84.316 72.4462 85.915 72.4462 87.823C72.4462 89.745 70.8742 91.304 68.9532 91.304C67.0442 91.304 65.4722 89.745 65.4722 87.823M77.7152 92.513L82.3912 92.513C82.5392 92.513 82.6472 92.406 82.6472 92.271L82.6472 91.693C82.6472 91.546 82.5392 91.438 82.3912 91.438L80.9132 91.438L80.9132 83.631C80.9132 83.497 80.8062 83.376 80.6712 83.376L80.0132 83.376L78.0112 85.19C77.9572 85.244 77.9302 85.351 77.9702 85.459L78.1322 85.929C78.1722 86.05 78.3062 86.077 78.4272 86.023L79.5962 85.432L79.5962 91.438L77.7152 91.438C77.5672 91.438 77.4602 91.546 77.4602 91.693L77.4602 92.271C77.4602 92.406 77.5672 92.513 77.7152 92.513M84.1652 90.067C84.1652 91.532 85.3612 92.647 87.2422 92.647C89.1902 92.647 90.3732 91.532 90.3732 90.067C90.3732 88.912 89.3652 88.106 88.7472 87.823L88.7472 87.77C89.3252 87.474 90.1312 86.735 90.1312 85.7C90.1312 84.222 88.9082 83.241 87.2552 83.241C85.6432 83.241 84.4072 84.222 84.4072 85.7C84.4072 86.748 85.2132 87.488 85.7912 87.783L85.7912 87.823C85.2942 88.052 84.1652 88.898 84.1652 90.067M87.2692 87.192C86.2212 87.031 85.7642 86.48 85.7642 85.754C85.7642 84.934 86.4222 84.343 87.2292 84.343C88.1152 84.343 88.7742 84.934 88.7742 85.754C88.7742 86.466 88.3042 87.044 87.2692 87.192M85.5622 90.094C85.5622 89.382 86.1802 88.643 87.2692 88.482C88.3572 88.643 88.9752 89.382 88.9752 90.094C88.9752 90.995 88.2092 91.559 87.2552 91.559C86.3692 91.559 85.5622 90.981 85.5622 90.094M91.7572 88.885C91.7572 90.954 92.7782 92.647 94.9282 92.647C96.5542 92.647 97.9242 91.263 97.9242 89.57C97.9242 87.716 96.5402 86.654 95.1162 86.654C94.2162 86.654 93.4362 87.084 93.3292 87.152C93.7722 85.499 95.9092 84.384 96.5272 84.182C96.7822 84.101 96.8362 83.954 96.7692 83.792L96.5402 83.241C96.4872 83.094 96.3662 83.026 96.2042 83.08C94.9682 83.55 91.7572 85.136 91.7572 88.885M94.9152 91.438C93.4502 91.438 92.9532 89.906 93.0602 88.778C93.1412 88.536 93.8402 87.756 94.9012 87.756C95.8952 87.756 96.6882 88.576 96.6882 89.584C96.6882 90.592 95.9092 91.438 94.9152 91.438M98.9452 91.452C99.2412 91.801 100.034 92.647 101.7 92.647C103.554 92.647 104.737 91.546 104.737 90.081C104.737 88.925 103.743 88.119 103.111 87.85L103.111 87.81C103.716 87.528 104.495 86.735 104.495 85.7C104.495 84.195 103.245 83.241 101.687 83.241C100.222 83.241 99.2012 84.424 99.2012 84.424C99.1072 84.518 99.0932 84.679 99.2012 84.773L99.6982 85.217C99.8192 85.324 99.9672 85.297 100.047 85.19C100.316 84.894 100.8 84.437 101.606 84.437C102.399 84.437 103.138 85.002 103.138 85.902C103.138 86.695 102.506 87.34 101.243 87.34L100.491 87.34C100.303 87.34 100.222 87.42 100.222 87.622L100.222 88.2C100.222 88.388 100.33 88.482 100.477 88.482L101.23 88.482C102.668 88.482 103.353 89.248 103.353 90.054C103.353 90.954 102.547 91.505 101.673 91.505C100.679 91.505 99.9262 90.78 99.8462 90.672C99.7382 90.551 99.6172 90.538 99.4832 90.645L98.9592 91.129C98.8652 91.21 98.8652 91.357 98.9452 91.452" fill="#231f20" fill-rule="nonzero" opacity="1" stroke="none"/>
<path d="M0.921584 76.3634C0.921584 76.5554 1.07558 76.7284 1.28657 76.7284L3.05258 76.7284C3.24458 76.7284 3.41658 76.5554 3.41658 76.3634L3.41658 71.8524L5.81659 71.8524C8.15858 71.8524 10.0976 69.9134 10.0976 67.5334C10.0976 65.2104 8.15858 63.2914 5.79758 63.2914L1.28657 63.2914C1.07558 63.2914 0.921584 63.4634 0.921584 63.6554L0.921584 76.3634ZM3.41658 69.5104L3.41658 65.6524L5.64358 65.6524C6.71858 65.6524 7.62057 66.4584 7.62057 67.5144C7.62057 68.6464 6.71858 69.5104 5.64358 69.5104L3.41658 69.5104ZM11.5566 70.0284C11.5566 73.8684 14.6086 76.9204 18.4476 76.9204C22.2866 76.9204 25.3576 73.8684 25.3576 70.0284C25.3576 66.1894 22.2866 63.0994 18.4476 63.0994C14.6086 63.0994 11.5566 66.1894 11.5566 70.0284M14.0516 70.0284C14.0516 67.6104 16.0286 65.5944 18.4476 65.5944C20.8666 65.5944 22.8626 67.6104 22.8626 70.0284C22.8626 72.4474 20.8666 74.4244 18.4476 74.4244C16.0286 74.4244 14.0516 72.4474 14.0516 70.0284M27.3736 76.3634C27.3736 76.5554 27.5266 76.7284 27.7386 76.7284L34.7636 76.7284C34.9746 76.7284 35.1286 76.5554 35.1286 76.3634L35.1286 74.7894C35.1286 74.5974 34.9746 74.4244 34.7636 74.4244L29.8686 74.4244L29.8686 63.6554C29.8686 63.4634 29.6966 63.2914 29.5046 63.2914L27.7386 63.2914C27.5266 63.2914 27.3736 63.4634 27.3736 63.6554L27.3736 76.3634ZM37.6426 76.3634C37.6426 76.5554 37.8156 76.7284 38.0076 76.7284L39.7926 76.7284C39.9846 76.7284 40.1576 76.5554 40.1576 76.3634L40.1576 63.6554C40.1576 63.4634 39.9846 63.2914 39.7926 63.2914L38.0076 63.2914C37.8156 63.2914 37.6426 63.4634 37.6426 63.6554L37.6426 76.3634ZM45.8776 76.3634C45.8776 76.5554 46.0506 76.7284 46.2426 76.7284L48.0276 76.7284C48.2196 76.7284 48.3926 76.5554 48.3926 76.3634L48.3926 65.5944L51.3296 65.5944C51.5406 65.5944 51.6946 65.4214 51.6946 65.2294L51.6946 63.6554C51.6946 63.4634 51.5406 63.2914 51.3296 63.2914L42.9406 63.2914C42.7296 63.2914 42.5766 63.4634 42.5766 63.6554L42.5766 65.2294C42.5766 65.4214 42.7296 65.5944 42.9406 65.5944L45.8776 65.5944L45.8776 76.3634ZM53.8826 76.3634C53.8826 76.5554 54.0356 76.7284 54.2476 76.7284L62.0596 76.7284C62.2716 76.7284 62.4246 76.5554 62.4246 76.3634L62.4246 74.7894C62.4246 74.5974 62.2716 74.4244 62.0596 74.4244L56.3776 74.4244L56.3776 71.0654L61.1196 71.0654C61.3116 71.0654 61.4846 70.9114 61.4846 70.7004L61.4846 69.1074C61.4846 68.9154 61.3116 68.7424 61.1196 68.7424L56.3776 68.7424L56.3776 65.5944L62.0596 65.5944C62.2716 65.5944 62.4246 65.4214 62.4246 65.2294L62.4246 63.6554C62.4246 63.4634 62.2716 63.2914 62.0596 63.2914L54.2476 63.2914C54.0356 63.2914 53.8826 63.4634 53.8826 63.6554L53.8826 76.3634ZM64.3826 70.0284C64.3826 73.8684 67.4736 76.9204 71.3126 76.9204C73.0206 76.9204 74.6716 76.3254 75.9766 75.0584C76.1116 74.9234 76.1496 74.6744 75.9966 74.5394L74.8066 73.3114C74.6906 73.1964 74.4796 73.1764 74.3266 73.3114C73.5196 73.9634 72.5406 74.4054 71.3896 74.4054C68.9326 74.4054 67.0896 72.3704 67.0896 69.9714C67.0896 67.5524 68.9126 65.4984 71.3696 65.4984C72.4446 65.4984 73.5196 65.9204 74.3266 66.6314C74.4796 66.7844 74.6716 66.7844 74.8066 66.6314L75.9766 65.4214C76.1306 65.2684 76.1306 65.0374 75.9576 64.8844C74.6526 63.7134 73.2516 63.0994 71.3126 63.0994C67.4736 63.0994 64.3826 66.1894 64.3826 70.0284M78.5296 76.3634C78.5296 76.5554 78.7026 76.7284 78.8946 76.7284L80.6416 76.7284C80.8526 76.7284 81.0066 76.5554 81.0066 76.3634L81.0066 68.1094L81.0256 68.1094L89.0496 76.9204L89.5106 76.9204C89.7016 76.9204 89.8746 76.7664 89.8746 76.5744L89.8746 63.6554C89.8746 63.4634 89.7016 63.2914 89.5106 63.2914L87.7436 63.2914C87.5326 63.2914 87.3796 63.4634 87.3796 63.6554L87.3796 71.5834L87.3606 71.5834L79.3746 63.0994L78.8946 63.0994C78.7026 63.0994 78.5296 63.2524 78.5296 63.4444L78.5296 76.3634ZM93.1766 76.3634C93.1766 76.5554 93.3496 76.7284 93.5416 76.7284L95.3266 76.7284C95.5186 76.7284 95.6916 76.5554 95.6916 76.3634L95.6916 63.6554C95.6916 63.4634 95.5186 63.2914 95.3266 63.2914L93.5416 63.2914C93.3496 63.2914 93.1766 63.4634 93.1766 63.6554L93.1766 76.3634ZM98.2056 70.0284C98.2056 73.8684 101.297 76.9204 105.136 76.9204C106.844 76.9204 108.495 76.3254 109.8 75.0584C109.935 74.9234 109.973 74.6744 109.82 74.5394L108.629 73.3114C108.514 73.1964 108.303 73.1764 108.15 73.3114C107.343 73.9634 106.364 74.4054 105.213 74.4054C102.755 74.4054 100.913 72.3704 100.913 69.9714C100.913 67.5524 102.736 65.4984 105.193 65.4984C106.268 65.4984 107.343 65.9204 108.15 66.6314C108.303 66.7844 108.495 66.7844 108.629 66.6314L109.8 65.4214C109.954 65.2684 109.954 65.0374 109.781 64.8844C108.476 63.7134 107.075 63.0994 105.136 63.0994C101.297 63.0994 98.2056 66.1894 98.2056 70.0284M111.585 70.0284C111.585 73.8684 114.638 76.9204 118.477 76.9204C122.316 76.9204 125.387 73.8684 125.387 70.0284C125.387 66.1894 122.316 63.0994 118.477 63.0994C114.638 63.0994 111.585 66.1894 111.585 70.0284M114.081 70.0284C114.081 67.6104 116.058 65.5944 118.477 65.5944C120.895 65.5944 122.892 67.6104 122.892 70.0284C122.892 72.4474 120.895 74.4244 118.477 74.4244C116.058 74.4244 114.081 72.4474 114.081 70.0284" fill="#231f20" fill-rule="nonzero" opacity="1" stroke="none"/>
</g>
</g>
</svg>
